SplineFontDB: 3.2
FontName: NewestShape-Book
FullName: Newest Shape Book
FamilyName: Newest Shape
Weight: Book
Copyright: Copyright (c) 2022-2026 by Wojciech Kalinowski "wmk69" with Reserved Font Name "NewestShape-Book".\nThis Font Software is licensed under the SIL Open Font License, Version 1.1.
Version: 1.0.0; 2022-02-24
ItalicAngle: 0
UnderlinePosition: -80
UnderlineWidth: 200
Ascent: 1638
Descent: 410
InvalidEm: 0
LayerCount: 2
Layer: 0 1 "Warstwa t+AUIA-a" 1
Layer: 1 1 "Plan pierwszy" 0
XUID: [1021 783 23647091 2952791]
StyleMap: 0x0040
FSType: 0
OS2Version: 3
OS2_WeightWidthSlopeOnly: 0
OS2_UseTypoMetrics: 1
CreationTime: 1260698820
ModificationTime: 1645720910
PfmFamily: 33
TTFWeight: 400
TTFWidth: 5
LineGap: 200
VLineGap: 0
Panose: 2 11 5 3 2 2 3 6 2 4
OS2TypoAscent: 2016
OS2TypoAOffset: 0
OS2TypoDescent: -573
OS2TypoDOffset: 0
OS2TypoLinegap: 200
OS2WinAscent: 2016
OS2WinAOffset: 0
OS2WinDescent: 573
OS2WinDOffset: 0
HheadAscent: 2016
HheadAOffset: 0
HheadDescent: -573
HheadDOffset: 0
OS2SubXSize: 1434
OS2SubYSize: 1331
OS2SubXOff: 0
OS2SubYOff: 287
OS2SupXSize: 1434
OS2SupYSize: 1331
OS2SupXOff: 0
OS2SupYOff: 977
OS2StrikeYSize: 102
OS2StrikeYPos: 512
OS2CapHeight: 1510
OS2XHeight: 1100
OS2Vendor: '    '
OS2CodePages: 20000093.00000000
OS2UnicodeRanges: 8000002f.4000204b.00000000.00000000
Lookup: 258 0 0 "'kern' Horizontal Kerning lookup 0" { "'kern' Horizontal Kerning lookup 0-1" [307,0,4] } ['kern' ('DFLT' <'dflt' > 'grek' <'dflt' > 'latn' <'dflt' > ) ]
MarkAttachClasses: 1
DEI: 91125
KernClass2: 75 55 "'kern' Horizontal Kerning lookup 0-1"
 84 A Agrave Aacute Acircumflex Atilde Adieresis Aring Amacron Abreve Aogonek Aringacute
 28 B germandbls uni1E02 uni1E9E
 140 C E AE Ccedilla Egrave Eacute Ecircumflex Edieresis Cacute Ccircumflex Cdotaccent Ccaron Emacron Ebreve Edotaccent Eogonek Ecaron OE AEacute
 122 D O Q Eth Ograve Oacute Ocircumflex Otilde Odieresis Oslash Dcaron Dcroat Omacron Obreve Ohungarumlaut Oslashacute uni1E0A
 9 F uni1E1E

StartChar: .notdef
Encoding: 65536 -1 0
Width: 844
Flags: W
HStem: 0 68<218 626> 1297 68<218 626>
VStem: 150 68<68 1297> 626 68<68 1297>
LayerCount: 2
Fore
SplineSet
150 0 m 1,0,-1
 150 1365 l 1,1,-1
 694 1365 l 1,2,-1
 694 0 l 1,3,-1
 150 0 l 1,0,-1
218 68 m 1,4,-1
 626 68 l 1,5,-1
 626 1297 l 1,6,-1
 218 1297 l 1,7,-1
 218 68 l 1,4,-1
EndSplineSet
Validated: 1
EndChar

StartChar: exclam
Encoding: 33 33 4
Width: 692
GlyphClass: 2
Flags: W
HStem: -20 264<255.191 436.809> 1490 20G<250 442>
VStem: 216 260<19.7072 204.293> 250 192<402 1510>
LayerCount: 2
Fore
SplineSet
250 402 m 1,0,-1
 250 1510 l 1,1,-1
 442 1510 l 1,2,-1
 442 402 l 1,3,-1
 250 402 l 1,0,-1
216 112 m 128,-1,5
 216 167 216 167 254 205.5 c 128,-1,6
 292 244 292 244 346 244 c 128,-1,7
 400 244 400 244 438 205.5 c 128,-1,8
 476 167 476 167 476 112 c 128,-1,9
 476 57 476 57 438 18.5 c 128,-1,10
 400 -20 400 -20 346 -20 c 128,-1,11
 292 -20 292 -20 254 18.5 c 128,-1,4
 216 57 216 57 216 112 c 128,-1,5
EndSplineSet
Validated: 1
EndChar

StartChar: quotedbl
Encoding: 34 34 5
Width: 507
GlyphClass: 2
Flags: W
HStem: 1120 390<50 190 317 457>
VStem: 50 140<1120 1510> 317 140<1120 1510>
LayerCount: 2
Fore
SplineSet
317 1510 m 1,0,-1
 457 1510 l 1,1,-1
 457 1120 l 1,2,-1
 317 1120 l 1,3,-1
 317 1510 l 1,0,-1
50 1510 m 1,4,-1
 190 1510 l 1,5,-1
 190 1120 l 1,6,-1
 50 1120 l 1,7,-1
 50 1510 l 1,4,-1
EndSplineSet
Validated: 1
EndChar

StartChar: numbersign
Encoding: 35 35 6
Width: 1399
GlyphClass: 2
Flags: W
HStem: 494 160<201 446 606 794 954 1199> 842 160<200 446 606 794 954 1198>
VStem: 446 160<248 494 654 842 1002 1246> 794 160<250 494 654 842 1002 1248>
LayerCount: 2
Fore
SplineSet
446 1246 m 1,0,-1
 606 1246 l 1,1,-1
 606 1002 l 1,2,-1
 794 1002 l 1,3,-1
 794 1248 l 1,4,-1
 954 1248 l 1,5,-1
 954 1002 l 1,6,-1
 1198 1002 l 1,7,-1
 1198 842 l 1,8,-1
 954 842 l 1,9,-1
 954 654 l 1,10,-1
 1199 654 l 1,11,-1
 1199 494 l 1,12,-1
 954 494 l 1,13,-1
 954 250 l 1,14,-1
 794 250 l 1,15,-1
 794 494 l 1,16,-1
 606 494 l 1,17,-1
 606 248 l 1,18,-1
 446 248 l 1,19,-1
 446 494 l 1,20,-1
 201 494 l 1,21,-1
 201 654 l 1,22,-1
 446 654 l 1,23,-1
 446 842 l 1,24,-1
 200 842 l 1,25,-1
 200 1002 l 1,26,-1
 446 1002 l 1,27,-1
 446 1246 l 1,0,-1
794 654 m 1,28,-1
 794 842 l 1,29,-1
 606 842 l 1,30,-1
 606 654 l 1,31,-1
 794 654 l 1,28,-1
EndSplineSet
Validated: 1
EndChar

StartChar: dollar
Encoding: 36 36 7
Width: 1221
GlyphClass: 2
Flags: W
HStem: -20 180<398.606 572>
VStem: 270 194<1072.62 1301.95> 572 100<-180 -20 167 741 1015 1340 1531 1690> 921 200<306.266 597.542>
LayerCount: 2
Fore
SplineSet
572 -20 m 1,0,1
 294 -19 294 -19 100 206 c 1,2,-1
 248 324 l 1,3,4
 375 168 375 168 572 160 c 1,5,-1
 572 788 l 1,6,7
 270 936 270 936 270 1185 c 0,8,9
 270 1351 270 1351 404 1456 c 0,10,11
 473 1510 473 1510 572 1525 c 1,12,-1
 572 1690 l 1,13,-1
 672 1690 l 1,14,-1
 672 1531 l 1,15,16
 846 1523 846 1523 982 1387 c 1,17,-1
 842 1265 l 1,18,19
 761 1342 761 1342 672 1350 c 1,20,-1
 672 961 l 1,21,-1
 822 892 l 2,22,23
 1121 754 1121 754 1121 458 c 0,24,25
 1121 292 1121 292 997 148 c 0,26,27
 879 11 879 11 672 -14 c 1,28,-1
 672 -180 l 1,29,-1
 572 -180 l 5,30,-1
 572 -20 l 1,0,1
572 1015 m 1,31,-1
 572 1340 l 1,32,33
 536 1329 536 1329 512 1306 c 0,34,35
 464 1258 464 1258 464 1188 c 0,36,37
 464 1089 464 1089 572 1015 c 1,31,-1
672 741 m 1,38,-1
 672 167 l 1,39,40
 766 185 766 185 830 249 c 0,41,42
 921 340 921 340 921 457 c 0,43,44
 921 626 921 626 718 720 c 2,45,-1
 672 741 l 1,38,-1
EndSplineSet
Validated: 1
EndChar

StartChar: percent
Encoding: 37 37 8
Width: 1572
GlyphClass: 2
Flags: W
HStem: -20 157<1017.23 1226.8> 448 157<1017.37 1225.84> 905 157<345.229 554.802> 1373 157<345.368 553.836>
VStem: 150 150<1109.07 1326.92> 600 150<1109.07 1326.93> 822 150<184.066 401.918> 1272 150<184.066 401.934>
DStem2: 180 87 324 -20 0.596529 0.802592<0.0227725 1798.22>
LayerCount: 2
Fore
SplineSet
1016 403 m 0,0,1
 972 356 972 356 972 293 c 0,2,3
 972 229 972 229 1016 183 c 0,4,5
 1062 137 1062 137 1122 137 c 256,6,7
 1184 137 1184 137 1228 183 c 128,-1,8
 1272 229 1272 229 1272 293 c 128,-1,9
 1272 357 1272 357 1228 403 c 0,10,11
 1184 448 1184 448 1123 448 c 0,12,13
 1058 448 1058 448 1016 403 c 0,0,1
1122 -20 m 256,14,15
 998 -20 998 -20 910 72 c 128,-1,16
 822 164 822 164 822 293 c 128,-1,17
 822 422 822 422 910 514 c 0,18,19
 997 605 997 605 1125 605 c 0,20,21
 1247 605 1247 605 1334 514 c 0,22,23
 1422 422 1422 422 1422 293 c 128,-1,24
 1422 164 1422 164 1334 72 c 128,-1,25
 1246 -20 1246 -20 1122 -20 c 256,14,15
344 1328 m 0,26,27
 300 1281 300 1281 300 1218 c 0,28,29
 300 1154 300 1154 344 1108 c 0,30,31
 390 1062 390 1062 450 1062 c 256,32,33
 512 1062 512 1062 556 1108 c 128,-1,34
 600 1154 600 1154 600 1218 c 128,-1,35
 600 1282 600 1282 556 1328 c 0,36,37
 512 1373 512 1373 451 1373 c 0,38,39
 386 1373 386 1373 344 1328 c 0,26,27
453 1530 m 0,40,41
 575 1530 575 1530 662 1439 c 0,42,43
 750 1347 750 1347 750 1218 c 128,-1,44
 750 1089 750 1089 662 997 c 128,-1,45
 574 905 574 905 450 905 c 256,46,47
 326 905 326 905 238 997 c 128,-1,48
 150 1089 150 1089 150 1218 c 128,-1,49
 150 1347 150 1347 238 1439 c 0,50,51
 325 1530 325 1530 453 1530 c 0,40,41
180 87 m 1,52,-1
 1253 1530 l 1,53,-1
 1398 1425 l 1,54,-1
 324 -20 l 1,55,-1
 180 87 l 1,52,-1
EndSplineSet
Validated: 1
EndChar

StartChar: ampersand
Encoding: 38 38 9
Width: 1551
GlyphClass: 2
Flags: W
HStem: -20 180<480.214 869.423> 0 21G<1164.95 1401> 719 181<547.564 674> 1350 180<520.047 818.464>
VStem: 150 196<286.321 599.282> 248 197<999.682 1278.37> 1179 222<0 222> 1197 178<717.668 900>
DStem2: 765 900 674 719 0.577111 -0.816666<66.6946 973.923>
LayerCount: 2
Fore
SplineSet
1375 900 m 17,0,1
 1353 788 1353 788 1335 730 c 0,2,3
 1302 624 1302 624 1258 510 c 9,4,-1
 1076 510 l 1,5,6
 1102 564 1102 564 1131 648 c 0,7,8
 1177 781 1177 781 1197 900 c 1,9,-1
 1375 900 l 17,0,1
1401 0 m 1,10,-1
 1179 0 l 1,11,-1
 674 719 l 1,12,13
 515 719 515 719 442 658 c 0,14,15
 346 578 346 578 346 438 c 0,16,17
 346 307 346 307 442 229 c 0,18,19
 527 160 527 160 690 160 c 0,20,21
 819 160 819 160 929 241 c 9,22,-1
 929 28 l 1,23,24
 811 -20 811 -20 687 -20 c 0,25,26
 436 -20 436 -20 288 112 c 0,27,28
 150 236 150 236 150 438 c 0,29,30
 150 604 150 604 244 703 c 0,31,32
 342 806 342 806 480 829 c 1,33,34
 412 852 412 852 359 901 c 0,35,36
 248 1005 248 1005 248 1150 c 0,37,38
 248 1310 248 1310 390 1434 c 0,39,40
 501 1530 501 1530 676 1530 c 0,41,42
 863 1530 863 1530 984 1412 c 1,43,-1
 844 1284 l 1,44,45
 784 1350 784 1350 678 1350 c 128,-1,46
 572 1350 572 1350 515 1303 c 0,47,48
 445 1246 445 1246 445 1148 c 0,49,50
 445 1042 445 1042 512 972 c 0,51,52
 581 900 581 900 722 900 c 2,53,-1
 765 900 l 1,54,-1
 1401 0 l 1,10,-1
EndSplineSet
Validated: 1
EndChar

StartChar: quotesingle
Encoding: 39 39 10
Width: 240
GlyphClass: 2
Flags: W
HStem: 1120 390<50 190>
VStem: 50 140<1120 1510>
LayerCount: 2
Fore
SplineSet
50 1510 m 1,0,-1
 190 1510 l 1,1,-1
 190 1120 l 1,2,-1
 50 1120 l 1,3,-1
 50 1510 l 1,0,-1
EndSplineSet
Validated: 1
EndChar

StartChar: parenleft
Encoding: 40 40 11
Width: 855
GlyphClass: 2
Flags: W
VStem: 200 180<408.487 1113.69> 530 175<1585 1760>
LayerCount: 2
Fore
SplineSet
530 1760 m 1,0,-1
 705 1760 l 1,1,2
 380 1247 380 1247 380 755 c 0,3,4
 380 281 380 281 705 -250 c 1,5,-1
 530 -250 l 1,6,7
 200 218 200 218 200 755 c 128,-1,8
 200 1292 200 1292 530 1760 c 1,0,-1
EndSplineSet
Validated: 1
EndChar

StartChar: parenright
Encoding: 41 41 12
Width: 855
GlyphClass: 2
Flags: W
VStem: 150 175<1585 1760> 475 180<408.487 1113.69>
LayerCount: 2
Fore
SplineSet
325 1760 m 1,0,1
 655 1292 655 1292 655 755 c 128,-1,2
 655 218 655 218 325 -250 c 1,3,-1
 150 -250 l 1,4,5
 475 281 475 281 475 755 c 0,6,7
 475 1247 475 1247 150 1760 c 1,8,-1
 325 1760 l 1,0,1
EndSplineSet
Validated: 1
EndChar

StartChar: asterisk
Encoding: 42 42 13
Width: 1096
GlyphClass: 2
Flags: W
HStem: 1490 20G<473 623>
VStem: 473 150<677 964 1223 1510>
DStem2: 225 1367 150 1237 0.865645 -0.500658<0.162083 286.436 546.292 832.905> 150 950 225 820 0.865645 0.500658<0 286.613 546.468 832.742>
LayerCount: 2
Fore
SplineSet
473 1510 m 1,0,-1
 623 1510 l 1,1,-1
 623 1223 l 1,2,-1
 871 1367 l 1,3,-1
 946 1237 l 1,4,-1
 698 1094 l 1,5,-1
 946 950 l 1,6,-1
 871 820 l 1,7,-1
 623 964 l 1,8,-1
 623 677 l 1,9,-1
 473 677 l 1,10,-1
 473 964 l 1,11,-1
 225 820 l 1,12,-1
 150 950 l 1,13,-1
 398 1094 l 1,14,-1
 150 1237 l 1,15,-1
 225 1367 l 1,16,-1
 473 1223 l 1,17,-1
 473 1510 l 1,0,-1
EndSplineSet
Validated: 1
EndChar

StartChar: plus
Encoding: 43 43 14
Width: 1133
GlyphClass: 2
Flags: W
HStem: 655 180<150 476 656 983>
VStem: 476 180<328 655 835 1162>
LayerCount: 2
Fore
SplineSet
476 1162 m 1,0,-1
 656 1162 l 1,1,-1
 656 835 l 1,2,-1
 983 835 l 1,3,-1
 983 655 l 1,4,-1
 656 655 l 1,5,-1
 656 328 l 1,6,-1
 476 328 l 1,7,-1
 476 655 l 1,8,-1
 150 655 l 1,9,-1
 150 835 l 1,10,-1
 476 835 l 1,11,-1
 476 1162 l 1,0,-1
EndSplineSet
Validated: 1
EndChar

StartChar: comma
Encoding: 44 44 15
Width: 369
GlyphClass: 2
Flags: W
HStem: -292 560
VStem: 177 142<-109.265 109.779>
LayerCount: 2
Fore
SplineSet
165 268 m 1,0,1
 319 154 319 154 319 0 c 0,2,3
 319 -172 319 -172 129 -292 c 1,4,-1
 50 -176 l 1,5,6
 177 -102 177 -102 177 0 c 0,7,8
 177 87 177 87 81 158 c 1,9,-1
 165 268 l 1,0,1
EndSplineSet
Validated: 1
EndChar

StartChar: hyphen
Encoding: 45 45 16
Width: 1133
GlyphClass: 2
Flags: W
HStem: 655 180<150 983>
LayerCount: 2
Fore
SplineSet
150 835 m 1,0,-1
 983 835 l 1,1,-1
 983 655 l 1,2,-1
 150 655 l 1,3,-1
 150 835 l 1,0,-1
EndSplineSet
Validated: 1
EndChar

StartChar: period
Encoding: 46 46 17
Width: 360
GlyphClass: 2
Flags: W
HStem: -20 264<89.1914 270.809>
VStem: 50 260<19.7072 204.293>
LayerCount: 2
Fore
SplineSet
50 112 m 128,-1,1
 50 167 50 167 88 205.5 c 128,-1,2
 126 244 126 244 180 244 c 128,-1,3
 234 244 234 244 272 205.5 c 128,-1,4
 310 167 310 167 310 112 c 128,-1,5
 310 57 310 57 272 18.5 c 128,-1,6
 234 -20 234 -20 180 -20 c 128,-1,7
 126 -20 126 -20 88 18.5 c 128,-1,0
 50 57 50 57 50 112 c 128,-1,1
EndSplineSet
Validated: 1
EndChar

StartChar: slash
Encoding: 47 47 18
Width: 1015
GlyphClass: 2
Flags: W
DStem2: 10 -116 139 -180 0.431985 0.901881<0 2002.46>
LayerCount: 2
Fore
SplineSet
10 -116 m 1,0,-1
 875 1690 l 1,1,-1
 1005 1628 l 1,2,-1
 139 -180 l 1,3,-1
 10 -116 l 1,0,-1
EndSplineSet
Validated: 1
EndChar

StartChar: one
Encoding: 49 49 19
Width: 765
GlyphClass: 2
Flags: W
HStem: 0 21G<315 515> 1330 180<50 277.344>
VStem: 315 200<0 1292.46>
LayerCount: 2
Fore
SplineSet
315 0 m 1,0,-1
 315 1170 l 2,1,2
 315 1330 315 1330 155 1330 c 10,3,-1
 50 1330 l 25,4,-1
 50 1510 l 25,5,-1
 155 1510 l 2,6,7
 515 1510 515 1510 515 1170 c 2,8,-1
 515 0 l 1,9,-1
 315 0 l 1,0,-1
EndSplineSet
Validated: 1
EndChar

StartChar: two
Encoding: 50 50 20
Width: 1174
GlyphClass: 2
Flags: W
HStem: 0 200<319 1024> 1350 180<384.052 702.192>
VStem: 819 200<913.306 1234.2>
LayerCount: 2
Fore
SplineSet
100 0 m 1,0,1
 100 385 100 385 572 706 c 0,2,3
 819 874 819 874 819 1074 c 0,4,5
 819 1200 819 1200 741 1276 c 0,6,7
 665 1350 665 1350 542 1350 c 0,8,9
 376 1350 376 1350 256 1186 c 1,10,-1
 108 1304 l 1,11,12
 304 1530 304 1530 546 1530 c 0,13,14
 760 1530 760 1530 898 1389 c 0,15,16
 1019 1266 1019 1266 1019 1073 c 0,17,18
 1019 785 1019 785 652 556 c 0,19,20
 373 382 373 382 319 200 c 1,21,-1
 1024 200 l 1,22,-1
 1024 0 l 1,23,-1
 100 0 l 1,0,1
EndSplineSet
Validated: 1
EndChar

StartChar: three
Encoding: 51 51 21
Width: 1203
GlyphClass: 2
Flags: W
HStem: -20 180<311.443 703.707> 740 180<460 625.406> 1350 180<362.006 653.726>
VStem: 724 186<1014.23 1279.43> 853 200<293.55 618.379>
LayerCount: 2
Fore
SplineSet
495 -20 m 24,0,1
 279 -20 279 -20 100 119 c 1,2,-1
 235 255 l 1,3,4
 350 160 350 160 495 160 c 0,5,6
 678 160 678 160 777 256 c 0,7,8
 853 330 853 330 853 460 c 0,9,10
 853 585 853 585 779 652 c 0,11,12
 683 740 683 740 501 740 c 2,13,-1
 460 740 l 1,14,-1
 460 920 l 1,15,-1
 501 920 l 2,16,17
 579 920 579 920 651 984 c 0,18,19
 724 1049 724 1049 724 1150 c 0,20,21
 724 1239 724 1239 666.5 1294.5 c 128,-1,22
 609 1350 609 1350 503.5 1350 c 128,-1,23
 398 1350 398 1350 338 1284 c 1,24,-1
 212 1402 l 1,25,26
 343 1530 343 1530 512 1530 c 0,27,28
 676 1530 676 1530 787 1434 c 0,29,30
 910 1327 910 1327 910 1165 c 0,31,32
 910 1031 910 1031 819 940 c 0,33,34
 769 890 769 890 718 867 c 1,35,36
 872 836 872 836 959 735 c 0,37,38
 1053 625 1053 625 1053 458 c 0,39,40
 1053 269 1053 269 918 137 c 0,41,42
 756 -20 756 -20 495 -20 c 24,0,1
EndSplineSet
Validated: 1
EndChar

StartChar: four
Encoding: 52 52 22
Width: 1208
GlyphClass: 2
Flags: W
HStem: 0 21G<808 1008> 300 180<312.714 629> 1080 20G<808 1008> 1489 20G<463.111 681>
VStem: 100 208<483.759 666.615> 808 200<0 1100>
DStem2: 471 1509 319 580 0.363075 0.93176<-969.828 0>
LayerCount: 2
Fore
SplineSet
471 1509 m 1,0,-1
 681 1509 l 1,1,-1
 319 580 l 2,2,3
 308 552 308 552 308 531 c 0,4,5
 308 480 308 480 379 480 c 2,6,-1
 629 480 l 1,7,-1
 629 300 l 1,8,-1
 359 300 l 2,9,10
 100 300 100 300 100 491 c 0,11,12
 100 568 100 568 144 680 c 2,13,-1
 471 1509 l 1,0,-1
1008 0 m 1,14,-1
 808 0 l 1,15,-1
 808 1100 l 1,16,-1
 1008 1100 l 1,17,-1
 1008 0 l 1,14,-1
EndSplineSet
Validated: 1
EndChar

StartChar: five
Encoding: 53 53 23
Width: 1232
GlyphClass: 2
Flags: W
HStem: -20 180<360.867 733.811> 741 180<444 741.75> 1330 180<481.656 938>
VStem: 244 200<921 1292.46> 882 200<300.294 617.338>
LayerCount: 2
Fore
SplineSet
545 -20 m 0,0,1
 329 -20 329 -20 150 119 c 1,2,-1
 285 255 l 1,3,4
 398 160 398 160 542 160 c 0,5,6
 714 160 714 160 811 263 c 0,7,8
 882 342 882 342 882 479 c 0,9,10
 882 607 882 607 768 682 c 0,11,12
 680 741 680 741 521 741 c 2,13,-1
 244 741 l 1,14,-1
 244 1170 l 2,15,16
 244 1510 244 1510 604 1510 c 2,17,-1
 938 1510 l 1,18,-1
 938 1330 l 1,19,-1
 604 1330 l 2,20,21
 444 1330 444 1330 444 1170 c 2,22,-1
 444 921 l 1,23,-1
 543 921 l 2,24,25
 762 921 762 921 900 824 c 0,26,27
 1082 696 1082 696 1082 476 c 0,28,29
 1082 287 1082 287 966 151 c 0,30,31
 818 -20 818 -20 545 -20 c 0,0,1
EndSplineSet
Validated: 1
EndChar

StartChar: six
Encoding: 54 54 24
Width: 1396
GlyphClass: 2
Flags: W
HStem: -20 180<521.393 881.818> 900 180<698 866.622> 1490 20G<592.5 933>
VStem: 150 200<336.262 766.664> 660 273<1237 1510> 1046 200<333.515 721.599>
DStem2: 386 1164 574 1084 0.627683 0.778469<-255.4 441.335>
LayerCount: 2
Fore
SplineSet
933 1510 m 1,0,1
 764 1327 764 1327 574 1084 c 0,2,3
 350 797 350 797 350 530 c 0,4,5
 350 353 350 353 461 249 c 0,6,7
 556 160 556 160 699 160 c 0,8,9
 856 160 856 160 945 252 c 0,10,11
 1046 356 1046 356 1046 530 c 128,-1,12
 1046 704 1046 704 938 805 c 0,13,14
 836 900 836 900 698 900 c 1,15,-1
 698 1080 l 1,16,17
 932 1080 932 1080 1073 941 c 0,18,19
 1246 770 1246 770 1246 530 c 0,20,21
 1246 280 1246 280 1075 121 c 0,22,23
 923 -20 923 -20 698 -20 c 128,-1,24
 473 -20 473 -20 321 121 c 0,25,26
 150 280 150 280 150 530 c 0,27,28
 150 843 150 843 386 1164 c 0,29,30
 525 1353 525 1353 660 1510 c 1,31,-1
 933 1510 l 1,0,1
EndSplineSet
Validated: 1
EndChar

StartChar: seven
Encoding: 55 55 25
Width: 939
GlyphClass: 2
Flags: W
HStem: 0 21G<30 260.354> 1330 180<30 677.694>
VStem: 678 221<1185.76 1327.3>
DStem2: 30 0 250 0 0.453786 0.89111<99.833 1446.54>
LayerCount: 2
Fore
SplineSet
30 0 m 1,0,-1
 664 1245 l 2,1,2
 678 1272 678 1272 678 1294 c 0,3,4
 678 1330 678 1330 624 1330 c 2,5,-1
 30 1330 l 1,6,-1
 30 1510 l 1,7,-1
 620 1510 l 2,8,9
 899 1510 899 1510 899 1319 c 0,10,11
 899 1254 899 1254 835 1130 c 2,12,-1
 250 0 l 1,13,-1
 30 0 l 1,0,-1
EndSplineSet
Validated: 1
EndChar

StartChar: eight
Encoding: 56 56 26
Width: 1312
GlyphClass: 2
Flags: W
HStem: -20 180<478.641 826.979> 1350 180<519.724 798.04>
VStem: 150 200<280.852 578.967> 248 200<1016.94 1280.2> 868 196<1026.68 1280.45> 963 199<288.31 588.539>
LayerCount: 2
Fore
SplineSet
657 -20 m 0,0,1
 419 -20 419 -20 275 123 c 0,2,3
 150 247 150 247 150 416.5 c 128,-1,4
 150 586 150 586 286 692 c 1,5,-1
 519 692 l 1,6,7
 350 595 350 595 350 418 c 0,8,9
 350 308 350 308 439 232 c 0,10,11
 523 160 523 160 657 160 c 0,12,13
 784 160 784 160 868 232 c 0,14,15
 963 312 963 312 963 439 c 0,16,17
 963 574 963 574 852 658 c 0,18,19
 772 719 772 719 610 758 c 0,20,21
 433 800 433 800 343 904 c 0,22,23
 248 1014 248 1014 248 1150 c 0,24,25
 248 1317 248 1317 372 1426 c 0,26,27
 491 1530 491 1530 658 1530 c 0,28,29
 831 1530 831 1530 947 1429 c 0,30,31
 1064 1327 1064 1327 1064 1169 c 0,32,33
 1064 1066 1064 1066 988 978 c 1,34,-1
 780 978 l 1,35,36
 868 1057 868 1057 868 1166 c 0,37,38
 868 1252 868 1252 793 1310 c 0,39,40
 741 1350 741 1350 658 1350 c 0,41,42
 577 1350 577 1350 523 1309 c 0,43,44
 448 1252 448 1252 448 1150 c 0,45,46
 448 1059 448 1059 507 1000 c 0,47,48
 563 944 563 944 703 911 c 0,49,50
 956 851 956 851 1067 717 c 0,51,52
 1162 602 1162 602 1162 436 c 0,53,54
 1162 267 1162 267 1040 133 c 0,55,56
 900 -20 900 -20 657 -20 c 0,0,1
EndSplineSet
Validated: 1
EndChar

StartChar: nine
Encoding: 57 57 27
Width: 1396
GlyphClass: 2
Flags: W
HStem: 0 21G<463 803.5> 430 180<529.378 698> 1350 180<514.182 874.607>
VStem: 150 200<788.401 1176.48> 463 273<0 273> 1046 200<743.336 1173.74>
DStem2: 463 0 736 0 0.627683 0.778469<171.357 899.664>
LayerCount: 2
Fore
SplineSet
463 0 m 1,0,1
 632 183 632 183 822 426 c 0,2,3
 1046 713 1046 713 1046 980 c 0,4,5
 1046 1157 1046 1157 935 1261 c 0,6,7
 840 1350 840 1350 697 1350 c 0,8,9
 540 1350 540 1350 451 1258 c 0,10,11
 350 1154 350 1154 350 980 c 128,-1,12
 350 806 350 806 458 705 c 0,13,14
 560 610 560 610 698 610 c 1,15,-1
 698 430 l 1,16,17
 464 430 464 430 323 569 c 0,18,19
 150 740 150 740 150 980 c 0,20,21
 150 1230 150 1230 321 1389 c 0,22,23
 473 1530 473 1530 698 1530 c 128,-1,24
 923 1530 923 1530 1075 1389 c 0,25,26
 1246 1230 1246 1230 1246 980 c 0,27,28
 1246 667 1246 667 1010 346 c 0,29,30
 871 157 871 157 736 0 c 1,31,-1
 463 0 l 1,0,1
EndSplineSet
Validated: 1
EndChar

StartChar: colon
Encoding: 58 58 28
Width: 362
GlyphClass: 2
Flags: W
HStem: -20 264<91.1914 272.809> 622 264<89.1914 270.809>
VStem: 52 260<19.7072 204.293 661.707 846.293>
LayerCount: 2
Fore
SplineSet
52 112 m 128,-1,1
 52 167 52 167 90 205.5 c 128,-1,2
 128 244 128 244 182 244 c 128,-1,3
 236 244 236 244 274 205.5 c 128,-1,4
 312 167 312 167 312 112 c 128,-1,5
 312 57 312 57 274 18.5 c 128,-1,6
 236 -20 236 -20 182 -20 c 128,-1,7
 128 -20 128 -20 90 18.5 c 128,-1,0
 52 57 52 57 52 112 c 128,-1,1
50 754 m 128,-1,9
 50 809 50 809 88 847.5 c 128,-1,10
 126 886 126 886 180 886 c 128,-1,11
 234 886 234 886 272 847.5 c 128,-1,12
 310 809 310 809 310 754 c 128,-1,13
 310 699 310 699 272 660.5 c 128,-1,14
 234 622 234 622 180 622 c 128,-1,15
 126 622 126 622 88 660.5 c 128,-1,8
 50 699 50 699 50 754 c 128,-1,9
EndSplineSet
Validated: 1
EndChar

StartChar: semicolon
Encoding: 59 59 29
Width: 360
GlyphClass: 2
Flags: W
HStem: 622 264<89.1914 270.809>
VStem: 50 260<661.707 846.293> 141 142<-109.265 109.779>
LayerCount: 2
Fore
SplineSet
129 268 m 1,0,1
 283 154 283 154 283 0 c 0,2,3
 283 -172 283 -172 93 -292 c 1,4,-1
 14 -176 l 1,5,6
 141 -102 141 -102 141 0 c 0,7,8
 141 87 141 87 45 158 c 1,9,-1
 129 268 l 1,0,1
180 886 m 128,-1,11
 234 886 234 886 272 847.5 c 128,-1,12
 310 809 310 809 310 754 c 128,-1,13
 310 699 310 699 272 660.5 c 128,-1,14
 234 622 234 622 180 622 c 128,-1,15
 126 622 126 622 88 660.5 c 128,-1,16
 50 699 50 699 50 754 c 128,-1,17
 50 809 50 809 88 847.5 c 128,-1,10
 126 886 126 886 180 886 c 128,-1,11
EndSplineSet
Validated: 1
EndChar

StartChar: less
Encoding: 60 60 30
Width: 1155
GlyphClass: 2
Flags: W
DStem2: 150 834 325 743 0.855375 0.51801<102.552 827.764> 325 743 150 654 0.864938 -0.501878<0 718.059>
LayerCount: 2
Fore
SplineSet
150 834 m 1,0,-1
 865 1267 l 1,1,-1
 953 1106 l 1,2,-1
 325 743 l 1,3,-1
 955 398 l 1,4,-1
 879 231 l 1,5,-1
 150 654 l 1,6,-1
 150 834 l 1,0,-1
EndSplineSet
Validated: 1
EndChar

StartChar: equal
Encoding: 61 61 31
Width: 1133
GlyphClass: 2
Flags: W
HStem: 481 170<150 983> 839 170<150 983>
LayerCount: 2
Fore
SplineSet
150 651 m 1,0,-1
 983 651 l 1,1,-1
 983 481 l 1,2,-1
 150 481 l 1,3,-1
 150 651 l 1,0,-1
150 1009 m 1,4,-1
 983 1009 l 1,5,-1
 983 839 l 1,6,-1
 150 839 l 1,7,-1
 150 1009 l 1,4,-1
EndSplineSet
Validated: 1
EndChar

StartChar: greater
Encoding: 62 62 32
Width: 1155
GlyphClass: 2
Flags: W
DStem2: 200 398 276 231 0.864938 0.501878<0 718.059> 290 1267 202 1106 0.855375 -0.51801<8.12666 733.34>
LayerCount: 2
Fore
SplineSet
1005 834 m 1,0,-1
 1005 654 l 1,1,-1
 276 231 l 1,2,-1
 200 398 l 1,3,-1
 830 743 l 1,4,-1
 202 1106 l 1,5,-1
 290 1267 l 1,6,-1
 1005 834 l 1,0,-1
EndSplineSet
Validated: 1
EndChar

StartChar: question
Encoding: 63 63 33
Width: 1186
GlyphClass: 2
Flags: W
HStem: -20 264<464.191 645.809> 1350 180<396.052 714.192>
VStem: 425 260<19.7072 204.293> 480 160<354 533.143> 836 200<917.752 1228.08>
LayerCount: 2
Fore
SplineSet
558 1530 m 0,0,1
 772 1530 772 1530 910 1389 c 0,2,3
 1036 1261 1036 1261 1036 1073 c 0,4,5
 1036 855 1036 855 828 696 c 0,6,7
 640 552 640 552 640 354 c 1,8,-1
 480 354 l 1,9,10
 480 630 480 630 704 818 c 0,11,12
 836 929 836 929 836 1074 c 0,13,14
 836 1195 836 1195 753 1276 c 0,15,16
 677 1350 677 1350 554 1350 c 0,17,18
 388 1350 388 1350 268 1186 c 1,19,-1
 120 1304 l 1,20,21
 316 1530 316 1530 558 1530 c 0,0,1
555 -20 m 128,-1,23
 501 -20 501 -20 463 18.5 c 128,-1,24
 425 57 425 57 425 112 c 128,-1,25
 425 167 425 167 463 205.5 c 128,-1,26
 501 244 501 244 555 244 c 128,-1,27
 609 244 609 244 647 205.5 c 128,-1,28
 685 167 685 167 685 112 c 128,-1,29
 685 57 685 57 647 18.5 c 128,-1,22
 609 -20 609 -20 555 -20 c 128,-1,23
EndSplineSet
Validated: 1
EndChar

StartChar: at
Encoding: 64 64 34
Width: 1496
GlyphClass: 2
Flags: W
HStem: -430 160<582.406 748> -20 160<829.795 1079.28> 540 160<819 966> 1041 160<571.063 923.646>
VStem: 200 180<-67.1416 845.741> 578 180<212.301 479.636> 1116 180<172.036 851.766>
LayerCount: 2
Fore
SplineSet
748 -430 m 1,0,1
 521 -430 521 -430 371 -289 c 0,2,3
 200 -128 200 -128 200 120 c 2,4,-1
 200 651 l 2,5,6
 200 901 200 901 371 1060 c 0,7,8
 523 1201 523 1201 748 1201 c 128,-1,9
 973 1201 973 1201 1125 1060 c 0,10,11
 1296 901 1296 901 1296 651 c 2,12,-1
 1296 320 l 2,13,14
 1296 -20 1296 -20 986 -20 c 0,15,16
 790 -20 790 -20 682 93 c 0,17,18
 578 202 578 202 578 340 c 0,19,20
 578 502 578 502 695 607 c 0,21,22
 799 700 799 700 966 700 c 1,23,-1
 966 540 l 1,24,25
 854 540 854 540 800 478 c 0,26,27
 758 429 758 429 758 340 c 0,28,29
 758 262 758 262 810 202 c 0,30,31
 863 140 863 140 985 140 c 0,32,33
 1116 140 1116 140 1116 320 c 2,34,-1
 1116 651 l 2,35,36
 1116 833 1116 833 1007 936 c 0,37,38
 896 1041 896 1041 748 1041 c 128,-1,39
 600 1041 600 1041 492 939 c 0,40,41
 380 833 380 833 380 651 c 2,42,-1
 380 120 l 2,43,44
 380 -54 380 -54 498 -164 c 0,45,46
 610 -270 610 -270 748 -270 c 1,47,-1
 748 -430 l 1,0,1
EndSplineSet
Validated: 1
EndChar

StartChar: A
Encoding: 65 65 35
Width: 1626
GlyphClass: 2
Flags: W
HStem: 0 21G<5 204.292 1406.71 1621> 561 180<459.277 951> 1490 20G<698.691 927.311>
DStem2: 5 0 195 0 0.422064 0.906566<80.1921 692.782 963.781 1528.39> 918 1510 806 1313 0.422064 -0.906566<131.322 1579.1>
LayerCount: 2
Fore
SplineSet
5 0 m 1,0,-1
 215 452 l 2,1,2
 349 741 349 741 610 741 c 2,3,-1
 951 741 l 25,4,-1
 951 561 l 25,5,-1
 610 561 l 2,6,7
 456 561 456 561 405 452 c 2,8,-1
 195 0 l 1,9,-1
 5 0 l 1,0,-1
1621 0 m 1,10,-1
 1416 0 l 1,11,-1
 806 1313 l 1,12,-1
 568 801 l 1,13,-1
 378 801 l 1,14,-1
 708 1510 l 1,15,-1
 918 1510 l 1,16,-1
 1621 0 l 1,10,-1
EndSplineSet
Validated: 1
EndChar

StartChar: B
Encoding: 66 66 36
Width: 1238
GlyphClass: 2
Flags: W
HStem: -20 180<580 787.987> 0 21G<200 400> 740 180<586 710.406> 1350 180<437.598 735.015>
VStem: 200 200<0 1312.46> 809 186<1014.23 1278.31> 938 200<293.55 618.379>
LayerCount: 2
Fore
SplineSet
200 0 m 1,0,-1
 200 1190 l 2,1,2
 200 1530 200 1530 560 1530 c 0,3,4
 761 1530 761 1530 872 1434 c 0,5,6
 995 1327 995 1327 995 1165 c 0,7,8
 995 1031 995 1031 904 940 c 0,9,10
 854 890 854 890 803 867 c 1,11,12
 957 836 957 836 1044 735 c 0,13,14
 1138 625 1138 625 1138 458 c 0,15,16
 1138 269 1138 269 1003 137 c 0,17,18
 841 -20 841 -20 580 -20 c 1,19,-1
 580 160 l 1,20,21
 763 160 763 160 862 256 c 0,22,23
 938 330 938 330 938 460 c 0,24,25
 938 585 938 585 864 652 c 0,26,27
 768 740 768 740 586 740 c 9,28,-1
 586 920 l 17,29,30
 664 920 664 920 736 984 c 0,31,32
 809 1049 809 1049 809 1150 c 0,33,34
 809 1239 809 1239 750 1294 c 0,35,36
 692 1350 692 1350 560 1350 c 0,37,38
 400 1350 400 1350 400 1190 c 2,39,40
 400 0 l 1,41,-1
 200 0 l 1,0,-1
EndSplineSet
Validated: 1
EndChar

StartChar: C
Encoding: 67 67 37
Width: 1431
GlyphClass: 2
Flags: W
HStem: -20 180<623.467 1036.98> 1350 180<623.918 1036.08>
VStem: 100 200<501.361 1008.64>
LayerCount: 2
Fore
SplineSet
830 -20 m 0,0,1
 514 -20 514 -20 299 216 c 0,2,3
 100 434 100 434 100 755 c 128,-1,4
 100 1076 100 1076 299 1294 c 0,5,6
 516 1530 516 1530 830 1530 c 128,-1,7
 1144 1530 1144 1530 1361 1294 c 1,8,-1
 1213 1176 l 1,9,10
 1054 1350 1054 1350 830 1350 c 128,-1,11
 606 1350 606 1350 447 1176 c 0,12,13
 300 1015 300 1015 300 755 c 128,-1,14
 300 495 300 495 447 334 c 0,15,16
 606 160 606 160 830 160 c 128,-1,17
 1054 160 1054 160 1213 334 c 1,18,-1
 1361 216 l 1,19,20
 1148 -20 1148 -20 830 -20 c 0,0,1
EndSplineSet
Validated: 1
EndChar

StartChar: D
Encoding: 68 68 38
Width: 1616
GlyphClass: 2
Flags: W
HStem: -20 180<580 992.218> 0 21G<200 400> 1350 180<437.656 990.413>
VStem: 200 200<0 1312.46> 1316 200<501.361 1008.64>
LayerCount: 2
Fore
SplineSet
200 0 m 1,0,-1
 200 1190 l 2,1,2
 200 1530 200 1530 560 1530 c 2,3,-1
 786 1530 l 2,4,5
 1100 1530 1100 1530 1317 1294 c 0,6,7
 1516 1076 1516 1076 1516 755 c 128,-1,8
 1516 434 1516 434 1317 216 c 0,9,10
 1104 -20 1104 -20 786 -20 c 2,11,-1
 580 -20 l 1,12,-1
 580 160 l 1,13,-1
 786 160 l 2,14,15
 1010 160 1010 160 1169 334 c 0,16,17
 1316 495 1316 495 1316 755 c 128,-1,18
 1316 1015 1316 1015 1169 1176 c 0,19,20
 1010 1350 1010 1350 786 1350 c 2,21,-1
 560 1350 l 2,22,23
 400 1350 400 1350 400 1190 c 2,24,-1
 400 0 l 1,25,-1
 200 0 l 1,0,-1
EndSplineSet
Validated: 1
EndChar

StartChar: E
Encoding: 69 69 39
Width: 1431
GlyphClass: 2
Flags: W
HStem: -20 180<623.467 1036.98> 661 180<480 1186> 1350 180<623.918 1036.08>
VStem: 100 200<501.361 1008.64>
LayerCount: 2
Fore
SplineSet
480 841 m 9,0,-1
 1186 841 l 1,1,-1
 1186 661 l 1,2,-1
 480 661 l 17,3,4
 480 841 l 9,0,-1
830 -20 m 0,5,6
 514 -20 514 -20 299 216 c 0,7,8
 100 434 100 434 100 755 c 128,-1,9
 100 1076 100 1076 299 1294 c 0,10,11
 516 1530 516 1530 830 1530 c 128,-1,12
 1144 1530 1144 1530 1361 1294 c 1,13,-1
 1213 1176 l 1,14,15
 1054 1350 1054 1350 830 1350 c 128,-1,16
 606 1350 606 1350 447 1176 c 0,17,18
 300 1015 300 1015 300 755 c 128,-1,19
 300 495 300 495 447 334 c 0,20,21
 606 160 606 160 830 160 c 128,-1,22
 1054 160 1054 160 1213 334 c 1,23,-1
 1361 216 l 1,24,25
 1148 -20 1148 -20 830 -20 c 0,5,6
EndSplineSet
Validated: 1
EndChar

StartChar: F
Encoding: 70 70 40
Width: 1136
GlyphClass: 2
Flags: W
HStem: 0 21G<200 400> 661 180<437.656 936> 1330 180<437.656 936>
VStem: 200 200<0 623.461 901 1292.46>
LayerCount: 2
Fore
SplineSet
200 901 m 1,0,-1
 200 1170 l 2,1,2
 200 1510 200 1510 560 1510 c 2,3,-1
 936 1510 l 1,4,-1
 936 1330 l 1,5,-1
 560 1330 l 2,6,7
 400 1330 400 1330 400 1170 c 2,8,-1
 400 901 l 1,9,-1
 200 901 l 1,0,-1
200 0 m 1,10,-1
 200 501 l 2,11,12
 200 841 200 841 560 841 c 2,13,-1
 936 841 l 1,14,-1
 936 661 l 1,15,-1
 560 661 l 2,16,17
 400 661 400 661 400 501 c 1,18,-1
 400 0 l 1,19,-1
 200 0 l 1,10,-1
EndSplineSet
Validated: 1
EndChar

StartChar: G
Encoding: 71 71 41
Width: 1616
GlyphClass: 2
Flags: W
HStem: -20 180<624.685 1178.34> 661 180<930 1216> 1350 180<623.918 1036.08>
VStem: 100 200<501.361 1008.64> 1216 200<197.539 661>
LayerCount: 2
Fore
SplineSet
830 -20 m 2,0,1
 514 -20 514 -20 299 216 c 0,2,3
 100 434 100 434 100 755 c 128,-1,4
 100 1076 100 1076 299 1294 c 0,5,6
 516 1530 516 1530 830 1530 c 128,-1,7
 1144 1530 1144 1530 1361 1294 c 1,8,-1
 1213 1176 l 1,9,10
 1054 1350 1054 1350 830 1350 c 128,-1,11
 606 1350 606 1350 447 1176 c 0,12,13
 300 1015 300 1015 300 755 c 128,-1,14
 300 495 300 495 447 334 c 0,15,16
 606 160 606 160 830 160 c 2,17,-1
 1056 160 l 2,18,19
 1216 160 1216 160 1216 320 c 2,20,-1
 1216 661 l 1,21,-1
 930 661 l 1,22,-1
 930 841 l 1,23,-1
 1416 841 l 1,24,-1
 1416 320 l 2,25,26
 1416 -20 1416 -20 1056 -20 c 2,27,-1
 830 -20 l 2,0,1
EndSplineSet
Validated: 1
EndChar

StartChar: H
Encoding: 72 72 42
Width: 1571
GlyphClass: 2
Flags: W
HStem: 0 21G<200 400 1171 1371> 661 180<437.656 991> 1490 20G<200 400 1171 1371>
VStem: 200 200<0 623.461 901 1510> 1171 200<0 1510>
LayerCount: 2
Fore
SplineSet
200 0 m 1,0,-1
 200 501 l 2,1,2
 200 841 200 841 560 841 c 2,3,-1
 991 841 l 25,4,-1
 991 661 l 25,5,-1
 560 661 l 18,6,7
 400 661 400 661 400 501 c 2,8,-1
 400 0 l 1,9,-1
 200 0 l 1,0,-1
200 1510 m 1,10,-1
 400 1510 l 1,11,-1
 400 901 l 1,12,-1
 200 901 l 1,13,-1
 200 1510 l 1,10,-1
1171 1510 m 1,14,-1
 1371 1510 l 1,15,-1
 1371 0 l 1,16,-1
 1171 0 l 1,17,-1
 1171 1510 l 1,14,-1
EndSplineSet
Validated: 1
EndChar

StartChar: I
Encoding: 73 73 43
Width: 600
GlyphClass: 2
Flags: W
HStem: 0 21G<200 400> 1490 20G<200 400>
VStem: 200 200<0 1510>
LayerCount: 2
Fore
SplineSet
200 0 m 1,0,-1
 200 1510 l 1,1,-1
 400 1510 l 1,2,-1
 400 0 l 1,3,-1
 200 0 l 1,0,-1
EndSplineSet
Validated: 1
EndChar

StartChar: J
Encoding: 74 74 44
Width: 1121
GlyphClass: 2
Flags: W
HStem: -20 180<233.154 570.482> 1330 180<281 721>
VStem: 721 200<315.896 1330>
LayerCount: 2
Fore
SplineSet
281 1510 m 1,0,-1
 921 1510 l 1,1,-1
 921 546 l 2,2,3
 921 290 921 290 778 136 c 0,4,5
 633 -20 633 -20 404 -20 c 0,6,7
 171 -20 171 -20 10 136 c 1,8,-1
 134 282 l 1,9,10
 251 160 251 160 394 160 c 0,11,12
 558 160 558 160 650 273 c 0,13,14
 721 360 721 360 721 548 c 2,15,-1
 721 1330 l 1,16,-1
 281 1330 l 1,17,-1
 281 1510 l 1,0,-1
EndSplineSet
Validated: 1
EndChar

StartChar: K
Encoding: 75 75 45
Width: 1380
GlyphClass: 2
Flags: W
HStem: 0 21G<200 400 932.5 1230> 1490 20G<200 400 1024 1224>
VStem: 200 200<0 1510> 1024 200<1153.93 1510>
LayerCount: 2
Fore
SplineSet
1230 0 m 1,0,1
 1004 0 l 1,2,3
 861 282 861 282 580 380 c 1,4,-1
 580 561 l 1,5,6
 1024 897 1024 897 1024 1510 c 1,7,-1
 1224 1510 l 1,8,9
 1224 911 1224 911 789 490 c 1,10,11
 1053 390 1053 390 1230 0 c 1,0,1
200 0 m 1,12,-1
 200 1510 l 17,13,-1
 400 1510 l 9,14,-1
 400 0 l 1,15,-1
 200 0 l 1,12,-1
EndSplineSet
Validated: 1
EndChar

StartChar: L
Encoding: 76 76 46
Width: 988
GlyphClass: 2
Flags: W
HStem: 0 180<400 978> 1490 20G<200 400>
VStem: 200 200<180 1510>
LayerCount: 2
Fore
SplineSet
200 0 m 1,0,-1
 200 1510 l 1,1,-1
 400 1510 l 1,2,-1
 400 180 l 1,3,-1
 978 180 l 1,4,-1
 978 0 l 1,5,-1
 200 0 l 1,0,-1
EndSplineSet
Validated: 1
EndChar

StartChar: M
Encoding: 77 77 47
Width: 2180
GlyphClass: 2
Flags: W
HStem: 0 21G<367 659 990 1190 1521 1813> 1350 180<625.587 1554.41>
VStem: 100 200<427.041 1003.49> 990 200<0 1170> 1880 200<427.041 1003.49>
CounterMasks: 1 38
LayerCount: 2
Fore
SplineSet
990 0 m 1,0,-1
 990 1170 l 1,1,-1
 1190 1170 l 1,2,-1
 1190 0 l 1,3,-1
 990 0 l 1,0,-1
659 0 m 1,4,5
 421 0 l 1,6,7
 313 95 313 95 239 216 c 0,8,9
 100 443 100 443 100 735 c 0,10,11
 100 1076 100 1076 299 1294 c 0,12,13
 516 1530 516 1530 830 1530 c 2,14,-1
 1350 1530 l 2,15,16
 1664 1530 1664 1530 1881 1294 c 0,17,18
 2080 1076 2080 1076 2080 735 c 0,19,20
 2080 443 2080 443 1941 216 c 0,21,22
 1867 95 1867 95 1759 0 c 1,23,-1
 1521 0 l 1,24,25
 1717 133 1717 133 1804 340 c 0,26,27
 1880 522 1880 522 1880 735 c 0,28,29
 1879 1016 1879 1016 1733 1176 c 0,30,31
 1574 1350 1574 1350 1350 1350 c 2,32,-1
 830 1350 l 2,33,34
 606 1350 606 1350 447 1176 c 0,35,36
 301 1016 301 1016 300 735 c 0,37,38
 300 522 300 522 376 340 c 0,39,40
 463 133 463 133 659 0 c 1,4,5
EndSplineSet
Validated: 1
EndChar

StartChar: N
Encoding: 78 78 48
Width: 1516
GlyphClass: 2
Flags: W
HStem: 0 21G<200 400 857 1149> 1350 180<437.656 890.413>
VStem: 200 200<0 1312.46> 1216 200<427.041 1003.49>
LayerCount: 2
Fore
SplineSet
200 0 m 1,0,-1
 200 1190 l 2,1,2
 200 1530 200 1530 560 1530 c 2,3,-1
 686 1530 l 2,4,5
 1000 1530 1000 1530 1217 1294 c 0,6,7
 1416 1076 1416 1076 1416 735 c 0,8,9
 1416 443 1416 443 1277 216 c 0,10,11
 1203 95 1203 95 1095 0 c 1,12,-1
 857 0 l 1,13,14
 1053 133 1053 133 1140 340 c 0,15,16
 1216 522 1216 522 1216 735 c 0,17,18
 1215 1016 1215 1016 1069 1176 c 0,19,20
 910 1350 910 1350 686 1350 c 2,21,-1
 560 1350 l 2,22,23
 400 1350 400 1350 400 1190 c 2,24,-1
 400 0 l 1,25,-1
 200 0 l 1,0,-1
EndSplineSet
Validated: 1
EndChar

StartChar: O
Encoding: 79 79 49
Width: 1660
GlyphClass: 2
Flags: W
HStem: -20 180<623.467 1036.98> 1350 180<623.918 1036.08>
VStem: 100 200<501.361 1008.64> 1360 200<501.361 1008.64>
LayerCount: 2
Fore
SplineSet
1360 755 m 128,-1,1
 1360 1015 1360 1015 1213 1176 c 0,2,3
 1054 1350 1054 1350 830 1350 c 128,-1,4
 606 1350 606 1350 447 1176 c 0,5,6
 300 1015 300 1015 300 755 c 128,-1,7
 300 495 300 495 447 334 c 0,8,9
 606 160 606 160 830 160 c 128,-1,10
 1054 160 1054 160 1213 334 c 0,11,0
 1360 495 1360 495 1360 755 c 128,-1,1
830 -20 m 0,12,13
 514 -20 514 -20 299 216 c 0,14,15
 100 434 100 434 100 755 c 128,-1,16
 100 1076 100 1076 299 1294 c 0,17,18
 516 1530 516 1530 830 1530 c 128,-1,19
 1144 1530 1144 1530 1361 1294 c 0,20,21
 1560 1076 1560 1076 1560 755 c 128,-1,22
 1560 434 1560 434 1361 216 c 0,23,24
 1148 -20 1148 -20 830 -20 c 0,12,13
EndSplineSet
Validated: 1
EndChar

StartChar: P
Encoding: 80 80 50
Width: 1324
GlyphClass: 2
Flags: W
HStem: 0 21G<200 400> 380 181<580 803.974> 1350 180<437.598 812.31>
VStem: 200 200<0 1312.46> 1024 200<773.009 1156.75>
LayerCount: 2
Fore
SplineSet
200 0 m 1,0,-1
 200 1190 l 2,1,2
 200 1530 200 1530 560 1530 c 0,3,4
 851 1530 851 1530 1018 1399 c 24,5,6
 1224 1236 1224 1236 1224 974 c 0,7,8
 1224 751 1224 751 1084 594 c 0,9,10
 893 380 893 380 580 380 c 1,11,-1
 580 561 l 17,12,13
 798 561 798 561 917 684 c 0,14,15
 1024 795 1024 795 1024 974 c 0,16,17
 1024 1150 1024 1150 900 1252 c 0,18,19
 783 1350 783 1350 560 1350 c 0,20,21
 400 1350 400 1350 400 1190 c 2,22,-1
 400 0 l 1,23,-1
 200 0 l 1,0,-1
EndSplineSet
Validated: 1
EndChar

StartChar: Q
Encoding: 81 81 51
Width: 1660
GlyphClass: 2
Flags: W
HStem: -20 180<624.685 948> 0 21G<1158.79 1402> 1350 180<623.918 1036.53>
VStem: 100 200<501.361 1008.64> 1360 200<502.336 1008.64>
DStem2: 1053 459 825 459 0.605259 -0.796028<0 203.403 388.222 438.613>
LayerCount: 2
Fore
SplineSet
1402 0 m 1,0,-1
 1174 0 l 1,1,-1
 825 459 l 1,2,-1
 1053 459 l 1,3,-1
 1176 297 l 1,4,5
 1195 314 1195 314 1213 334 c 0,6,7
 1360 495 1360 495 1360 755 c 128,-1,8
 1360 1015 1360 1015 1213 1176 c 0,9,10
 1054 1350 1054 1350 830 1350 c 128,-1,11
 606 1350 606 1350 447 1176 c 0,12,13
 300 1015 300 1015 300 755 c 128,-1,14
 300 495 300 495 447 334 c 0,15,16
 606 160 606 160 830 160 c 2,17,-1
 948 160 l 1,18,-1
 948 -20 l 1,19,-1
 830 -20 l 2,20,21
 514 -20 514 -20 299 216 c 0,22,23
 100 434 100 434 100 755 c 128,-1,24
 100 1076 100 1076 299 1294 c 0,25,26
 516 1530 516 1530 830 1530 c 0,27,28
 1146 1530 1146 1530 1361 1294 c 0,29,30
 1560 1076 1560 1076 1560 755 c 0,31,32
 1560 438 1560 438 1361 216 c 0,33,34
 1327 178 1327 178 1290 147 c 1,35,-1
 1402 0 l 1,0,-1
EndSplineSet
Validated: 1
EndChar

StartChar: R
Encoding: 82 82 52
Width: 1395
GlyphClass: 2
Flags: W
HStem: 0 21G<200 400 1046.11 1385> 1350 180<437.598 812.56>
VStem: 200 200<0 1312.46> 1024 200<773.258 1156.26> 1072 313<0 313>
DStem2: 810 425 580 380 0.804176 -0.594391<0 463.31>
LayerCount: 2
Fore
SplineSet
200 0 m 1,0,-1
 200 1190 l 2,1,2
 200 1530 200 1530 560 1530 c 0,3,4
 852 1530 852 1530 1018 1399 c 0,5,6
 1224 1236 1224 1236 1224 974 c 0,7,8
 1224 752 1224 752 1084 594 c 0,9,10
 989 487 989 487 810 425 c 1,11,-1
 1385 0 l 1,12,-1
 1072 0 l 1,13,-1
 580 380 l 1,14,-1
 580 561 l 1,15,16
 798 561 798 561 917 684 c 0,17,18
 1024 795 1024 795 1024 974 c 0,19,20
 1024 1148 1024 1148 900 1252 c 0,21,22
 783 1350 783 1350 560 1350 c 0,23,24
 400 1350 400 1350 400 1190 c 2,25,-1
 400 0 l 1,26,-1
 200 0 l 1,0,-1
EndSplineSet
Validated: 1
EndChar

StartChar: S
Encoding: 83 83 53
Width: 1241
GlyphClass: 2
Flags: W
HStem: -20 180<397.547 771.41> 1351 180<513.38 790.519>
VStem: 270 194<1074.55 1301.07> 921 200<306.057 597.542>
DStem2: 653 970 593 778 0.907959 -0.419058<-196.7 355.131>
LayerCount: 2
Fore
SplineSet
100 206 m 1,0,1
 248 324 l 1,2,3
 381 160 381 160 592 160 c 0,4,5
 740 160 740 160 830 249 c 0,6,7
 921 339 921 339 921 457 c 0,8,9
 921 626 921 626 718 720 c 2,10,-1
 593 778 l 2,11,12
 270 928 270 928 270 1185 c 0,13,14
 270 1348 270 1348 404 1456 c 0,15,16
 499 1531 499 1531 651 1531 c 0,17,18
 838 1531 838 1531 982 1387 c 1,19,-1
 842 1265 l 1,20,21
 752 1351 752 1351 651 1351 c 0,22,23
 560 1351 560 1351 512 1305.5 c 128,-1,24
 464 1260 464 1260 464 1188 c 0,25,26
 464 1057 464 1057 653 970 c 2,27,-1
 822 892 l 2,28,29
 1121 754 1121 754 1121 458 c 0,30,31
 1121 292 1121 292 997 148 c 0,32,33
 853 -20 853 -20 574 -20 c 128,-1,34
 295 -20 295 -20 100 206 c 1,0,1
EndSplineSet
Validated: 1
EndChar

StartChar: T
Encoding: 84 84 54
Width: 1090
GlyphClass: 2
Flags: W
HStem: 0 21G<446 646> 1330 180<10 386 683.656 1080>
VStem: 446 200<0 1292.46>
LayerCount: 2
Fore
SplineSet
10 1510 m 25,0,-1
 386 1510 l 25,1,-1
 386 1330 l 25,2,-1
 10 1330 l 25,3,-1
 10 1510 l 25,0,-1
446 0 m 1,4,-1
 446 1170 l 2,5,6
 446 1510 446 1510 806 1510 c 2,7,-1
 1080 1510 l 25,8,-1
 1080 1330 l 25,9,-1
 806 1330 l 18,10,11
 646 1330 646 1330 646 1170 c 2,12,-1
 646 0 l 1,13,-1
 446 0 l 1,4,-1
EndSplineSet
Validated: 1
EndChar

StartChar: U
Encoding: 85 85 55
Width: 1516
GlyphClass: 2
Flags: W
HStem: -20 180<625.587 1078.34> 1490 20G<367 659 1116 1316>
VStem: 100 200<506.508 1082.96> 1116 200<197.539 1510>
LayerCount: 2
Fore
SplineSet
956 -20 m 2,0,-1
 830 -20 l 2,1,2
 516 -20 516 -20 299 216 c 0,3,4
 100 434 100 434 100 775 c 0,5,6
 100 1067 100 1067 239 1294 c 0,7,8
 313 1415 313 1415 421 1510 c 1,9,-1
 659 1510 l 1,10,11
 463 1377 463 1377 376 1170 c 0,12,13
 300 988 300 988 300 775 c 0,14,15
 301 494 301 494 447 334 c 0,16,17
 606 160 606 160 830 160 c 2,18,-1
 956 160 l 2,19,20
 1116 160 1116 160 1116 320 c 2,21,-1
 1116 1510 l 1,22,-1
 1316 1510 l 1,23,-1
 1316 320 l 2,24,25
 1316 -20 1316 -20 956 -20 c 2,0,-1
EndSplineSet
Validated: 1
EndChar

StartChar: V
Encoding: 86 86 56
Width: 1574
GlyphClass: 2
Flags: W
HStem: 0 137<682 892> 1490 20G<174 480 1094 1400>
VStem: 100 200<753.254 1280.25> 1274 200<753.254 1280.25>
LayerCount: 2
Fore
SplineSet
682 0 m 1,0,1
 100 507 100 507 100 1005 c 0,2,3
 100 1301 100 1301 248 1510 c 1,4,-1
 480 1510 l 1,5,6
 300 1305 300 1305 300 1005 c 0,7,8
 300 580 300 580 787 137 c 1,9,10
 1274 580 1274 580 1274 1005 c 0,11,12
 1274 1305 1274 1305 1094 1510 c 1,13,-1
 1326 1510 l 1,14,15
 1474 1301 1474 1301 1474 1005 c 0,16,17
 1474 507 1474 507 892 0 c 1,18,-1
 682 0 l 1,0,1
EndSplineSet
Validated: 1
EndChar

StartChar: W
Encoding: 87 87 57
Width: 2180
GlyphClass: 2
Flags: W
HStem: -20 180<623.918 952.402 1290 1504.73> 1490 20G<367 659 990 1190 1521 1813>
VStem: 100 200<501.113 1080.5> 990 200<197.539 1510> 1880 200<524.699 1080.5>
CounterMasks: 1 38
LayerCount: 2
Fore
SplineSet
1290 -20 m 1,0,1
 1290 160 l 1,2,3
 1521 160 1521 160 1703 334 c 0,4,5
 1880 503 1880 503 1880 755 c 0,6,7
 1880 988 1880 988 1804 1170 c 0,8,9
 1717 1377 1717 1377 1521 1510 c 1,10,-1
 1759 1510 l 1,11,12
 1867 1415 1867 1415 1941 1294 c 0,13,14
 2080 1067 2080 1067 2080 755 c 0,15,16
 2080 446 2080 446 1851 216 c 0,17,18
 1619 -20 1619 -20 1290 -20 c 1,0,1
830 160 m 24,19,20
 990 160 990 160 990 320 c 2,21,-1
 990 1510 l 1,22,-1
 1190 1510 l 1,23,-1
 1190 320 l 2,24,25
 1190 -20 1190 -20 830 -20 c 24,26,27
 516 -20 516 -20 299 216 c 0,28,29
 100 434 100 434 100 755 c 0,30,31
 100 1067 100 1067 239 1294 c 0,32,33
 313 1415 313 1415 421 1510 c 1,34,-1
 659 1510 l 1,35,36
 463 1377 463 1377 376 1170 c 0,37,38
 300 988 300 988 300 755 c 0,39,40
 301 494 301 494 447 334 c 0,41,42
 606 160 606 160 830 160 c 24,19,20
EndSplineSet
Validated: 1
EndChar

StartChar: X
Encoding: 88 88 58
Width: 1339
GlyphClass: 2
Flags: W
HStem: 0 21G<120 320 993 1219> 1490 20G<120 320 1019 1219>
VStem: 120 200<0 264.741 1225.48 1510> 993 226<0 270.334> 1019 200<1242.36 1510>
LayerCount: 2
Fore
SplineSet
1019 1510 m 1,0,-1
 1219 1510 l 1,1,2
 1219 1050 1219 1050 923 908 c 1,3,-1
 680 908 l 1,4,5
 1019 1086 1019 1086 1019 1510 c 1,0,-1
120 0 m 1,6,7
 120 440 120 440 405 581 c 1,8,-1
 648 581 l 1,9,10
 320 412 320 412 320 0 c 1,11,-1
 120 0 l 1,6,7
993 0 m 1,12,13
 993 450 993 450 600 668 c 0,14,15
 121 933 121 933 120 1510 c 1,16,-1
 320 1510 l 1,17,18
 320 1045 320 1045 682 848 c 0,19,20
 1219 555 1219 555 1219 0 c 1,21,-1
 993 0 l 1,12,13
EndSplineSet
Validated: 1
EndChar

StartChar: Y
Encoding: 89 89 59
Width: 1312
GlyphClass: 2
Flags: W
HStem: 0 21G<559 759> 1490 20G<100 300 1012 1212>
VStem: 100 200<1224.61 1510> 559 200<0 656.975> 1012 200<1237.91 1510>
LayerCount: 2
Fore
SplineSet
1012 1510 m 1,0,-1
 1212 1510 l 1,1,2
 1212 1022 1212 1022 890 871 c 1,3,-1
 647 871 l 1,4,5
 1012 1066 1012 1066 1012 1510 c 1,0,-1
759 0 m 1,6,7
 559 0 l 1,8,-1
 559 537 l 2,9,10
 559 641 559 641 435 735 c 0,11,12
 100 990 100 990 100 1510 c 1,13,14
 300 1510 l 1,15,16
 300 1066 300 1066 634 823 c 0,17,18
 759 731 759 731 759 537 c 2,19,-1
 759 0 l 1,6,7
EndSplineSet
Validated: 1
EndChar

StartChar: Z
Encoding: 90 90 60
Width: 1247
GlyphClass: 2
Flags: W
HStem: 0 180<471 1147> 1330 180<180 926.99>
VStem: 100 200<0 296.648> 927 220<1143.98 1420>
LayerCount: 2
Fore
SplineSet
100 0 m 1,0,1
 101 569 101 569 558 842 c 0,2,3
 927 1062 927 1062 927 1306 c 0,4,5
 927 1330 927 1330 886 1330 c 2,6,-1
 180 1330 l 1,7,-1
 180 1510 l 1,8,-1
 941 1510 l 2,9,10
 1147 1510 1147 1510 1147 1340 c 24,11,12
 1147 938 1147 938 640 662 c 0,13,14
 300 477 300 477 300 0 c 1,15,-1
 100 0 l 1,0,1
1147 0 m 1,16,-1
 471 0 l 1,17,-1
 471 180 l 1,18,-1
 1147 180 l 1,19,-1
 1147 0 l 1,16,-1
EndSplineSet
Validated: 1
EndChar

StartChar: bracketleft
Encoding: 91 91 61
Width: 783
GlyphClass: 2
Flags: W
HStem: -250 160<380 733> 1600 160<380 733>
VStem: 200 180<-90 1600>
LayerCount: 2
Fore
SplineSet
200 -250 m 1,0,-1
 200 1760 l 1,1,-1
 733 1760 l 1,2,-1
 733 1600 l 1,3,-1
 380 1600 l 1,4,-1
 380 -90 l 1,5,-1
 733 -90 l 1,6,-1
 733 -250 l 1,7,-1
 200 -250 l 1,0,-1
EndSplineSet
Validated: 1
EndChar

StartChar: backslash
Encoding: 92 92 62
Width: 1015
GlyphClass: 2
Flags: W
DStem2: 140 1690 10 1628 0.431985 -0.901881<0 2002.46>
LayerCount: 2
Fore
SplineSet
1005 -116 m 1,0,-1
 876 -180 l 1,1,-1
 10 1628 l 1,2,-1
 140 1690 l 1,3,-1
 1005 -116 l 1,0,-1
EndSplineSet
Validated: 1
EndChar

StartChar: bracketright
Encoding: 93 93 63
Width: 783
GlyphClass: 2
Flags: W
HStem: -250 160<50 403> 1600 160<50 403>
VStem: 403 180<-90 1600>
LayerCount: 2
Fore
SplineSet
583 -250 m 1,0,-1
 50 -250 l 1,1,-1
 50 -90 l 1,2,-1
 403 -90 l 1,3,-1
 403 1600 l 1,4,-1
 50 1600 l 1,5,-1
 50 1760 l 1,6,-1
 583 1760 l 1,7,-1
 583 -250 l 1,0,-1
EndSplineSet
Validated: 1
EndChar

StartChar: asciicircum
Encoding: 94 94 64
Width: 854
GlyphClass: 2
Flags: W
HStem: 1275 255<299.5 554.5>
DStem2: 50 1153 177 1026 0.707107 0.707107<0 352.846> 427 1530 427 1275 0.707107 -0.707107<180.312 533.159>
LayerCount: 2
Fore
SplineSet
427 1530 m 1,0,-1
 804 1153 l 1,1,-1
 677 1026 l 1,2,-1
 427 1275 l 1,3,-1
 177 1026 l 1,4,-1
 50 1153 l 1,5,-1
 427 1530 l 1,0,-1
EndSplineSet
Validated: 1
EndChar

StartChar: underscore
Encoding: 95 95 65
Width: 1133
GlyphClass: 2
Flags: W
HStem: -180 140<150 983>
LayerCount: 2
Fore
SplineSet
150 -40 m 1,0,-1
 983 -40 l 1,1,-1
 983 -180 l 1,2,-1
 150 -180 l 1,3,-1
 150 -40 l 1,0,-1
EndSplineSet
Validated: 1
EndChar

StartChar: grave
Encoding: 96 96 66
Width: 454
GlyphClass: 2
Flags: W
HStem: 1242 339
VStem: 50 354
DStem2: 144 1581 50 1476 0.743294 -0.668965<0.371647 349.794>
LayerCount: 2
Fore
SplineSet
144 1581 m 1,0,-1
 404 1347 l 1,1,-1
 310 1242 l 1,2,-1
 50 1476 l 1,3,-1
 144 1581 l 1,0,-1
EndSplineSet
Validated: 1
EndChar

StartChar: a
Encoding: 97 97 67
Width: 1228
GlyphClass: 2
Flags: W
HStem: -20 160<475.637 668> 0 21G<848 1028> 960 160<480.725 805.773>
VStem: 100 180<345.062 754.938> 848 180<0 912.48>
LayerCount: 2
Fore
SplineSet
1028 0 m 1,0,-1
 848 0 l 1,1,-1
 848 780 l 2,2,3
 848 960 848 960 688 960 c 0,4,5
 494 960 494 960 387 846 c 128,-1,6
 280 732 280 732 280 550 c 128,-1,7
 280 368 280 368 386 254 c 128,-1,8
 492 140 492 140 668 140 c 1,9,-1
 668 -20 l 1,10,11
 430 -20 430 -20 275 124 c 0,12,13
 100 286 100 286 100 550 c 128,-1,14
 100 814 100 814 275 976 c 0,15,16
 430 1120 430 1120 688 1120 c 0,17,18
 1028 1120 1028 1120 1028 780 c 2,19,-1
 1028 0 l 1,0,-1
EndSplineSet
Validated: 1
EndChar

StartChar: b
Encoding: 98 98 68
Width: 1228
GlyphClass: 2
Flags: W
HStem: -20 160<422.227 747.275> 960 160<560 752.363> 1490 20G<200 380>
VStem: 200 180<187.52 1510> 948 180<345.062 754.938>
LayerCount: 2
Fore
SplineSet
540 -20 m 0,0,1
 200 -20 200 -20 200 320 c 2,2,-1
 200 1510 l 1,3,-1
 380 1510 l 1,4,-1
 380 320 l 2,5,6
 380 140 380 140 540 140 c 0,7,8
 734 140 734 140 841 254 c 128,-1,9
 948 368 948 368 948 550 c 128,-1,10
 948 732 948 732 842 846 c 128,-1,11
 736 960 736 960 560 960 c 1,12,-1
 560 1120 l 1,13,14
 798 1120 798 1120 953 976 c 0,15,16
 1128 814 1128 814 1128 550 c 128,-1,17
 1128 286 1128 286 953 124 c 0,18,19
 798 -20 798 -20 540 -20 c 0,0,1
EndSplineSet
Validated: 1
EndChar

StartChar: c
Encoding: 99 99 69
Width: 1091
GlyphClass: 2
Flags: W
HStem: -20 160<473.239 822.761> 960 160<473.239 822.761>
VStem: 100 180<345.062 754.938>
LayerCount: 2
Fore
SplineSet
648 -20 m 128,-1,1
 430 -20 430 -20 275 124 c 0,2,3
 100 286 100 286 100 550 c 128,-1,4
 100 814 100 814 275 976 c 0,5,6
 430 1120 430 1120 648 1120 c 128,-1,7
 866 1120 866 1120 1021 976 c 1,8,-1
 911 846 l 1,9,10
 806 960 806 960 648 960 c 128,-1,11
 490 960 490 960 385 846 c 128,-1,12
 280 732 280 732 280 550 c 128,-1,13
 280 368 280 368 385 254 c 128,-1,14
 490 140 490 140 648 140 c 128,-1,15
 806 140 806 140 911 254 c 1,16,-1
 1021 124 l 1,17,0
 866 -20 866 -20 648 -20 c 128,-1,1
EndSplineSet
Validated: 1
EndChar

StartChar: d
Encoding: 100 100 70
Width: 1228
GlyphClass: 2
Flags: W
HStem: -20 160<480.725 805.773> 960 160<475.637 668> 1490 20G<848 1028>
VStem: 100 180<345.062 754.938> 848 180<187.52 1510>
LayerCount: 2
Fore
SplineSet
688 -20 m 0,0,1
 430 -20 430 -20 275 124 c 0,2,3
 100 286 100 286 100 550 c 128,-1,4
 100 814 100 814 275 976 c 0,5,6
 430 1120 430 1120 668 1120 c 1,7,-1
 668 960 l 1,8,9
 492 960 492 960 386 846 c 128,-1,10
 280 732 280 732 280 550 c 128,-1,11
 280 368 280 368 387 254 c 128,-1,12
 494 140 494 140 688 140 c 0,13,14
 848 140 848 140 848 320 c 2,15,-1
 848 1510 l 1,16,-1
 1028 1510 l 1,17,-1
 1028 320 l 2,18,19
 1028 -20 1028 -20 688 -20 c 0,0,1
EndSplineSet
Validated: 1
EndChar

StartChar: e
Encoding: 101 101 71
Width: 1091
GlyphClass: 2
Flags: W
HStem: -20 160<473.239 822.761> 470 160<460 881> 960 160<473.239 822.761>
VStem: 100 180<345.062 754.938>
CounterMasks: 1 e0
LayerCount: 2
Fore
SplineSet
460 630 m 1,0,-1
 881 630 l 1,1,-1
 881 470 l 1,2,-1
 460 470 l 1,3,-1
 460 630 l 1,0,-1
648 -20 m 128,-1,5
 430 -20 430 -20 275 124 c 0,6,7
 100 286 100 286 100 550 c 128,-1,8
 100 814 100 814 275 976 c 0,9,10
 430 1120 430 1120 648 1120 c 128,-1,11
 866 1120 866 1120 1021 976 c 1,12,-1
 911 846 l 1,13,14
 806 960 806 960 648 960 c 128,-1,15
 490 960 490 960 385 846 c 128,-1,16
 280 732 280 732 280 550 c 128,-1,17
 280 368 280 368 385 254 c 128,-1,18
 490 140 490 140 648 140 c 128,-1,19
 806 140 806 140 911 254 c 1,20,-1
 1021 124 l 1,21,4
 866 -20 866 -20 648 -20 c 128,-1,5
EndSplineSet
Validated: 1
EndChar

StartChar: f
Encoding: 102 102 72
Width: 740
GlyphClass: 2
Flags: W
HStem: 0 21G<200 380> 940 160<424.453 730> 1370 160<485.833 730>
VStem: 200 180<0 892.48 1160 1276.26>
LayerCount: 2
Fore
SplineSet
200 0 m 1,0,-1
 200 760 l 2,1,2
 200 1100 200 1100 540 1100 c 2,3,-1
 730 1100 l 25,4,-1
 730 940 l 25,5,-1
 540 940 l 18,6,7
 380 940 380 940 380 760 c 2,8,-1
 380 0 l 1,9,-1
 200 0 l 1,0,-1
200 1160 m 1,10,11
 200 1530 200 1530 730 1530 c 1,12,-1
 730 1370 l 1,13,14
 380 1370 380 1370 380 1160 c 1,15,-1
 200 1160 l 1,10,11
EndSplineSet
Validated: 1
EndChar

StartChar: g
Encoding: 103 103 73
Width: 1228
GlyphClass: 2
Flags: W
HStem: -430 160<498 682.164> -20 160<475.637 668> 960 160<480.725 805.773>
VStem: 100 180<345.062 754.938> 848 180<-97.7903 912.48>
LayerCount: 2
Fore
SplineSet
668 -20 m 1,0,1
 430 -20 430 -20 275 124 c 0,2,3
 100 286 100 286 100 550 c 128,-1,4
 100 814 100 814 275 976 c 0,5,6
 430 1120 430 1120 688 1120 c 0,7,8
 1028 1120 1028 1120 1028 780 c 2,9,-1
 1028 120 l 2,10,11
 1028 -150 1028 -150 877 -289 c 0,12,13
 725 -430 725 -430 498 -430 c 1,14,-1
 498 -270 l 1,15,16
 649 -270 649 -270 743 -182 c 0,17,18
 848 -84 848 -84 848 120 c 2,19,-1
 848 780 l 2,20,21
 848 960 848 960 688 960 c 0,22,23
 494 960 494 960 387 846 c 128,-1,24
 280 732 280 732 280 550 c 128,-1,25
 280 368 280 368 386 254 c 128,-1,26
 492 140 492 140 668 140 c 1,27,-1
 668 -20 l 1,0,1
EndSplineSet
Validated: 1
EndChar

StartChar: h
Encoding: 104 104 74
Width: 1248
GlyphClass: 2
Flags: W
HStem: 0 21G<200 380 678 943.5> 960 160<560 754.385> 1490 20G<200 380>
VStem: 200 180<0 1510> 678 221<0 221> 968 180<315.936 756.256>
LayerCount: 2
Fore
SplineSet
899 0 m 1,0,-1
 678 0 l 1,1,2
 816 122 816 122 888 244 c 0,3,4
 968 383 968 383 968 550 c 0,5,6
 968 741 968 741 857 845 c 0,7,8
 734 960 734 960 560 960 c 1,9,-1
 560 1120 l 1,10,11
 810 1120 810 1120 967 980 c 0,12,13
 1148 819 1148 819 1148 550 c 0,14,15
 1148 356 1148 356 1056 199 c 0,16,17
 988 83 988 83 899 0 c 1,0,-1
380 0 m 1,18,-1
 200 0 l 1,19,-1
 200 1510 l 1,20,-1
 380 1510 l 1,21,-1
 380 0 l 1,18,-1
EndSplineSet
Validated: 1
EndChar

StartChar: i
Encoding: 105 105 75
Width: 580
GlyphClass: 2
Flags: W
HStem: 0 21G<200 380> 1080 20G<200 380> 1210 264<199.191 380.809>
VStem: 160 260<1249.71 1434.29> 200 180<0 1100>
LayerCount: 2
Fore
SplineSet
160 1342 m 128,-1,1
 160 1397 160 1397 198 1435.5 c 128,-1,2
 236 1474 236 1474 290 1474 c 128,-1,3
 344 1474 344 1474 382 1435.5 c 128,-1,4
 420 1397 420 1397 420 1342 c 128,-1,5
 420 1287 420 1287 382 1248.5 c 128,-1,6
 344 1210 344 1210 290 1210 c 128,-1,7
 236 1210 236 1210 198 1248.5 c 128,-1,0
 160 1287 160 1287 160 1342 c 128,-1,1
200 0 m 1,8,-1
 200 1100 l 1,9,-1
 380 1100 l 1,10,-1
 380 0 l 1,11,-1
 200 0 l 1,8,-1
EndSplineSet
Validated: 1
EndChar

StartChar: j
Encoding: 106 106 76
Width: 580
GlyphClass: 2
Flags: W
HStem: -430 21G<20 79> 1080 20G<200 380> 1210 264<199.191 380.809>
VStem: 160 260<1249.71 1434.29> 200 180<-113.684 1100>
LayerCount: 2
Fore
SplineSet
160 1342 m 128,-1,1
 160 1397 160 1397 198 1435.5 c 128,-1,2
 236 1474 236 1474 290 1474 c 128,-1,3
 344 1474 344 1474 382 1435.5 c 128,-1,4
 420 1397 420 1397 420 1342 c 128,-1,5
 420 1287 420 1287 382 1248.5 c 128,-1,6
 344 1210 344 1210 290 1210 c 128,-1,7
 236 1210 236 1210 198 1248.5 c 128,-1,0
 160 1287 160 1287 160 1342 c 128,-1,1
20 -253 m 17,8,9
 58 -232 58 -232 89 -204 c 0,10,11
 200 -102 200 -102 200 97 c 2,12,-1
 200 1100 l 17,13,-1
 380 1100 l 9,14,-1
 380 97 l 2,15,16
 380 -172 380 -172 229 -312 c 0,17,18
 138 -396 138 -396 20 -430 c 1,19,-1
 20 -253 l 17,8,9
EndSplineSet
Validated: 1
EndChar

StartChar: k
Encoding: 107 107 77
Width: 1266
GlyphClass: 2
Flags: W
HStem: 0 21G<200 380 867 1116> 1080 20G<884 1064> 1490 20G<200 380>
VStem: 200 180<0 1510> 884 180<790.879 1100>
LayerCount: 2
Fore
SplineSet
1116 0 m 1,0,1
 921 0 l 1,2,3
 813 233 813 233 560 297 c 1,4,-1
 560 479 l 1,5,6
 884 598 884 598 884 1100 c 1,7,-1
 1064 1100 l 1,8,9
 1064 539 1064 539 732 403 c 1,10,11
 995 319 995 319 1116 0 c 1,0,1
200 0 m 1,12,-1
 200 1510 l 1,13,-1
 380 1510 l 1,14,-1
 380 0 l 1,15,-1
 200 0 l 1,12,-1
EndSplineSet
Validated: 1
EndChar

StartChar: l
Encoding: 108 108 78
Width: 580
GlyphClass: 2
Flags: W
HStem: 0 21G<200 380> 1490 20G<200 380>
VStem: 200 180<0 1510>
LayerCount: 2
Fore
SplineSet
200 0 m 1,0,-1
 200 1510 l 1,1,-1
 380 1510 l 1,2,-1
 380 0 l 1,3,-1
 200 0 l 1,0,-1
EndSplineSet
Validated: 1
EndChar

StartChar: m
Encoding: 109 109 79
Width: 1658
GlyphClass: 2
Flags: W
HStem: 0 21G<304.5 570 739 919 1088 1353.5> 960 160<493.615 1164.39>
VStem: 100 180<315.936 756.256> 349 221<0 221> 739 180<0 780> 1088 221<0 221> 1378 180<315.936 756.256>
LayerCount: 2
Fore
SplineSet
570 0 m 1,0,1
 349 0 l 1,2,3
 260 83 260 83 192 199 c 0,4,5
 100 356 100 356 100 550 c 0,6,7
 100 819 100 819 281 980 c 0,8,9
 438 1120 438 1120 688 1120 c 2,10,-1
 970 1120 l 2,11,12
 1220 1120 1220 1120 1377 980 c 0,13,14
 1558 819 1558 819 1558 550 c 0,15,16
 1558 356 1558 356 1466 199 c 0,17,18
 1398 83 1398 83 1309 0 c 1,19,-1
 1088 0 l 1,20,21
 1230 126 1230 126 1298 244 c 0,22,23
 1378 383 1378 383 1378 550 c 0,24,25
 1378 741 1378 741 1267 845 c 0,26,27
 1144 960 1144 960 970 960 c 2,28,-1
 688 960 l 2,29,30
 514 960 514 960 391 845 c 0,31,32
 280 741 280 741 280 550 c 0,33,34
 280 383 280 383 360 244 c 0,35,36
 428 125 428 125 570 0 c 1,0,1
919 0 m 1,37,-1
 739 0 l 1,38,-1
 739 780 l 9,39,-1
 919 780 l 17,40,-1
 919 0 l 1,37,-1
EndSplineSet
Validated: 1
EndChar

StartChar: n
Encoding: 110 110 80
Width: 1248
GlyphClass: 2
Flags: W
HStem: 0 21G<200 380 678 943.5> 960 160<426.802 755.982>
VStem: 200 180<0 912.48> 678 221<0 221> 968 180<315.936 756.256>
LayerCount: 2
Fore
SplineSet
200 0 m 1,0,-1
 200 780 l 2,1,2
 200 1120 200 1120 560 1120 c 24,3,4
 810 1120 810 1120 967 980 c 0,5,6
 1148 819 1148 819 1148 550 c 0,7,8
 1148 356 1148 356 1056 199 c 0,9,10
 988 83 988 83 899 0 c 1,11,-1
 678 0 l 1,12,13
 820 126 820 126 888 244 c 0,14,15
 968 383 968 383 968 550 c 0,16,17
 968 741 968 741 857 845 c 0,18,19
 734 960 734 960 560 960 c 24,20,21
 380 960 380 960 380 780 c 2,22,-1
 380 0 l 1,23,-1
 200 0 l 1,0,-1
EndSplineSet
Validated: 1
EndChar

StartChar: o
Encoding: 111 111 81
Width: 1296
GlyphClass: 2
Flags: W
HStem: -20 160<473.239 822.761> 960 160<473.239 822.761>
VStem: 100 180<345.062 754.938> 1016 180<345.062 754.938>
LayerCount: 2
Fore
SplineSet
648 140 m 128,-1,1
 806 140 806 140 911 254 c 128,-1,2
 1016 368 1016 368 1016 550 c 128,-1,3
 1016 732 1016 732 911 846 c 128,-1,4
 806 960 806 960 648 960 c 128,-1,5
 490 960 490 960 385 846 c 128,-1,6
 280 732 280 732 280 550 c 128,-1,7
 280 368 280 368 385 254 c 128,-1,0
 490 140 490 140 648 140 c 128,-1,1
648 -20 m 128,-1,9
 430 -20 430 -20 275 124 c 0,10,11
 100 286 100 286 100 550 c 128,-1,12
 100 814 100 814 275 976 c 0,13,14
 430 1120 430 1120 648 1120 c 128,-1,15
 866 1120 866 1120 1021 976 c 0,16,17
 1196 814 1196 814 1196 550 c 128,-1,18
 1196 286 1196 286 1021 124 c 0,19,8
 866 -20 866 -20 648 -20 c 128,-1,9
EndSplineSet
Validated: 1
EndChar

StartChar: p
Encoding: 112 112 82
Width: 1228
GlyphClass: 2
Flags: W
HStem: -20 160<560 752.363> 960 160<422.227 747.275>
VStem: 200 180<-410 912.48> 948 180<345.062 754.938>
LayerCount: 2
Fore
SplineSet
560 -20 m 1,0,1
 560 140 l 1,2,3
 736 140 736 140 842 254 c 128,-1,4
 948 368 948 368 948 550 c 128,-1,5
 948 732 948 732 841 846 c 128,-1,6
 734 960 734 960 540 960 c 0,7,8
 380 960 380 960 380 780 c 2,9,-1
 380 -410 l 1,10,-1
 200 -410 l 1,11,-1
 200 780 l 2,12,13
 200 1120 200 1120 540 1120 c 0,14,15
 798 1120 798 1120 953 976 c 0,16,17
 1128 814 1128 814 1128 550 c 128,-1,18
 1128 286 1128 286 953 124 c 0,19,20
 798 -20 798 -20 560 -20 c 1,0,1
EndSplineSet
Validated: 1
EndChar

StartChar: q
Encoding: 113 113 83
Width: 1228
GlyphClass: 2
Flags: W
HStem: -430 160<1076.6 1208> -20 160<475.637 668> 960 160<480.725 805.773>
VStem: 100 180<345.062 754.938> 848 180<-225.532 912.48>
LayerCount: 2
Fore
SplineSet
668 -20 m 1,0,1
 430 -20 430 -20 275 124 c 0,2,3
 100 286 100 286 100 550 c 128,-1,4
 100 814 100 814 275 976 c 0,5,6
 430 1120 430 1120 688 1120 c 0,7,8
 1028 1120 1028 1120 1028 780 c 2,9,-1
 1028 -95 l 2,10,11
 1028 -270 1028 -270 1208 -270 c 1,12,-1
 1208 -430 l 1,13,14
 848 -430 848 -430 848 -95 c 2,15,-1
 848 780 l 2,16,17
 848 960 848 960 688 960 c 0,18,19
 494 960 494 960 387 846 c 128,-1,20
 280 732 280 732 280 550 c 128,-1,21
 280 368 280 368 386 254 c 128,-1,22
 492 140 492 140 668 140 c 1,23,-1
 668 -20 l 1,0,1
EndSplineSet
Validated: 1
EndChar

StartChar: r
Encoding: 114 114 84
Width: 740
GlyphClass: 2
Flags: W
HStem: 0 21G<200 380> 940 160<424.453 730>
VStem: 200 180<0 892.48>
LayerCount: 2
Fore
SplineSet
200 0 m 1,0,-1
 200 760 l 2,1,2
 200 1100 200 1100 540 1100 c 2,3,-1
 730 1100 l 25,4,-1
 730 940 l 25,5,-1
 540 940 l 18,6,7
 380 940 380 940 380 760 c 2,8,-1
 380 0 l 1,9,-1
 200 0 l 1,0,-1
EndSplineSet
Validated: 1
EndChar

StartChar: s
Encoding: 115 115 85
Width: 967
GlyphClass: 2
Flags: W
HStem: -20 160<274.723 606.81> 960 160<391.542 614.851>
VStem: 181 180<761.981 935.679> 687 180<216.033 437.785>
DStem2: 504 704 440 535 0.932266 -0.361775<-158.372 267.345>
LayerCount: 2
Fore
SplineSet
427 -20 m 0,0,1
 235 -20 235 -20 80 119 c 1,2,-1
 201 244 l 1,3,4
 296 140 296 140 442 140 c 0,5,6
 550 140 550 140 616 191 c 0,7,8
 687 246 687 246 687 330 c 0,9,10
 687 444 687 444 548 495 c 2,11,-1
 440 535 l 2,12,13
 181 631 181 631 181 845 c 0,14,15
 181 964 181 964 279 1050 c 0,16,17
 362 1120 362 1120 494 1120 c 0,18,19
 666 1120 666 1120 781 995 c 1,20,-1
 660 870 l 1,21,22
 587 960 587 960 492 960 c 0,23,24
 435 960 435 960 401 936 c 0,25,26
 361 908 361 908 361 849 c 0,27,28
 361 759 361 759 504 704 c 2,29,-1
 638 652 l 2,30,31
 867 563 867 563 867 350 c 0,32,33
 867 194 867 194 759 92 c 0,34,35
 640 -20 640 -20 427 -20 c 0,0,1
EndSplineSet
Validated: 1
EndChar

StartChar: t
Encoding: 116 116 86
Width: 740
GlyphClass: 2
Flags: W
HStem: 0 21G<200 380> 940 160<424.453 730> 1160 350<200 380>
VStem: 200 180<0 892.48 1160 1510>
LayerCount: 2
Fore
SplineSet
200 0 m 1,0,-1
 200 760 l 2,1,2
 200 1100 200 1100 540 1100 c 2,3,-1
 730 1100 l 25,4,-1
 730 940 l 25,5,-1
 540 940 l 18,6,7
 380 940 380 940 380 760 c 2,8,-1
 380 0 l 1,9,-1
 200 0 l 1,0,-1
200 1510 m 1,10,-1
 380 1510 l 1,11,-1
 380 1160 l 1,12,-1
 200 1160 l 1,13,-1
 200 1510 l 1,10,-1
EndSplineSet
Validated: 1
EndChar

StartChar: u
Encoding: 117 117 87
Width: 1248
GlyphClass: 2
Flags: W
HStem: -20 160<492.018 821.198> 1080 20G<304.5 570 868 1048>
VStem: 100 180<343.744 784.064> 349 221<879 1100> 868 180<187.52 1100>
LayerCount: 2
Fore
SplineSet
688 -20 m 24,0,1
 438 -20 438 -20 281 120 c 0,2,3
 100 281 100 281 100 550 c 0,4,5
 100 744 100 744 192 901 c 0,6,7
 260 1017 260 1017 349 1100 c 1,8,-1
 570 1100 l 1,9,10
 428 974 428 974 360 856 c 0,11,12
 280 717 280 717 280 550 c 0,13,14
 280 359 280 359 391 255 c 0,15,16
 514 140 514 140 688 140 c 24,17,18
 868 140 868 140 868 320 c 2,19,-1
 868 1100 l 1,20,-1
 1048 1100 l 1,21,-1
 1048 320 l 2,22,23
 1048 -20 1048 -20 688 -20 c 24,0,1
EndSplineSet
Validated: 1
EndChar

StartChar: v
Encoding: 118 118 88
Width: 1218
GlyphClass: 2
Flags: W
HStem: 0 130<513 705> 1080 20G<149 421 797 1069>
VStem: 100 181<516.078 960.031> 937 181<516.078 960.031>
LayerCount: 2
Fore
SplineSet
513 0 m 1,0,1
 100 363 100 363 100 735 c 0,2,3
 100 934 100 934 198 1100 c 1,4,-1
 421 1100 l 1,5,6
 281 961 281 961 281 728 c 0,7,8
 281 438 281 438 609 130 c 1,9,10
 937 438 937 438 937 728 c 0,11,12
 937 961 937 961 797 1100 c 1,13,-1
 1020 1100 l 1,14,15
 1118 934 1118 934 1118 735 c 0,16,17
 1118 363 1118 363 705 0 c 1,18,-1
 513 0 l 1,0,1
EndSplineSet
Validated: 1
EndChar

StartChar: w
Encoding: 119 119 89
Width: 1816
GlyphClass: 2
Flags: W
HStem: -20 160<489.158 778.049 1118 1319.04> 1080 20G<304.5 570 818 998 1246 1511.5>
VStem: 100 180<343.744 784.064> 349 221<879 1100> 818 180<179.551 1100> 1246 221<879 1100> 1536 180<343.744 784.064>
LayerCount: 2
Fore
SplineSet
1118 -20 m 1,0,-1
 1118 140 l 1,1,2
 1302 140 1302 140 1425 255 c 0,3,4
 1536 359 1536 359 1536 550 c 0,5,6
 1536 717 1536 717 1456 856 c 0,7,8
 1388 974 1388 974 1246 1100 c 1,9,-1
 1467 1100 l 1,10,11
 1556 1017 1556 1017 1624 901 c 0,12,13
 1716 744 1716 744 1716 550 c 0,14,15
 1716 281 1716 281 1535 120 c 0,16,17
 1378 -20 1378 -20 1118 -20 c 1,0,-1
663 -20 m 24,18,19
 438 -20 438 -20 281 120 c 0,20,21
 100 281 100 281 100 550 c 0,22,23
 100 744 100 744 192 901 c 0,24,25
 260 1017 260 1017 349 1100 c 1,26,-1
 570 1100 l 1,27,28
 428 974 428 974 360 856 c 0,29,30
 280 717 280 717 280 550 c 0,31,32
 280 359 280 359 391 255 c 0,33,34
 514 140 514 140 663 140 c 24,35,36
 818 140 818 140 818 320 c 2,37,-1
 818 1100 l 1,38,-1
 998 1100 l 1,39,-1
 998 320 l 2,40,41
 998 -20 998 -20 663 -20 c 24,18,19
EndSplineSet
Validated: 1
EndChar

StartChar: x
Encoding: 120 120 90
Width: 1099
GlyphClass: 2
Flags: W
HStem: 0 21G<120 300 773 979> 1084 16G<120 300 799 979>
VStem: 120 180<0 251.724 865.2 1100> 773 206<0 213.803> 799 180<852.08 1104>
LayerCount: 2
Fore
SplineSet
799 1104 m 1,0,-1
 979 1104 l 1,1,2
 979 766 979 766 793 686 c 1,3,-1
 610 686 l 1,4,5
 799 796 799 796 799 1104 c 1,0,-1
300 0 m 1,6,-1
 120 0 l 1,7,8
 120 317 120 317 289 398 c 1,9,-1
 472 398 l 1,10,11
 300 306 300 306 300 0 c 1,6,-1
773 0 m 1,12,13
 773 312 773 312 490 468 c 0,14,15
 121 671 121 671 120 1100 c 1,16,-1
 300 1100 l 1,17,18
 300 775 300 775 552 638 c 0,19,20
 979 404 979 404 979 0 c 1,21,-1
 773 0 l 1,12,13
EndSplineSet
Validated: 1
EndChar

StartChar: y
Encoding: 121 121 91
Width: 1248
VWidth: 1638
GlyphClass: 2
Flags: W
HStem: -430 160<518 702.164> -20 160<493.615 688> 1080 20G<304.5 570 868 1048>
VStem: 100 180<343.744 784.064> 349 221<879 1100> 868 180<-97.2947 1100>
LayerCount: 2
Fore
SplineSet
349 1100 m 1,0,-1
 570 1100 l 1,1,2
 432 978 432 978 360 856 c 0,3,4
 280 717 280 717 280 550 c 0,5,6
 280 359 280 359 391 255 c 0,7,8
 514 140 514 140 688 140 c 1,9,-1
 688 -20 l 1,10,11
 438 -20 438 -20 281 120 c 0,12,13
 100 281 100 281 100 550 c 0,14,15
 100 744 100 744 192 901 c 0,16,17
 260 1017 260 1017 349 1100 c 1,0,-1
518 -270 m 1,18,19
 669 -270 669 -270 763 -182 c 0,20,21
 868 -83 868 -83 868 120 c 2,22,-1
 868 1100 l 17,23,-1
 1048 1100 l 9,24,-1
 1048 120 l 2,25,26
 1048 -149 1048 -149 897 -289 c 0,27,28
 745 -430 745 -430 518 -430 c 9,29,-1
 518 -270 l 1,18,19
EndSplineSet
Validated: 1
EndChar

StartChar: z
Encoding: 122 122 92
Width: 1059
GlyphClass: 2
Flags: W
HStem: 0 160<429 959> 940 160<145 758.99>
VStem: 100 180<0 234.8> 759 200<813.691 937.635>
LayerCount: 2
Fore
SplineSet
100 0 m 1,0,1
 101 429 101 429 470 632 c 0,2,3
 759 792 759 792 759 916 c 0,4,5
 759 940 759 940 718 940 c 2,6,-1
 145 940 l 1,7,-1
 145 1100 l 1,8,-1
 753 1100 l 2,9,10
 959 1100 959 1100 959 930 c 0,11,12
 959 698 959 698 532 462 c 0,13,14
 280 323 280 323 280 0 c 1,15,-1
 100 0 l 1,0,1
959 0 m 1,16,-1
 429 0 l 1,17,-1
 429 160 l 1,18,-1
 959 160 l 1,19,-1
 959 0 l 1,16,-1
EndSplineSet
Validated: 19457
EndChar

StartChar: braceleft
Encoding: 123 123 93
Width: 848
GlyphClass: 2
Flags: W
HStem: -250 160<586.141 798> 677 160<50 286> 1600 160<586.141 798>
VStem: 286 175<36.2549 677 837 1473.75>
LayerCount: 2
Fore
SplineSet
50 837 m 1,0,-1
 286 837 l 1,1,-1
 286 1291 l 2,2,3
 286 1760 286 1760 798 1760 c 1,4,5
 798 1600 l 1,6,7
 461 1600 461 1600 461 1305 c 2,8,-1
 461 205 l 2,9,10
 461 -90 461 -90 798 -90 c 1,11,-1
 798 -250 l 1,12,13
 286 -250 286 -250 286 219 c 2,14,-1
 286 677 l 1,15,-1
 50 677 l 1,16,-1
 50 837 l 1,0,-1
EndSplineSet
Validated: 1
EndChar

StartChar: bar
Encoding: 124 124 94
Width: 660
GlyphClass: 2
Flags: W
VStem: 250 160<-180 1690>
LayerCount: 2
Fore
SplineSet
250 -180 m 1,0,-1
 250 1690 l 1,1,-1
 410 1690 l 1,2,-1
 410 -180 l 1,3,-1
 250 -180 l 1,0,-1
EndSplineSet
Validated: 1
EndChar

StartChar: braceright
Encoding: 125 125 95
Width: 848
GlyphClass: 2
Flags: W
HStem: -250 160<50 261.859> 677 160<562 798> 1600 160<50 261.859>
VStem: 387 175<36.2549 677 837 1473.75>
LayerCount: 2
Fore
SplineSet
798 837 m 1,0,-1
 798 677 l 1,1,-1
 562 677 l 1,2,-1
 562 219 l 2,3,4
 562 -250 562 -250 50 -250 c 1,5,-1
 50 -90 l 1,6,7
 387 -90 387 -90 387 205 c 2,8,-1
 387 1305 l 2,9,10
 387 1600 387 1600 50 1600 c 1,11,-1
 50 1760 l 1,12,13
 562 1760 562 1760 562 1291 c 2,14,-1
 562 837 l 1,15,-1
 798 837 l 1,0,-1
EndSplineSet
Validated: 1
EndChar

StartChar: asciitilde
Encoding: 126 126 96
Width: 1303
GlyphClass: 2
Flags: W
HStem: 546 189<763.026 936.052> 781 189<366.948 539.974>
DStem2: 642 893 536 740 0.730083 -0.683358<-61.967 260.345>
LayerCount: 2
Fore
SplineSet
150 670 m 1,0,1
 254 970 254 970 465 970 c 0,2,3
 560 970 560 970 642 893 c 2,4,-1
 767 776 l 2,5,6
 811 735 811 735 852 735 c 0,7,8
 946 735 946 735 1018 929 c 1,9,-1
 1153 846 l 1,10,11
 1049 546 1049 546 838 546 c 0,12,13
 743 546 743 546 661 623 c 2,14,-1
 536 740 l 2,15,16
 492 781 492 781 451 781 c 0,17,18
 357 781 357 781 285 587 c 1,19,-1
 150 670 l 1,0,1
EndSplineSet
Validated: 1
EndChar

StartChar: exclamdown
Encoding: 161 161 98
Width: 692
GlyphClass: 2
Flags: W
HStem: 856 264<255.191 436.809>
VStem: 216 260<895.707 1080.29> 250 192<-410 698>
LayerCount: 2
Fore
SplineSet
250 -410 m 1,0,-1
 250 698 l 1,1,-1
 442 698 l 1,2,-1
 442 -410 l 1,3,-1
 250 -410 l 1,0,-1
476 988 m 128,-1,5
 476 933 476 933 438 894.5 c 128,-1,6
 400 856 400 856 346 856 c 128,-1,7
 292 856 292 856 254 894.5 c 128,-1,8
 216 933 216 933 216 988 c 128,-1,9
 216 1043 216 1043 254 1081.5 c 128,-1,10
 292 1120 292 1120 346 1120 c 128,-1,11
 400 1120 400 1120 438 1081.5 c 128,-1,4
 476 1043 476 1043 476 988 c 128,-1,5
EndSplineSet
Validated: 1
EndChar

StartChar: cent
Encoding: 162 162 99
Width: 1095
GlyphClass: 2
Flags: W
HStem: -20 161<672 825.363> 959 161<672 825.363>
VStem: 100 180<343.237 753.028> 572 100<-180 -20 147 953 1120 1280>
LayerCount: 2
Fore
SplineSet
572 -16 m 1,0,1
 397 4 397 4 271 121 c 0,2,3
 100 280 100 280 100 550 c 128,-1,4
 100 820 100 820 271 979 c 0,5,6
 397 1095 397 1095 572 1116 c 5,7,-1
 572 1280 l 5,8,-1
 672 1280 l 5,9,-1
 672 1120 l 5,10,11
 881 1113 881 1113 1025 979 c 1,12,-1
 904 854 l 1,13,14
 812 952 812 952 672 959 c 1,15,-1
 672 141 l 1,16,17
 812 149 812 149 904 246 c 1,18,-1
 1025 121 l 1,19,20
 881 -12 881 -12 672 -20 c 1,21,-1
 672 -180 l 5,22,-1
 572 -180 l 5,23,-1
 572 -16 l 1,0,1
572 147 m 1,24,-1
 572 953 l 1,25,26
 466 933 466 933 392 854 c 0,27,28
 280 734 280 734 280 550 c 0,29,30
 280 365 280 365 392 246 c 0,31,32
 466 167 466 167 572 147 c 1,24,-1
EndSplineSet
Validated: 1
EndChar

StartChar: sterling
Encoding: 163 163 100
Width: 1182
GlyphClass: 2
Flags: W
HStem: 0 180<400 1032> 655 104<110 200 400 743> 1350 180<499.444 775.749>
VStem: 200 200<180 655 759 1237.03>
LayerCount: 2
Fore
SplineSet
200 0 m 1,0,-1
 200 655 l 1,1,-1
 110 655 l 1,2,-1
 110 759 l 1,3,-1
 200 759 l 1,4,-1
 200 964 l 2,5,6
 200 1238 200 1238 312 1381 c 24,7,8
 429 1530 429 1530 637 1530 c 0,9,10
 830 1530 830 1530 991 1374 c 1,11,-1
 867 1228 l 1,12,13
 750 1350 750 1350 647 1350 c 0,14,15
 507 1350 507 1350 445 1241 c 0,16,17
 400 1161 400 1161 400 962 c 2,18,-1
 400 759 l 1,19,-1
 743 759 l 1,20,-1
 743 655 l 1,21,-1
 400 655 l 1,22,-1
 400 180 l 1,23,-1
 1032 180 l 1,24,-1
 1032 0 l 1,25,-1
 200 0 l 1,0,-1
EndSplineSet
Validated: 1
EndChar

StartChar: currency
Encoding: 164 164 101
Width: 1627
GlyphClass: 2
Flags: W
HStem: 191 160<647.054 999.909> 1171 160<645.62 1001.45>
VStem: 276 180<556.046 965.123> 1192 180<554.684 967.211>
DStem2: 287 1417 150 1281 0.704144 -0.710057<0.0999164 285.045 1396.74 1690.71> 150 215 285 79 0.704442 0.709761<0 306.361 1418.87 1690.69>
LayerCount: 2
Fore
SplineSet
824 351 m 128,-1,1
 980 351 980 351 1080 457 c 0,2,3
 1192 577 1192 577 1192 761 c 128,-1,4
 1192 945 1192 945 1080 1065 c 0,5,6
 980 1171 980 1171 824 1171 c 0,7,8
 667 1171 667 1171 568 1065 c 0,9,10
 456 945 456 945 456 761 c 0,11,12
 456 576 456 576 568 457 c 0,13,0
 668 351 668 351 824 351 c 128,-1,1
287 1417 m 1,14,-1
 483 1220 l 1,15,16
 625 1331 625 1331 824 1331 c 0,17,18
 1015 1331 1015 1331 1154 1229 c 1,19,-1
 1340 1417 l 1,20,-1
 1477 1280 l 1,21,-1
 1286 1088 l 1,22,23
 1372 952 1372 952 1372 761 c 0,24,25
 1372 559 1372 559 1276 419 c 1,26,-1
 1477 216 l 1,27,-1
 1341 80 l 1,28,-1
 1140 283 l 1,29,30
 1006 191 1006 191 824 191 c 0,31,32
 634 191 634 191 496 292 c 1,33,-1
 285 79 l 1,34,-1
 150 215 l 1,35,-1
 364 431 l 1,36,37
 276 568 276 568 276 761 c 0,38,39
 276 943 276 943 354 1075 c 1,40,-1
 150 1281 l 1,41,-1
 287 1417 l 1,14,-1
EndSplineSet
Validated: 1
EndChar

StartChar: yen
Encoding: 165 165 102
Width: 1312
GlyphClass: 2
Flags: W
HStem: 0 21G<559 759> 432 104<240 559 759 1072> 646 104<240 416 747 1072> 1490 20G<100 300 1012 1212>
VStem: 100 200<1218.79 1510> 559 200<0 432 536 644.343> 1012 200<1237.91 1510>
LayerCount: 2
Fore
SplineSet
559 0 m 1,0,-1
 559 432 l 1,1,-1
 240 432 l 1,2,-1
 240 536 l 1,3,-1
 559 536 l 1,4,-1
 559 537 l 2,5,6
 559 593 559 593 523 646 c 1,7,-1
 240 646 l 1,8,-1
 240 750 l 1,9,-1
 416 750 l 1,10,11
 100 1005 100 1005 100 1510 c 1,12,-1
 300 1510 l 1,13,14
 300 1066 300 1066 634 823 c 0,15,16
 676 792 676 792 704 750 c 1,17,-1
 1072 750 l 1,18,-1
 1072 646 l 1,19,-1
 747 646 l 1,20,21
 759 596 759 596 759 537 c 2,22,-1
 759 536 l 1,23,-1
 1072 536 l 1,24,-1
 1072 432 l 1,25,-1
 759 432 l 1,26,-1
 759 0 l 1,27,-1
 559 0 l 1,0,-1
1012 1510 m 1,28,-1
 1212 1510 l 1,29,30
 1212 1022 1212 1022 890 871 c 1,31,-1
 647 871 l 1,32,33
 1012 1066 1012 1066 1012 1510 c 1,28,-1
EndSplineSet
Validated: 1
EndChar

StartChar: brokenbar
Encoding: 166 166 103
Width: 660
GlyphClass: 2
Flags: W
VStem: 250 160<-180 647 862 1690>
LayerCount: 2
Fore
SplineSet
250 -180 m 1,0,-1
 250 647 l 1,1,-1
 410 647 l 1,2,-1
 410 -180 l 1,3,-1
 250 -180 l 1,0,-1
250 1690 m 1,4,-1
 410 1690 l 1,5,-1
 410 862 l 1,6,-1
 250 862 l 1,7,-1
 250 1690 l 1,4,-1
EndSplineSet
Validated: 1
EndChar

StartChar: section
Encoding: 167 167 104
Width: 1046
GlyphClass: 2
Flags: W
HStem: -20 160<402.149 625.458> 1370 160<420.542 643.851>
VStem: 150 180<662.215 905.762> 210 180<1171.98 1346.4> 656 180<163.597 338.019> 716 180<603.406 847.785>
DStem2: 469 605 379 448 0.932266 -0.361775<-145.728 275.003> 533 1114 469 945 0.932266 -0.361775<-158.372 267.345>
LayerCount: 2
Fore
SplineSet
523 -20 m 0,0,1
 351 -20 351 -20 236 105 c 1,2,-1
 357 230 l 1,3,4
 430 140 430 140 525 140 c 0,5,6
 582 140 582 140 616 164 c 0,7,8
 656 192 656 192 656 251 c 0,9,10
 656 341 656 341 513 396 c 2,11,-1
 379 448 l 2,12,13
 150 537 150 537 150 750 c 0,14,15
 150 895 150 895 243 993 c 1,16,-1
 389 899 l 1,17,18
 330 849 330 849 330 770 c 0,19,20
 330 656 330 656 469 605 c 2,21,-1
 577 565 l 2,22,23
 836 469 836 469 836 255 c 0,24,25
 836 133 836 133 738 50 c 0,26,27
 655 -20 655 -20 523 -20 c 0,0,1
523 1530 m 0,28,29
 695 1530 695 1530 810 1405 c 1,30,-1
 689 1280 l 1,31,32
 616 1370 616 1370 521 1370 c 0,33,34
 464 1370 464 1370 430 1346 c 0,35,36
 390 1318 390 1318 390 1259 c 0,37,38
 390 1169 390 1169 533 1114 c 2,39,-1
 667 1062 l 2,40,41
 896 973 896 973 896 760 c 0,42,43
 896 614 896 614 808 521 c 1,44,-1
 659 613 l 1,45,46
 716 663 716 663 716 740 c 0,47,48
 716 854 716 854 577 905 c 2,49,-1
 469 945 l 2,50,51
 210 1041 210 1041 210 1255 c 0,52,53
 210 1377 210 1377 308 1460 c 0,54,55
 391 1530 391 1530 523 1530 c 0,28,29
EndSplineSet
Validated: 1
EndChar

StartChar: dieresis
Encoding: 168 168 105
Width: 620
GlyphClass: 2
Flags: W
HStem: 1256 224<83.0034 236.997 383.003 536.997>
VStem: 50 220<1289.52 1446.48> 350 220<1289.52 1446.48>
LayerCount: 2
Fore
SplineSet
350 1368 m 128,-1,1
 350 1415 350 1415 382 1447.5 c 128,-1,2
 414 1480 414 1480 460 1480 c 128,-1,3
 506 1480 506 1480 538 1447.5 c 128,-1,4
 570 1415 570 1415 570 1368 c 128,-1,5
 570 1321 570 1321 538 1288.5 c 128,-1,6
 506 1256 506 1256 460 1256 c 128,-1,7
 414 1256 414 1256 382 1288.5 c 128,-1,0
 350 1321 350 1321 350 1368 c 128,-1,1
50 1368 m 128,-1,9
 50 1415 50 1415 82 1447.5 c 128,-1,10
 114 1480 114 1480 160 1480 c 128,-1,11
 206 1480 206 1480 238 1447.5 c 128,-1,12
 270 1415 270 1415 270 1368 c 128,-1,13
 270 1321 270 1321 238 1288.5 c 128,-1,14
 206 1256 206 1256 160 1256 c 128,-1,15
 114 1256 114 1256 82 1288.5 c 128,-1,8
 50 1321 50 1321 50 1368 c 128,-1,9
EndSplineSet
Validated: 1
EndChar

StartChar: copyright
Encoding: 169 169 106
Width: 1401
GlyphClass: 2
Flags: W
HStem: 187 73<514.363 878.202> 334 152<552.349 849.678> 1021 153<551.162 846.016> 1254 77<516.855 884.866>
VStem: 150 74<569.815 952.314> 284 162<595.643 911.669> 1176 75<558.376 959.426>
LayerCount: 2
Fore
SplineSet
1031 485 m 1,0,1
 895 334 895 334 704 334 c 0,2,3
 515 334 515 334 398 460 c 0,4,5
 284 583 284 583 284 754 c 0,6,7
 284 928 284 928 402 1051 c 0,8,9
 522 1174 522 1174 704 1174 c 128,-1,10
 886 1174 886 1174 1027 1027 c 1,11,-1
 910 924 l 1,12,13
 817 1021 817 1021 705 1021 c 0,14,15
 587 1021 587 1021 518 948 c 0,16,17
 446 872 446 872 446 754 c 0,18,19
 446 639 446 639 518 560 c 0,20,21
 586 486 586 486 698 486 c 0,22,23
 825 486 825 486 909 583 c 1,24,-1
 1031 485 l 1,0,1
701 1331 m 0,25,26
 943 1331 943 1331 1099 1158 c 0,27,28
 1251 989 1251 989 1251 754 c 0,29,30
 1251 502 1251 502 1090 350 c 0,31,32
 919 187 919 187 699 187 c 0,33,34
 476 187 476 187 311 350 c 0,35,36
 150 509 150 509 150 754 c 0,37,38
 150 998 150 998 308 1163 c 0,39,40
 469 1331 469 1331 701 1331 c 0,25,26
699 1254 m 0,41,42
 509 1254 509 1254 367 1113 c 0,43,44
 224 971 224 971 224 754 c 0,45,46
 224 561 224 561 364 406 c 0,47,48
 495 260 495 260 701 260 c 0,49,50
 892 260 892 260 1037 406 c 0,51,52
 1176 546 1176 546 1176 754 c 0,53,54
 1176 975 1176 975 1039 1110 c 0,55,56
 893 1254 893 1254 699 1254 c 0,41,42
EndSplineSet
Validated: 1
EndChar

StartChar: ordfeminine
Encoding: 170 170 107
Width: 644
GlyphClass: 2
Flags: W
HStem: 843 153<50 594> 1068 143<252.39 400> 1537 143<251.974 439.989>
VStem: 50 153<1256.91 1490.36> 441 153<1068 1533.03>
LayerCount: 2
Fore
SplineSet
594 1068 m 1,0,-1
 441 1068 l 1,1,-1
 441 1481 l 2,2,3
 441 1537 441 1537 385 1537 c 24,4,5
 297 1537 297 1537 254 1498 c 0,6,7
 203 1451 203 1451 203 1374 c 0,8,9
 203 1301 203 1301 251 1253 c 0,10,11
 295 1211 295 1211 400 1211 c 1,12,13
 400 1068 l 1,14,15
 238 1068 238 1068 150 1146 c 0,16,17
 50 1234 50 1234 50 1374 c 0,18,19
 50 1511 50 1511 150 1602 c 0,20,21
 237 1680 237 1680 385 1680 c 0,22,23
 594 1680 594 1680 594 1481 c 2,24,-1
 594 1068 l 1,0,-1
50 996 m 1,25,-1
 594 996 l 1,26,-1
 594 843 l 1,27,-1
 50 843 l 1,28,-1
 50 996 l 1,25,-1
EndSplineSet
Validated: 1
EndChar

StartChar: guillemotleft
Encoding: 171 171 108
Width: 1244
GlyphClass: 2
Flags: W
VStem: 150 209<642.5 851.5> 565 209<642.5 851.5>
DStem2: 359 747 150 747 0.642822 -0.766016<0 498.321> 150 747 359 747 0.642822 0.766016<134.35 632.671> 774 747 565 747 0.642822 -0.766016<0 498.321> 565 747 774 747 0.642822 0.766016<134.35 632.671>
LayerCount: 2
Fore
SplineSet
972 1232 m 1,0,-1
 1094 1129 l 1,1,-1
 774 747 l 1,2,-1
 1094 365 l 1,3,-1
 972 262 l 1,4,-1
 565 747 l 1,5,-1
 972 1232 l 1,0,-1
557 1232 m 1,6,-1
 679 1129 l 1,7,-1
 359 747 l 1,8,-1
 679 365 l 1,9,-1
 557 262 l 1,10,-1
 150 747 l 1,11,-1
 557 1232 l 1,6,-1
EndSplineSet
Validated: 1
EndChar

StartChar: logicalnot
Encoding: 172 172 109
Width: 1133
GlyphClass: 2
Flags: W
HStem: 655 180<150 803>
VStem: 803 180<426 655>
LayerCount: 2
Fore
SplineSet
150 655 m 1,0,-1
 150 835 l 1,1,-1
 983 835 l 1,2,-1
 983 426 l 1,3,-1
 803 426 l 1,4,-1
 803 655 l 1,5,-1
 150 655 l 1,0,-1
EndSplineSet
Validated: 1
EndChar

StartChar: registered
Encoding: 174 174 110
Width: 1401
GlyphClass: 2
Flags: W
HStem: 187 73<515.246 877.104> 1039 151<568.19 787.127> 1254 77<516.855 884.866>
VStem: 150 74<569.565 952.314> 405 162<366 1034.91> 850 162<731.559 977.472> 1176 75<558.62 959.426>
LayerCount: 2
Fore
SplineSet
699 1254 m 0,0,1
 509 1254 509 1254 367 1113 c 0,2,3
 224 971 224 971 224 754 c 0,4,5
 224 560 224 560 364 406 c 0,6,7
 384 384 384 384 405 366 c 1,8,-1
 405 980 l 2,9,10
 405 1190 405 1190 626 1190 c 0,11,12
 808 1190 808 1190 904 1105 c 0,13,14
 1012 1009 1012 1009 1012 863 c 0,15,16
 1012 723 1012 723 927 636 c 0,17,18
 879 587 879 587 820 560 c 1,19,-1
 1037 406 l 1,20,21
 1176 546 1176 546 1176 754 c 0,22,23
 1176 975 1176 975 1039 1110 c 0,24,25
 893 1254 893 1254 699 1254 c 0,0,1
701 1331 m 0,26,27
 943 1331 943 1331 1099 1158 c 0,28,29
 1251 989 1251 989 1251 754 c 0,30,31
 1251 503 1251 503 1090 350 c 0,32,33
 918 187 918 187 699 187 c 0,34,35
 476 187 476 187 311 350 c 0,36,37
 150 509 150 509 150 754 c 0,38,39
 150 998 150 998 308 1163 c 0,40,41
 469 1331 469 1331 701 1331 c 0,26,27
466 321 m 1,42,43
 568 260 568 260 701 260 c 0,44,45
 824 260 824 260 929 321 c 1,46,-1
 893 321 l 1,47,-1
 607 529 l 1,48,-1
 607 668 l 1,49,50
 741 668 741 668 799 724 c 0,51,52
 850 774 850 774 850 863 c 0,53,54
 850 936 850 936 796.5 987.5 c 128,-1,55
 743 1039 743 1039 626 1039 c 0,56,57
 567 1039 567 1039 567 980 c 2,58,-1
 567 321 l 1,59,-1
 466 321 l 1,42,43
EndSplineSet
Validated: 1
EndChar

StartChar: macron
Encoding: 175 175 111
Width: 603
GlyphClass: 2
Flags: W
HStem: 1309 140<50 553>
VStem: 50 503<1309 1449>
LayerCount: 2
Fore
SplineSet
50 1449 m 1,0,-1
 553 1449 l 1,1,-1
 553 1309 l 1,2,-1
 50 1309 l 1,3,-1
 50 1449 l 1,0,-1
EndSplineSet
Validated: 1
EndChar

StartChar: degree
Encoding: 176 176 112
Width: 700
GlyphClass: 2
Flags: W
HStem: 905 157<245.213 454.802> 1373 157<245.368 453.836>
VStem: 50 150<1109.07 1326.92> 500 150<1108.81 1326.93>
LayerCount: 2
Fore
SplineSet
351 1373 m 0,0,1
 286 1373 286 1373 244 1328 c 0,2,3
 200 1281 200 1281 200 1218 c 0,4,5
 200 1154 200 1154 244 1108 c 0,6,7
 289 1062 289 1062 350 1062 c 256,8,9
 412 1062 412 1062 456 1107.5 c 128,-1,10
 500 1153 500 1153 500 1218 c 0,11,12
 500 1282 500 1282 456 1328 c 0,13,14
 412 1373 412 1373 351 1373 c 0,0,1
353 1530 m 0,15,16
 475 1530 475 1530 562 1439 c 0,17,18
 650 1347 650 1347 650 1218 c 128,-1,19
 650 1089 650 1089 562 997 c 128,-1,20
 474 905 474 905 350 905 c 256,21,22
 226 905 226 905 138 997 c 128,-1,23
 50 1089 50 1089 50 1218 c 128,-1,24
 50 1347 50 1347 138 1439 c 0,25,26
 225 1530 225 1530 353 1530 c 0,15,16
EndSplineSet
Validated: 1
EndChar

StartChar: plusminus
Encoding: 177 177 113
Width: 1133
GlyphClass: 2
Flags: W
HStem: 228 180<150 983> 805 180<150 476 656 983>
VStem: 476 180<478 805 985 1312>
LayerCount: 2
Fore
SplineSet
150 228 m 1,0,-1
 150 408 l 1,1,-1
 983 408 l 1,2,-1
 983 228 l 1,3,-1
 150 228 l 1,0,-1
476 1312 m 1,4,-1
 656 1312 l 1,5,-1
 656 985 l 1,6,-1
 983 985 l 1,7,-1
 983 805 l 1,8,-1
 656 805 l 1,9,-1
 656 478 l 1,10,-1
 476 478 l 1,11,-1
 476 805 l 1,12,-1
 150 805 l 1,13,-1
 150 985 l 1,14,-1
 476 985 l 1,15,-1
 476 1312 l 1,4,-1
EndSplineSet
Validated: 1
EndChar

StartChar: uni00B2
Encoding: 178 178 114
Width: 629
GlyphClass: 2
Flags: W
HStem: 878 133<240 579> 1537 143<211.276 391.88>
VStem: 424 153<1310.19 1502.7>
LayerCount: 2
Fore
SplineSet
305 1680 m 0,0,1
 439 1680 439 1680 516 1584 c 0,2,3
 577 1509 577 1509 577 1410 c 0,4,5
 577 1253 577 1253 380 1130 c 0,6,7
 286 1071 286 1071 240 1011 c 1,8,-1
 579 1011 l 1,9,-1
 579 878 l 1,10,-1
 57 878 l 1,11,12
 57 1100 57 1100 310 1255 c 0,13,14
 424 1325 424 1325 424 1411 c 0,15,16
 424 1466 424 1466 391 1498 c 0,17,18
 353 1536 353 1536 302 1537 c 0,19,20
 237 1537 237 1537 167 1442 c 1,21,-1
 50 1535 l 1,22,23
 157 1680 157 1680 305 1680 c 0,0,1
EndSplineSet
Validated: 1
EndChar

StartChar: uni00B3
Encoding: 179 179 115
Width: 640
GlyphClass: 2
Flags: W
HStem: 860 143<173.406 402.989> 1228 142<246 361.326> 1539 141<183.118 368.729>
VStem: 386 154<1389.38 1522.84> 436 154<1032.34 1202.37>
LayerCount: 2
Fore
SplineSet
296 1680 m 0,0,1
 399 1680 399 1680 470 1624 c 0,2,3
 540 1569 540 1569 540 1477 c 0,4,5
 540 1401 540 1401 482 1338 c 0,6,7
 470 1325 470 1325 456 1314 c 1,8,9
 502 1294 502 1294 534 1262 c 0,10,11
 590 1205 590 1205 590 1120 c 0,12,13
 590 1007 590 1007 512 938 c 0,14,15
 424 861 424 861 290 860 c 0,16,17
 172 860 172 860 50 954 c 1,18,-1
 156 1061 l 1,19,20
 220 1003 220 1003 288 1003 c 0,21,22
 365 1003 365 1003 398 1034 c 0,23,24
 436 1070 436 1070 436 1120 c 0,25,26
 436 1174 436 1174 398 1201 c 128,-1,27
 360 1228 360 1228 246 1228 c 1,28,-1
 246 1370 l 1,29,30
 341 1370 341 1370 362 1395 c 0,31,32
 386 1424 386 1424 386 1459 c 0,33,34
 386 1496 386 1496 361 1518 c 0,35,36
 337 1539 337 1539 298 1539 c 0,37,38
 254 1539 254 1539 212 1494 c 1,39,-1
 102 1594 l 1,40,41
 190 1680 190 1680 296 1680 c 0,0,1
EndSplineSet
Validated: 1
EndChar

StartChar: acute
Encoding: 180 180 116
Width: 454
GlyphClass: 2
Flags: W
HStem: 1242 339
VStem: 50 354
DStem2: 50 1347 144 1242 0.743294 0.668965<0 349.423>
LayerCount: 2
Fore
SplineSet
310 1581 m 1,0,-1
 404 1476 l 1,1,-1
 144 1242 l 1,2,-1
 50 1347 l 1,3,-1
 310 1581 l 1,0,-1
EndSplineSet
Validated: 1
EndChar

StartChar: uni00B5
Encoding: 181 181 117
Width: 1348
GlyphClass: 2
Flags: W
HStem: -20 160<592.173 921.198> 1080 20G<404.5 670 968 1148>
VStem: 200 180<-410 121 345.234 783.378> 449 221<879 1100> 968 180<187.52 1100>
LayerCount: 2
Fore
SplineSet
788 -20 m 0,0,1
 539 -20 539 -20 380 121 c 1,2,-1
 380 -410 l 1,3,-1
 200 -410 l 1,4,-1
 200 550 l 2,5,6
 200 744 200 744 292 901 c 0,7,8
 360 1017 360 1017 449 1100 c 1,9,-1
 670 1100 l 1,10,11
 528 974 528 974 460 856 c 0,12,13
 380 717 380 717 380 550 c 0,14,15
 380 359 380 359 491 255 c 0,16,17
 614 140 614 140 788 140 c 0,18,19
 968 140 968 140 968 320 c 2,20,-1
 968 1100 l 1,21,-1
 1148 1100 l 1,22,-1
 1148 320 l 2,23,24
 1148 -20 1148 -20 788 -20 c 0,0,1
EndSplineSet
Validated: 1
EndChar

StartChar: paragraph
Encoding: 182 182 118
Width: 1153
GlyphClass: 2
Flags: W
HStem: 0 21G<713 801 867 953> 705 815<367.372 710.652> 1436 74<801 867>
VStem: 150 651<925.998 1299.37> 713 88<0 740> 867 86<0 1436>
LayerCount: 2
Fore
SplineSet
713 0 m 1,0,-1
 713 740 l 1,1,2
 638 705 638 705 547 705 c 0,3,4
 382 705 382 705 266 825 c 128,-1,5
 150 945 150 945 150 1112.5 c 128,-1,6
 150 1280 150 1280 266 1401 c 0,7,8
 380 1520 380 1520 547 1520 c 0,9,10
 638 1520 638 1520 713 1485 c 1,11,-1
 713 1510 l 1,12,-1
 953 1510 l 1,13,-1
 953 0 l 1,14,-1
 867 0 l 1,15,-1
 867 1436 l 1,16,-1
 801 1436 l 1,17,-1
 801 0 l 1,18,-1
 713 0 l 1,0,-1
EndSplineSet
Validated: 1
EndChar

StartChar: periodcentered
Encoding: 183 183 119
Width: 360
GlyphClass: 2
Flags: W
HStem: 624 264<89.1914 270.809>
VStem: 50 260<663.707 848.293>
LayerCount: 2
Fore
SplineSet
50 756 m 128,-1,1
 50 811 50 811 88 849.5 c 128,-1,2
 126 888 126 888 180 888 c 128,-1,3
 234 888 234 888 272 849.5 c 128,-1,4
 310 811 310 811 310 756 c 128,-1,5
 310 701 310 701 272 662.5 c 128,-1,6
 234 624 234 624 180 624 c 128,-1,7
 126 624 126 624 88 662.5 c 128,-1,0
 50 701 50 701 50 756 c 128,-1,1
EndSplineSet
Validated: 19457
EndChar

StartChar: cedilla
Encoding: 184 184 120
Width: 369
GlyphClass: 2
Flags: W
HStem: -430 560
VStem: 177 142<-247.265 -28.2207>
LayerCount: 2
Fore
SplineSet
165 130 m 1,0,1
 319 16 319 16 319 -138 c 0,2,3
 319 -310 319 -310 129 -430 c 1,4,-1
 50 -314 l 1,5,6
 177 -240 177 -240 177 -138 c 0,7,8
 177 -51 177 -51 81 20 c 1,9,-1
 165 130 l 1,0,1
EndSplineSet
Validated: 1
EndChar

StartChar: uni00B9
Encoding: 185 185 121
Width: 389
GlyphClass: 2
Flags: W
HStem: 1537 143<50 183.91>
VStem: 186 153<878 1533.03>
LayerCount: 2
Fore
SplineSet
50 1680 m 1,0,-1
 129 1680 l 2,1,2
 339 1680 339 1680 339 1481 c 2,3,-1
 339 878 l 1,4,-1
 186 878 l 1,5,-1
 186 1481 l 2,6,7
 186 1537 186 1537 129 1537 c 2,8,-1
 50 1537 l 1,9,-1
 50 1680 l 1,0,-1
EndSplineSet
Validated: 1
EndChar

StartChar: ordmasculine
Encoding: 186 186 122
Width: 710
GlyphClass: 2
Flags: W
HStem: 843 153<50 660> 1068 143<249.534 460.218> 1537 143<249.21 461.696>
VStem: 50 152<1256.69 1493.66> 507 153<1256.69 1494.91>
LayerCount: 2
Fore
SplineSet
250 1253 m 0,0,1
 295 1211 295 1211 355 1211 c 128,-1,2
 415 1211 415 1211 460 1253 c 0,3,4
 507 1296 507 1296 507 1374 c 0,5,6
 507 1455 507 1455 459 1499 c 0,7,8
 417 1537 417 1537 355 1537 c 128,-1,9
 293 1537 293 1537 251 1499 c 0,10,11
 202 1454 202 1454 202 1374 c 0,12,13
 202 1296 202 1296 250 1253 c 0,0,1
355 1680 m 0,14,15
 478 1680 478 1680 565 1601 c 0,16,17
 660 1514 660 1514 660 1374 c 0,18,19
 660 1241 660 1241 564 1146 c 0,20,21
 484 1068 484 1068 355 1068 c 0,22,23
 225 1068 225 1068 146 1146 c 0,24,25
 50 1241 50 1241 50 1374 c 0,26,27
 50 1512 50 1512 145 1601 c 0,28,29
 229 1680 229 1680 355 1680 c 0,14,15
50 996 m 1,30,-1
 660 996 l 1,31,-1
 660 843 l 1,32,-1
 50 843 l 1,33,-1
 50 996 l 1,30,-1
EndSplineSet
Validated: 1
EndChar

StartChar: guillemotright
Encoding: 187 187 123
Width: 1244
GlyphClass: 2
Flags: W
VStem: 470 209<642.5 851.5> 885 209<642.5 851.5>
DStem2: 272 1232 150 1129 0.642822 -0.766016<0.475404 498.796> 150 365 272 262 0.642822 0.766016<0 498.321> 687 1232 565 1129 0.642822 -0.766016<0.475404 498.796> 565 365 687 262 0.642822 0.766016<0 498.321>
LayerCount: 2
Fore
SplineSet
272 1232 m 1,0,-1
 679 747 l 1,1,-1
 272 262 l 1,2,-1
 150 365 l 1,3,-1
 470 747 l 1,4,-1
 150 1129 l 1,5,-1
 272 1232 l 1,0,-1
687 1232 m 1,6,-1
 1094 747 l 1,7,-1
 687 262 l 1,8,-1
 565 365 l 1,9,-1
 885 747 l 1,10,-1
 565 1129 l 1,11,-1
 687 1232 l 1,6,-1
EndSplineSet
Validated: 1
EndChar

StartChar: onequarter
Encoding: 188 188 124
Width: 1450
GlyphClass: 2
Flags: W
HStem: 0 1G<147.084 188.865 1147 1300> 160 143<944.002 1100> 1387 143<50 183.91>
VStem: 186 153<728 1383.03> 785 159<216 417.938> 1147 153<0 612>
DStem2: 30 87 174 -20 0.596529 0.802592<0.0227725 1798.22> 983 802 947 318 0.378633 0.925547<-471.899 0>
LayerCount: 2
Fore
SplineSet
174 -20 m 1,0,-1
 30 87 l 1,1,-1
 1103 1530 l 1,2,-1
 1248 1425 l 1,3,-1
 174 -20 l 1,0,-1
50 1530 m 1,4,-1
 129 1530 l 2,5,6
 339 1530 339 1530 339 1331 c 2,7,-1
 339 728 l 1,8,-1
 186 728 l 1,9,-1
 186 1331 l 2,10,11
 186 1387 186 1387 129 1387 c 2,12,-1
 50 1387 l 1,13,-1
 50 1530 l 1,4,-1
983 802 m 1,14,-1
 1145 802 l 1,15,-1
 947 318 l 2,16,17
 944 311 944 311 944 308 c 0,18,19
 944 303 944 303 954 303 c 2,20,-1
 1100 303 l 1,21,-1
 1100 160 l 1,22,-1
 944 160 l 2,23,24
 785 160 785 160 785 272 c 0,25,26
 785 316 785 316 811 380 c 2,27,-1
 983 802 l 1,14,-1
1300 0 m 1,28,-1
 1147 0 l 1,29,-1
 1147 612 l 1,30,-1
 1300 612 l 1,31,-1
 1300 0 l 1,28,-1
EndSplineSet
Validated: 1
EndChar

StartChar: onehalf
Encoding: 189 189 125
Width: 1565
GlyphClass: 2
Flags: W
HStem: -20 21G<147.084 188.865> 0 133<1076 1415> 659 143<1047.28 1227.88> 1387 143<50 183.91>
VStem: 186 153<728 1383.03> 1260 153<432.19 624.704>
DStem2: 30 87 174 -20 0.596529 0.802592<0.0227725 1798.22>
LayerCount: 2
Fore
SplineSet
1141 802 m 0,0,1
 1275 802 1275 802 1352 706 c 0,2,3
 1413 631 1413 631 1413 532 c 0,4,5
 1413 375 1413 375 1216 252 c 0,6,7
 1122 193 1122 193 1076 133 c 1,8,-1
 1415 133 l 1,9,-1
 1415 0 l 1,10,-1
 893 0 l 1,11,12
 893 222 893 222 1146 377 c 0,13,14
 1260 447 1260 447 1260 533 c 0,15,16
 1260 588 1260 588 1227 620 c 0,17,18
 1189 658 1189 658 1138 659 c 0,19,20
 1073 659 1073 659 1003 564 c 1,21,-1
 886 657 l 1,22,23
 993 802 993 802 1141 802 c 0,0,1
174 -20 m 1,24,-1
 30 87 l 1,25,-1
 1103 1530 l 1,26,-1
 1248 1425 l 1,27,-1
 174 -20 l 1,24,-1
50 1530 m 1,28,-1
 129 1530 l 2,29,30
 339 1530 339 1530 339 1331 c 2,31,-1
 339 728 l 1,32,-1
 186 728 l 1,33,-1
 186 1331 l 2,34,35
 186 1387 186 1387 129 1387 c 2,36,-1
 50 1387 l 1,37,-1
 50 1530 l 1,28,-1
EndSplineSet
Validated: 1
EndChar

StartChar: threequarters
Encoding: 190 190 126
Width: 1717
GlyphClass: 2
Flags: W
HStem: 0 1G<414.084 455.865 1414 1567> 160 143<1211 1367> 710 143<273.406 502.989> 1078 142<346 461.326> 1389 141<283.118 468.729>
VStem: 486 154<1239.38 1372.84> 536 154<882.338 1052.37> 1052 159<216 417.938> 1414 153<0 612>
DStem2: 297 87 441 -20 0.596529 0.802592<0.0227725 1798.22> 1250 802 1214 318 0.378633 0.925547<-471.899 0>
LayerCount: 2
Fore
SplineSet
396 1530 m 0,0,1
 499 1530 499 1530 570 1474 c 0,2,3
 640 1419 640 1419 640 1327 c 0,4,5
 640 1251 640 1251 582 1188 c 0,6,7
 570 1175 570 1175 556 1164 c 1,8,9
 602 1144 602 1144 634 1112 c 0,10,11
 690 1055 690 1055 690 970 c 0,12,13
 690 857 690 857 612 788 c 0,14,15
 524 711 524 711 390 710 c 0,16,17
 272 710 272 710 150 804 c 1,18,-1
 256 911 l 1,19,20
 320 853 320 853 388 853 c 0,21,22
 465 853 465 853 498 884 c 0,23,24
 536 920 536 920 536 970 c 0,25,26
 536 1024 536 1024 498 1051 c 128,-1,27
 460 1078 460 1078 346 1078 c 1,28,-1
 346 1220 l 1,29,30
 441 1220 441 1220 462 1245 c 0,31,32
 486 1274 486 1274 486 1309 c 0,33,34
 486 1346 486 1346 461 1368 c 0,35,36
 437 1389 437 1389 398 1389 c 0,37,38
 354 1389 354 1389 312 1344 c 1,39,-1
 202 1444 l 1,40,41
 290 1530 290 1530 396 1530 c 0,0,1
441 -20 m 1,42,-1
 297 87 l 1,43,-1
 1370 1530 l 1,44,-1
 1515 1425 l 1,45,-1
 441 -20 l 1,42,-1
1250 802 m 1,46,-1
 1412 802 l 1,47,-1
 1214 318 l 2,48,49
 1211 311 1211 311 1211 308 c 0,50,51
 1211 303 1211 303 1221 303 c 2,52,-1
 1367 303 l 1,53,-1
 1367 160 l 1,54,-1
 1211 160 l 2,55,56
 1052 160 1052 160 1052 272 c 0,57,58
 1052 316 1052 316 1078 380 c 2,59,-1
 1250 802 l 1,46,-1
1567 0 m 1,60,-1
 1414 0 l 1,61,-1
 1414 612 l 1,62,-1
 1567 612 l 1,63,-1
 1567 0 l 1,60,-1
EndSplineSet
Validated: 1
EndChar

StartChar: questiondown
Encoding: 191 191 127
Width: 1186
GlyphClass: 2
Flags: W
HStem: -430 180<471.808 789.948> 856 264<540.191 721.809>
VStem: 150 200<-128.081 182.248> 501 260<895.707 1080.29> 546 160<566.857 746>
LayerCount: 2
Fore
SplineSet
628 -430 m 0,0,1
 414 -430 414 -430 276 -289 c 0,2,3
 150 -161 150 -161 150 27 c 0,4,5
 150 245 150 245 358 404 c 0,6,7
 546 548 546 548 546 746 c 1,8,-1
 706 746 l 1,9,10
 706 470 706 470 482 282 c 0,11,12
 350 171 350 171 350 26 c 0,13,14
 350 -95 350 -95 433 -176 c 0,15,16
 509 -250 509 -250 632 -250 c 0,17,18
 798 -250 798 -250 918 -86 c 1,19,-1
 1066 -204 l 1,20,21
 870 -430 870 -430 628 -430 c 0,0,1
631 1120 m 128,-1,23
 685 1120 685 1120 723 1081.5 c 128,-1,24
 761 1043 761 1043 761 988 c 128,-1,25
 761 933 761 933 723 894.5 c 128,-1,26
 685 856 685 856 631 856 c 128,-1,27
 577 856 577 856 539 894.5 c 128,-1,28
 501 933 501 933 501 988 c 128,-1,29
 501 1043 501 1043 539 1081.5 c 128,-1,22
 577 1120 577 1120 631 1120 c 128,-1,23
EndSplineSet
Validated: 1
EndChar

StartChar: multiply
Encoding: 215 215 128
Width: 1117
GlyphClass: 2
Flags: W
HStem: 1083 20G<307 347.087 770 810>
DStem2: 327 1103 200 976 0.707107 -0.707107<0 326.683 507.703 834.386> 201 514 328 387 0.707107 0.707107<0 325.976 506.288 832.972>
LayerCount: 2
Fore
SplineSet
327 1103 m 1,0,-1
 559 872 l 1,1,-1
 790 1103 l 1,2,-1
 917 976 l 1,3,-1
 686 745 l 1,4,-1
 917 513 l 1,5,-1
 790 386 l 1,6,-1
 559 617 l 1,7,-1
 328 387 l 1,8,-1
 201 514 l 1,9,-1
 431 745 l 1,10,-1
 200 976 l 1,11,-1
 327 1103 l 1,0,-1
EndSplineSet
Validated: 1
EndChar

StartChar: Oslash
Encoding: 216 216 129
Width: 1660
GlyphClass: 2
Flags: W
HStem: -20 180<621.107 1036.98> 1350 180<623.918 1038.42>
VStem: 100 200<500.078 1008.64> 1360 200<501.361 1009.92>
DStem2: 134 129 204 58 0.706839 0.707374<0 178.91 375.474 1494.08 1690.97 1869.55>
LayerCount: 2
Fore
SplineSet
830 -20 m 0,0,1
 536 -20 536 -20 330 184 c 1,2,-1
 204 58 l 1,3,-1
 134 129 l 1,4,-1
 263 259 l 1,5,6
 100 465 100 465 100 755 c 0,7,8
 100 1076 100 1076 299 1294 c 0,9,10
 516 1530 516 1530 830 1530 c 0,11,12
 1122 1530 1122 1530 1330 1326 c 1,13,-1
 1456 1452 l 1,14,-1
 1526 1381 l 1,15,-1
 1397 1251 l 1,16,17
 1560 1045 1560 1045 1560 755 c 0,18,19
 1560 434 1560 434 1361 216 c 0,20,21
 1148 -20 1148 -20 830 -20 c 0,0,1
463 317 m 1,22,23
 617 160 617 160 830 160 c 0,24,25
 1054 160 1054 160 1213 334 c 0,26,27
 1360 495 1360 495 1360 755 c 0,28,29
 1360 968 1360 968 1261 1115 c 1,30,-1
 463 317 l 1,22,23
399 395 m 1,31,-1
 1197 1193 l 1,32,33
 1043 1350 1043 1350 830 1350 c 0,34,35
 606 1350 606 1350 447 1176 c 0,36,37
 300 1015 300 1015 300 755 c 0,38,39
 300 542 300 542 399 395 c 1,31,-1
EndSplineSet
Validated: 1
EndChar

StartChar: divide
Encoding: 247 247 130
Width: 1133
GlyphClass: 2
Flags: W
HStem: 181 264<468.191 649.809> 655 180<150 983> 1024 264<483.191 664.809>
VStem: 429 260<220.707 405.293> 444 260<1063.71 1248.29>
LayerCount: 2
Fore
SplineSet
150 835 m 1,0,-1
 983 835 l 1,1,-1
 983 655 l 1,2,-1
 150 655 l 1,3,-1
 150 835 l 1,0,-1
429 313 m 128,-1,5
 429 368 429 368 467 406.5 c 128,-1,6
 505 445 505 445 559 445 c 128,-1,7
 613 445 613 445 651 406.5 c 128,-1,8
 689 368 689 368 689 313 c 128,-1,9
 689 258 689 258 651 219.5 c 128,-1,10
 613 181 613 181 559 181 c 128,-1,11
 505 181 505 181 467 219.5 c 128,-1,4
 429 258 429 258 429 313 c 128,-1,5
444 1156 m 128,-1,13
 444 1211 444 1211 482 1249.5 c 128,-1,14
 520 1288 520 1288 574 1288 c 128,-1,15
 628 1288 628 1288 666 1249.5 c 128,-1,16
 704 1211 704 1211 704 1156 c 128,-1,17
 704 1101 704 1101 666 1062.5 c 128,-1,18
 628 1024 628 1024 574 1024 c 128,-1,19
 520 1024 520 1024 482 1062.5 c 128,-1,12
 444 1101 444 1101 444 1156 c 128,-1,13
EndSplineSet
Validated: 1
EndChar

StartChar: oslash
Encoding: 248 248 131
Width: 1296
GlyphClass: 2
Flags: W
HStem: -20 160<472.391 822.761> -2 21G<147 186.831> 960 160<473.239 823.609> 1082 20G<1109.17 1149>
VStem: 100 180<341.184 754.938> 1016 180<345.062 758.816>
DStem2: 216 188 284 116 0.707107 0.707107<-168.999 0.716774 176.07 946.816 1122.17 1291.88>
LayerCount: 2
Fore
SplineSet
648 140 m 0,0,1
 806 140 806 140 911 254 c 128,-1,2
 1016 368 1016 368 1016 550 c 0,3,4
 1016 688 1016 688 956 787 c 1,5,-1
 404 235 l 1,6,7
 504 140 504 140 648 140 c 0,0,1
1080 912 m 1,8,9
 1196 765 1196 765 1196 550 c 0,10,11
 1196 286 1196 286 1021 124 c 0,12,13
 866 -20 866 -20 648 -20 c 0,14,15
 436 -20 436 -20 284 116 c 1,16,-1
 167 -2 l 1,17,-1
 96 69 l 1,18,-1
 216 188 l 1,19,20
 100 335 100 335 100 550 c 0,21,22
 100 814 100 814 275 976 c 0,23,24
 430 1120 430 1120 648 1120 c 0,25,26
 860 1120 860 1120 1012 984 c 1,27,-1
 1129 1102 l 1,28,-1
 1200 1031 l 1,29,-1
 1080 912 l 1,8,9
340 313 m 1,30,-1
 892 865 l 1,31,32
 792 960 792 960 648 960 c 0,33,34
 490 960 490 960 385 846 c 128,-1,35
 280 732 280 732 280 550 c 0,36,37
 280 412 280 412 340 313 c 1,30,-1
EndSplineSet
Validated: 1
EndChar

StartChar: florin
Encoding: 402 402 132
Width: 740
GlyphClass: 2
Flags: W
HStem: -430 21G<20 79> 940 160<424.453 730> 1370 160<485.833 730>
VStem: 200 180<-121.286 892.48 1160 1276.26>
LayerCount: 2
Fore
SplineSet
380 97 m 2,0,1
 380 -174 380 -174 229 -312 c 0,2,3
 138 -396 138 -396 20 -430 c 1,4,-1
 20 -253 l 1,5,6
 70 -230 70 -230 110 -186 c 0,7,8
 200 -92 200 -92 200 97 c 2,9,10
 200 760 l 2,11,12
 200 1100 200 1100 540 1100 c 2,13,-1
 730 1100 l 25,14,-1
 730 940 l 25,15,-1
 540 940 l 18,16,17
 380 940 380 940 380 760 c 2,18,-1
 380 97 l 2,0,1
200 1160 m 1,19,20
 200 1530 200 1530 730 1530 c 1,21,-1
 730 1370 l 1,22,23
 380 1370 380 1370 380 1160 c 1,24,-1
 200 1160 l 1,19,20
EndSplineSet
Validated: 1
EndChar

StartChar: endash
Encoding: 8211 8211 133
Width: 1133
GlyphClass: 2
Flags: W
HStem: 655 180<150 983>
LayerCount: 2
Fore
SplineSet
150 835 m 1,0,-1
 983 835 l 1,1,-1
 983 655 l 1,2,-1
 150 655 l 1,3,-1
 150 835 l 1,0,-1
EndSplineSet
Validated: 1
EndChar

StartChar: emdash
Encoding: 8212 8212 134
Width: 1633
GlyphClass: 2
Flags: W
HStem: 655 180<150 1483>
LayerCount: 2
Fore
SplineSet
150 835 m 1,0,-1
 1483 835 l 1,1,-1
 1483 655 l 1,2,-1
 150 655 l 1,3,-1
 150 835 l 1,0,-1
EndSplineSet
Validated: 19457
EndChar

StartChar: afii00208
Encoding: 8213 8213 135
Width: 1633
GlyphClass: 2
Flags: W
HStem: 655 180<150 1483>
LayerCount: 2
Fore
SplineSet
150 835 m 1,0,-1
 1483 835 l 1,1,-1
 1483 655 l 1,2,-1
 150 655 l 1,3,-1
 150 835 l 1,0,-1
EndSplineSet
Validated: 19457
EndChar

StartChar: quoteleft
Encoding: 8216 8216 136
Width: 369
GlyphClass: 2
Flags: W
HStem: 990 560
VStem: 50 142<1172.73 1391.78>
LayerCount: 2
Fore
SplineSet
204 1550 m 1,0,1
 288 1440 l 1,2,3
 192 1369 192 1369 192 1282 c 0,4,5
 192 1180 192 1180 319 1106 c 1,6,-1
 240 990 l 1,7,8
 50 1110 50 1110 50 1282 c 0,9,10
 50 1436 50 1436 204 1550 c 1,0,1
EndSplineSet
Validated: 1
EndChar

StartChar: quoteright
Encoding: 8217 8217 137
Width: 369
GlyphClass: 2
Flags: W
HStem: 990 560
VStem: 177 142<1172.73 1391.78>
LayerCount: 2
Fore
SplineSet
165 1550 m 1,0,1
 319 1436 319 1436 319 1282 c 0,2,3
 319 1110 319 1110 129 990 c 1,4,-1
 50 1106 l 1,5,6
 177 1180 177 1180 177 1282 c 0,7,8
 177 1369 177 1369 81 1440 c 1,9,-1
 165 1550 l 1,0,1
EndSplineSet
Validated: 1
EndChar

StartChar: quotesinglbase
Encoding: 8218 8218 138
Width: 369
GlyphClass: 2
Flags: W
HStem: -292 560
VStem: 177 142<-109.265 109.779>
LayerCount: 2
Fore
SplineSet
165 268 m 1,0,1
 319 154 319 154 319 0 c 0,2,3
 319 -172 319 -172 129 -292 c 1,4,-1
 50 -176 l 1,5,6
 177 -102 177 -102 177 0 c 0,7,8
 177 87 177 87 81 158 c 1,9,-1
 165 268 l 1,0,1
EndSplineSet
Validated: 1
EndChar

StartChar: quotereversed
Encoding: 8219 8219 139
Width: 369
GlyphClass: 2
Flags: W
HStem: 990 560
VStem: 50 142<1172.73 1391.78>
LayerCount: 2
Fore
SplineSet
204 1550 m 1,0,1
 288 1440 l 1,2,3
 192 1369 192 1369 192 1282 c 0,4,5
 192 1180 192 1180 319 1106 c 1,6,-1
 240 990 l 1,7,8
 50 1110 50 1110 50 1282 c 0,9,10
 50 1436 50 1436 204 1550 c 1,0,1
EndSplineSet
Validated: 1
EndChar

StartChar: quotedblleft
Encoding: 8220 8220 140
Width: 650
GlyphClass: 2
Flags: W
HStem: 990 560
VStem: 50 142<1172.73 1391.78> 331 142<1172.73 1391.78>
LayerCount: 2
Fore
SplineSet
204 1550 m 1,0,1
 288 1440 l 1,2,3
 192 1369 192 1369 192 1282 c 0,4,5
 192 1180 192 1180 319 1106 c 1,6,-1
 240 990 l 1,7,8
 50 1110 50 1110 50 1282 c 0,9,10
 50 1436 50 1436 204 1550 c 1,0,1
485 1550 m 1,11,-1
 569 1440 l 1,12,13
 473 1369 473 1369 473 1282 c 0,14,15
 473 1180 473 1180 600 1106 c 1,16,-1
 521 990 l 1,17,18
 331 1110 331 1110 331 1282 c 0,19,20
 331 1436 331 1436 485 1550 c 1,11,-1
EndSplineSet
Validated: 1
EndChar

StartChar: quotedblright
Encoding: 8221 8221 141
Width: 650
GlyphClass: 2
Flags: W
HStem: 990 560
VStem: 177 142<1172.73 1391.78> 458 142<1172.73 1391.78>
LayerCount: 2
Fore
SplineSet
446 1550 m 1,0,1
 600 1436 600 1436 600 1282 c 0,2,3
 600 1110 600 1110 410 990 c 1,4,-1
 331 1106 l 1,5,6
 458 1180 458 1180 458 1282 c 0,7,8
 458 1369 458 1369 362 1440 c 1,9,-1
 446 1550 l 1,0,1
165 1550 m 1,10,11
 319 1436 319 1436 319 1282 c 0,12,13
 319 1110 319 1110 129 990 c 1,14,-1
 50 1106 l 1,15,16
 177 1180 177 1180 177 1282 c 0,17,18
 177 1369 177 1369 81 1440 c 1,19,-1
 165 1550 l 1,10,11
EndSplineSet
Validated: 1
EndChar

StartChar: quotedblbase
Encoding: 8222 8222 142
Width: 650
GlyphClass: 2
Flags: W
HStem: -292 560
VStem: 177 142<-109.265 109.779> 458 142<-109.265 109.779>
LayerCount: 2
Fore
SplineSet
446 268 m 1,0,1
 600 154 600 154 600 0 c 0,2,3
 600 -172 600 -172 410 -292 c 1,4,-1
 331 -176 l 1,5,6
 458 -102 458 -102 458 0 c 0,7,8
 458 87 458 87 362 158 c 1,9,-1
 446 268 l 1,0,1
165 268 m 1,10,11
 319 154 319 154 319 0 c 0,12,13
 319 -172 319 -172 129 -292 c 1,14,-1
 50 -176 l 1,15,16
 177 -102 177 -102 177 0 c 0,17,18
 177 87 177 87 81 158 c 1,19,-1
 165 268 l 1,10,11
EndSplineSet
Validated: 1
EndChar

StartChar: dagger
Encoding: 8224 8224 143
Width: 1114
GlyphClass: 2
Flags: W
HStem: 0 21G<467 647> 1024 160<150 467 647 964> 1490 20G<467 647>
VStem: 467 180<0 1024 1184 1510>
LayerCount: 2
Fore
SplineSet
467 0 m 1,0,-1
 467 1024 l 1,1,-1
 150 1024 l 1,2,-1
 150 1184 l 1,3,-1
 467 1184 l 1,4,-1
 467 1510 l 1,5,-1
 647 1510 l 1,6,-1
 647 1184 l 1,7,-1
 964 1184 l 1,8,-1
 964 1024 l 1,9,-1
 647 1024 l 1,10,-1
 647 0 l 1,11,-1
 467 0 l 1,0,-1
EndSplineSet
Validated: 1
EndChar

StartChar: daggerdbl
Encoding: 8225 8225 144
Width: 1114
GlyphClass: 2
Flags: W
HStem: 0 21G<467 647> 326 160<150 467 647 964> 1024 160<150 467 647 964> 1490 20G<467 647>
VStem: 467 180<0 326 486 1024 1184 1510>
LayerCount: 2
Fore
SplineSet
467 0 m 1,0,-1
 467 326 l 1,1,-1
 150 326 l 1,2,-1
 150 486 l 1,3,-1
 467 486 l 1,4,-1
 467 1024 l 1,5,-1
 150 1024 l 1,6,-1
 150 1184 l 1,7,-1
 467 1184 l 1,8,-1
 467 1510 l 1,9,-1
 647 1510 l 1,10,-1
 647 1184 l 1,11,-1
 964 1184 l 1,12,-1
 964 1024 l 1,13,-1
 647 1024 l 1,14,-1
 647 486 l 1,15,-1
 964 486 l 1,16,-1
 964 326 l 1,17,-1
 647 326 l 1,18,-1
 647 0 l 1,19,-1
 467 0 l 1,0,-1
EndSplineSet
Validated: 1
EndChar

StartChar: bullet
Encoding: 8226 8226 145
Width: 900
GlyphClass: 2
Flags: W
HStem: 437 625<296.516 603.484>
VStem: 150 600<586.886 913.114>
LayerCount: 2
Fore
SplineSet
453 1062 m 0,0,1
 575 1062 575 1062 662 971 c 0,2,3
 750 879 750 879 750 750 c 128,-1,4
 750 621 750 621 662 529 c 128,-1,5
 574 437 574 437 450 437 c 256,6,7
 326 437 326 437 238 529 c 128,-1,8
 150 621 150 621 150 750 c 128,-1,9
 150 879 150 879 238 971 c 0,10,11
 325 1062 325 1062 453 1062 c 0,0,1
EndSplineSet
Validated: 1
EndChar

StartChar: ellipsis
Encoding: 8230 8230 146
Width: 1190
GlyphClass: 2
Flags: W
HStem: -20 264<89.1914 270.809 505.191 686.809 919.191 1100.81>
VStem: 50 260<19.7072 204.293> 466 260<19.7072 204.293> 880 260<19.7072 204.293>
LayerCount: 2
Fore
SplineSet
880 112 m 128,-1,1
 880 167 880 167 918 205.5 c 128,-1,2
 956 244 956 244 1010 244 c 128,-1,3
 1064 244 1064 244 1102 205.5 c 128,-1,4
 1140 167 1140 167 1140 112 c 128,-1,5
 1140 57 1140 57 1102 18.5 c 128,-1,6
 1064 -20 1064 -20 1010 -20 c 128,-1,7
 956 -20 956 -20 918 18.5 c 128,-1,0
 880 57 880 57 880 112 c 128,-1,1
466 112 m 128,-1,9
 466 167 466 167 504 205.5 c 128,-1,10
 542 244 542 244 596 244 c 128,-1,11
 650 244 650 244 688 205.5 c 128,-1,12
 726 167 726 167 726 112 c 128,-1,13
 726 57 726 57 688 18.5 c 128,-1,14
 650 -20 650 -20 596 -20 c 128,-1,15
 542 -20 542 -20 504 18.5 c 128,-1,8
 466 57 466 57 466 112 c 128,-1,9
50 112 m 128,-1,17
 50 167 50 167 88 205.5 c 128,-1,18
 126 244 126 244 180 244 c 128,-1,19
 234 244 234 244 272 205.5 c 128,-1,20
 310 167 310 167 310 112 c 128,-1,21
 310 57 310 57 272 18.5 c 128,-1,22
 234 -20 234 -20 180 -20 c 128,-1,23
 126 -20 126 -20 88 18.5 c 128,-1,16
 50 57 50 57 50 112 c 128,-1,17
EndSplineSet
Validated: 1
EndChar

StartChar: perthousand
Encoding: 8240 8240 147
Width: 2218
GlyphClass: 2
Flags: W
HStem: -20 157<1017.23 1226.8 1663.23 1872.8> 448 157<1017.37 1225.84 1663.37 1871.84> 905 157<345.229 554.802> 1373 157<345.368 553.836>
VStem: 150 150<1109.07 1326.92> 600 150<1109.07 1326.93> 822 150<184.066 401.918> 1272 150<184.066 401.934> 1468 150<184.066 401.918> 1918 150<184.066 401.934>
DStem2: 180 87 324 -20 0.596529 0.802592<0.0227725 1798.22>
LayerCount: 2
Fore
SplineSet
180 87 m 1,0,-1
 1253 1530 l 1,1,-1
 1398 1425 l 1,2,-1
 324 -20 l 1,3,-1
 180 87 l 1,0,-1
1662 403 m 0,4,5
 1618 356 1618 356 1618 293 c 0,6,7
 1618 229 1618 229 1662 183 c 0,8,9
 1708 137 1708 137 1768 137 c 256,10,11
 1830 137 1830 137 1874 183 c 128,-1,12
 1918 229 1918 229 1918 293 c 128,-1,13
 1918 357 1918 357 1874 403 c 0,14,15
 1830 448 1830 448 1769 448 c 0,16,17
 1704 448 1704 448 1662 403 c 0,4,5
1016 403 m 0,18,19
 972 356 972 356 972 293 c 0,20,21
 972 229 972 229 1016 183 c 0,22,23
 1062 137 1062 137 1122 137 c 256,24,25
 1184 137 1184 137 1228 183 c 128,-1,26
 1272 229 1272 229 1272 293 c 128,-1,27
 1272 357 1272 357 1228 403 c 0,28,29
 1184 448 1184 448 1123 448 c 0,30,31
 1058 448 1058 448 1016 403 c 0,18,19
344 1328 m 0,32,33
 300 1281 300 1281 300 1218 c 0,34,35
 300 1154 300 1154 344 1108 c 0,36,37
 390 1062 390 1062 450 1062 c 256,38,39
 512 1062 512 1062 556 1108 c 128,-1,40
 600 1154 600 1154 600 1218 c 128,-1,41
 600 1282 600 1282 556 1328 c 0,42,43
 512 1373 512 1373 451 1373 c 0,44,45
 386 1373 386 1373 344 1328 c 0,32,33
1771 605 m 0,46,47
 1893 605 1893 605 1980 514 c 0,48,49
 2068 422 2068 422 2068 293 c 128,-1,50
 2068 164 2068 164 1980 72 c 128,-1,51
 1892 -20 1892 -20 1768 -20 c 256,52,53
 1644 -20 1644 -20 1556 72 c 128,-1,54
 1468 164 1468 164 1468 293 c 128,-1,55
 1468 422 1468 422 1556 514 c 0,56,57
 1643 605 1643 605 1771 605 c 0,46,47
1125 605 m 0,58,59
 1247 605 1247 605 1334 514 c 0,60,61
 1422 422 1422 422 1422 293 c 128,-1,62
 1422 164 1422 164 1334 72 c 128,-1,63
 1246 -20 1246 -20 1122 -20 c 256,64,65
 998 -20 998 -20 910 72 c 128,-1,66
 822 164 822 164 822 293 c 128,-1,67
 822 422 822 422 910 514 c 0,68,69
 997 605 997 605 1125 605 c 0,58,59
453 1530 m 0,70,71
 575 1530 575 1530 662 1439 c 0,72,73
 750 1347 750 1347 750 1218 c 128,-1,74
 750 1089 750 1089 662 997 c 128,-1,75
 574 905 574 905 450 905 c 256,76,77
 326 905 326 905 238 997 c 128,-1,78
 150 1089 150 1089 150 1218 c 128,-1,79
 150 1347 150 1347 238 1439 c 0,80,81
 325 1530 325 1530 453 1530 c 0,70,71
EndSplineSet
Validated: 1
EndChar

StartChar: minute
Encoding: 8242 8242 148
Width: 421
GlyphClass: 2
Flags: W
HStem: 1011 519
VStem: 50 321
DStem2: 50 1074 212 1011 0.328601 0.944469<0 477.602>
LayerCount: 2
Fore
SplineSet
209 1530 m 1,0,-1
 371 1468 l 1,1,-1
 212 1011 l 1,2,-1
 50 1074 l 1,3,-1
 209 1530 l 1,0,-1
EndSplineSet
Validated: 1
EndChar

StartChar: second
Encoding: 8243 8243 149
Width: 745
GlyphClass: 2
Flags: W
HStem: 1011 519
VStem: 50 645
DStem2: 50 1074 212 1011 0.328601 0.944469<0 477.602> 374 1074 536 1011 0.328601 0.944469<0 477.602>
LayerCount: 2
Fore
SplineSet
533 1530 m 1,0,-1
 695 1468 l 1,1,-1
 536 1011 l 1,2,-1
 374 1074 l 1,3,-1
 533 1530 l 1,0,-1
209 1530 m 1,4,-1
 371 1468 l 1,5,-1
 212 1011 l 1,6,-1
 50 1074 l 1,7,-1
 209 1530 l 1,4,-1
EndSplineSet
Validated: 1
EndChar

StartChar: guilsinglleft
Encoding: 8249 8249 150
Width: 829
GlyphClass: 2
Flags: W
VStem: 150 209<642.5 851.5>
DStem2: 359 747 150 747 0.642822 -0.766016<0 498.321> 150 747 359 747 0.642822 0.766016<134.35 632.671>
LayerCount: 2
Fore
SplineSet
557 1232 m 1,0,-1
 679 1129 l 1,1,-1
 359 747 l 1,2,-1
 679 365 l 1,3,-1
 557 262 l 1,4,-1
 150 747 l 1,5,-1
 557 1232 l 1,0,-1
EndSplineSet
Validated: 1
EndChar

StartChar: guilsinglright
Encoding: 8250 8250 151
Width: 829
GlyphClass: 2
Flags: W
VStem: 470 209<642.5 851.5>
DStem2: 272 1232 150 1129 0.642822 -0.766016<0.475404 498.796> 150 365 272 262 0.642822 0.766016<0 498.321>
LayerCount: 2
Fore
SplineSet
272 1232 m 1,0,-1
 679 747 l 1,1,-1
 272 262 l 1,2,-1
 150 365 l 1,3,-1
 470 747 l 1,4,-1
 150 1129 l 1,5,-1
 272 1232 l 1,0,-1
EndSplineSet
Validated: 1
EndChar

StartChar: fraction
Encoding: 8260 8260 152
Width: 1015
GlyphClass: 2
Flags: W
DStem2: 10 -116 139 -180 0.431985 0.901881<0 2002.46>
LayerCount: 2
Fore
SplineSet
10 -116 m 1,0,-1
 875 1690 l 1,1,-1
 1005 1628 l 1,2,-1
 139 -180 l 1,3,-1
 10 -116 l 1,0,-1
EndSplineSet
Validated: 1
EndChar

StartChar: Euro
Encoding: 8364 8364 153
Width: 1612
GlyphClass: 2
Flags: W
HStem: -20 180<707.724 1152.51> 596 104<100 201 415 932> 810 104<100 201 415 932> 1350 180<707.724 1152.51>
VStem: 200 200<700.844 809.156> 213 202<462.094 596 700 754.125 755.875 810 914 1047.91>
LayerCount: 2
Fore
SplineSet
930 -20 m 0,0,1
 598 -20 598 -20 398 206 c 0,2,3
 250 373 250 373 213 596 c 1,4,-1
 100 596 l 1,5,-1
 100 700 l 1,6,-1
 201 700 l 1,7,8
 200 727 200 727 200 755 c 128,-1,9
 200 783 200 783 201 810 c 1,10,-1
 100 810 l 1,11,-1
 100 914 l 1,12,-1
 213 914 l 1,13,14
 250 1137 250 1137 398 1304 c 0,15,16
 598 1530 598 1530 930 1530 c 0,17,18
 1263 1530 1263 1530 1462 1304 c 1,19,-1
 1314 1186 l 1,20,21
 1172 1350 1172 1350 930 1350 c 128,-1,22
 688 1350 688 1350 546 1186 c 0,23,24
 447 1072 447 1072 415 914 c 1,25,-1
 932 914 l 1,26,-1
 932 810 l 1,27,-1
 402 810 l 1,28,29
 400 783 400 783 400 755 c 128,-1,30
 400 727 400 727 402 700 c 1,31,-1
 932 700 l 1,32,-1
 932 596 l 1,33,-1
 415 596 l 1,34,35
 447 438 447 438 546 324 c 0,36,37
 688 160 688 160 930 160 c 128,-1,38
 1172 160 1172 160 1314 324 c 1,39,-1
 1462 206 l 1,40,41
 1263 -20 1263 -20 930 -20 c 0,0,1
EndSplineSet
Validated: 1
EndChar

StartChar: afii61248
Encoding: 8453 8453 154
Width: 2108
GlyphClass: 2
Flags: W
HStem: -20 144<1414.78 1705.67> 630 145<1414.3 1707.81> 735 144<399.308 688.113> 1384 146<398.407 691.357>
VStem: 150 153<981.348 1284.48> 1162 153<227.077 529.2> 1805 153<226.989 528.877>
DStem2: 424 87 568 -20 0.596529 0.802592<0.0227725 1798.22>
LayerCount: 2
Fore
SplineSet
424 87 m 1,0,-1
 1497 1530 l 1,1,-1
 1642 1425 l 1,2,-1
 568 -20 l 1,3,-1
 424 87 l 1,0,-1
1560 -20 m 0,4,5
 1381 -20 1381 -20 1271 99 c 0,6,7
 1162 218 1162 218 1162 377 c 0,8,9
 1162 540 1162 540 1274 657.5 c 128,-1,10
 1386 775 1386 775 1561 775 c 0,11,12
 1732 775 1732 775 1845 657.5 c 128,-1,13
 1958 540 1958 540 1958 377 c 0,14,15
 1958 217 1958 217 1849 99 c 0,16,17
 1740 -20 1740 -20 1560 -20 c 0,4,5
1561 124 m 0,18,19
 1672 124 1672 124 1735 194 c 0,20,21
 1805 271 1805 271 1805 377 c 0,22,23
 1805 486 1805 486 1735 561 c 0,24,25
 1671 630 1671 630 1560 630 c 0,26,27
 1450 630 1450 630 1385 561 c 0,28,29
 1315 488 1315 488 1315 377 c 0,30,31
 1315 270 1315 270 1385 194 c 0,32,33
 1449 124 1449 124 1561 124 c 0,18,19
547 1530 m 0,34,35
 721 1530 721 1530 853 1390 c 1,36,-1
 742 1293 l 1,37,38
 662 1384 662 1384 548 1384 c 0,39,40
 435 1384 435 1384 372 1316 c 0,41,42
 303 1242 303 1242 303 1132 c 0,43,44
 303 1024 303 1024 372 948 c 0,45,46
 435 879 435 879 541 879 c 0,47,48
 662 879 662 879 741 970 c 1,49,-1
 857 878 l 1,50,51
 728 735 728 735 548 735 c 128,-1,52
 368 735 368 735 258 854 c 0,53,54
 150 972 150 972 150 1132 c 0,55,56
 150 1297 150 1297 263 1412 c 0,57,58
 376 1529 376 1529 547 1530 c 0,34,35
EndSplineSet
Validated: 1
EndChar

StartChar: afii61289
Encoding: 8467 8467 155
Width: 958
GlyphClass: 2
Flags: W
HStem: -20 136<458.002 569.961> 0 21G<50 263> 1500 20G<627 694>
VStem: 232 155<466 794.977> 655 153<1042.58 1356.69>
LayerCount: 2
Fore
SplineSet
387 466 m 1,0,1
 498 708 498 708 554 860 c 0,2,3
 655 1134 655 1134 655 1359 c 1,4,5
 587 1266 587 1266 494 1004 c 0,6,7
 387 704 387 704 387 466 c 1,0,1
50 0 m 1,8,9
 161 144 161 144 242 292 c 1,10,11
 232 362 232 362 232 443 c 0,12,13
 232 590 232 590 261 732 c 0,14,15
 369 1246 369 1246 517 1434 c 0,16,17
 585 1520 585 1520 669 1520 c 0,18,19
 719 1520 719 1520 759 1488 c 0,20,21
 808 1449 808 1449 808 1318 c 0,22,23
 808 1226 808 1226 778 1072 c 0,24,25
 708 722 708 722 422 271 c 1,26,27
 454 116 454 116 511 116 c 0,28,29
 530 116 530 116 553 140 c 0,30,31
 584 172 584 172 616 228 c 1,32,-1
 792 228 l 1,33,34
 715 100 715 100 650.5 40 c 128,-1,35
 586 -20 586 -20 502 -20 c 0,36,37
 382 -20 382 -20 305 90 c 1,38,-1
 251 0 l 1,39,-1
 50 0 l 1,8,9
EndSplineSet
Validated: 1
EndChar

StartChar: trademark
Encoding: 8482 8482 156
Width: 1954
GlyphClass: 2
Flags: W
HStem: 1360 150<150 393 552.352 772 1022.35 1535.65>
VStem: 150 243<1367 1510> 398 153<688 1363.03> 754 160<896.255 1249.48> 1199 160<689 1284> 1644 160<896.255 1249.48>
LayerCount: 2
Fore
SplineSet
1130 689 m 1,0,1
 934 689 l 1,2,3
 863 752 863 752 827 811 c 0,4,5
 754 931 754 931 754 1082 c 0,6,7
 754 1258 754 1258 861 1375 c 0,8,9
 985 1510 985 1510 1149 1510 c 2,10,-1
 1409 1510 l 2,11,12
 1573 1510 1573 1510 1697 1375 c 0,13,14
 1804 1258 1804 1258 1804 1082 c 0,15,16
 1804 931 1804 931 1731 811 c 0,17,18
 1695 752 1695 752 1624 689 c 1,19,-1
 1428 689 l 1,20,21
 1536 773 1536 773 1590 876 c 128,-1,22
 1644 979 1644 979 1644 1086 c 0,23,24
 1644 1206 1644 1206 1579 1277 c 0,25,26
 1503 1360 1503 1360 1409 1360 c 2,27,-1
 1149 1360 l 2,28,29
 1057 1360 1057 1360 979 1277 c 0,30,31
 914 1206 914 1206 914 1086 c 0,32,33
 914 979 914 979 968 876 c 128,-1,34
 1022 773 1022 773 1130 689 c 1,0,1
1359 689 m 1,35,-1
 1199 689 l 1,36,-1
 1199 1284 l 1,37,-1
 1359 1284 l 1,38,-1
 1359 689 l 1,35,-1
150 1510 m 1,39,-1
 393 1510 l 1,40,-1
 393 1367 l 1,41,-1
 150 1367 l 1,42,-1
 150 1510 l 1,39,-1
398 688 m 1,43,-1
 398 1311 l 2,44,45
 398 1510 398 1510 607 1510 c 2,46,-1
 772 1510 l 1,47,-1
 772 1367 l 1,48,-1
 607 1367 l 2,49,50
 551 1367 551 1367 551 1311 c 2,51,-1
 551 688 l 1,52,-1
 398 688 l 1,43,-1
EndSplineSet
Validated: 1
EndChar

StartChar: uni2126
Encoding: 8486 8486 157
Width: 1806
GlyphClass: 2
Flags: W
HStem: 0 180<50 490 661.539 733 1074 1148.51 1317 1756> 1350 180<696.918 1109.31>
VStem: 173 200<500.036 1008.88> 1434 199<503.416 1008.64>
LayerCount: 2
Fore
SplineSet
50 0 m 1,0,-1
 50 180 l 1,1,-1
 490 180 l 1,2,3
 431 195 431 195 387 234 c 0,4,5
 173 422 173 422 173 755 c 0,6,7
 173 1077 173 1077 372 1294 c 0,8,9
 589 1530 589 1530 903 1530 c 0,10,11
 1218 1530 1218 1530 1434 1294 c 0,12,13
 1633 1077 1633 1077 1633 755 c 0,14,15
 1633 427 1633 427 1415 236 c 0,16,17
 1375 201 1375 201 1317 180 c 1,18,-1
 1756 180 l 1,19,-1
 1756 0 l 1,20,-1
 1074 0 l 1,21,-1
 1074 194 l 1,22,23
 1199 233 1199 233 1287 334 c 0,24,25
 1434 503 1434 503 1434 755 c 0,26,27
 1434 1014 1434 1014 1286 1176 c 0,28,29
 1127 1350 1127 1350 903 1350 c 128,-1,30
 679 1350 679 1350 520 1176 c 0,31,32
 373 1015 373 1015 373 755 c 128,-1,33
 373 495 373 495 520 334 c 24,34,35
 614 231 614 231 734 194 c 1,36,-1
 733 0 l 1,37,-1
 50 0 l 1,0,-1
EndSplineSet
Validated: 1
EndChar

StartChar: estimated
Encoding: 8494 8494 158
Width: 1258
GlyphClass: 2
Flags: W
HStem: 0 73<451.557 805.461> 565 74<331 927> 1057 73<452.165 800.247>
VStem: 100 231<322.452 565 639 808.838> 927 231<639 804.607>
LayerCount: 2
Fore
SplineSet
331 565 m 1,0,-1
 331 194 l 1,1,2
 451 73 451 73 629 73 c 0,3,4
 883 73 883 73 1024 319 c 1,5,-1
 1096 276 l 1,6,7
 976 103 976 103 864 51.5 c 128,-1,8
 752 0 752 0 629 0 c 0,9,10
 392 0 392 0 246 160 c 128,-1,11
 100 320 100 320 100 565 c 0,12,13
 100 812 100 812 247 971 c 128,-1,14
 394 1130 394 1130 629 1130 c 0,15,16
 843 1130 843 1130 995 988 c 128,-1,17
 1147 846 1147 846 1158 565 c 1,18,-1
 331 565 l 1,0,-1
927 639 m 1,19,-1
 927 936 l 1,20,21
 799 1057 799 1057 627 1057 c 0,22,23
 452 1057 452 1057 331 935 c 1,24,-1
 331 639 l 1,25,-1
 927 639 l 1,19,-1
EndSplineSet
Validated: 1
EndChar

StartChar: partialdiff
Encoding: 8706 8706 159
Width: 1285
GlyphClass: 2
Flags: W
HStem: -20 153<399.379 663.581> 870 140<547.102 824.163> 1325 152<492 830.231>
VStem: 150 188<198.966 602.91> 953 182<873.869 1171.56>
LayerCount: 2
Fore
SplineSet
420 1415 m 1,0,1
 554 1477 554 1477 703 1477 c 0,2,3
 1135 1477 1135 1477 1135 934 c 0,4,5
 1135 545 1135 545 966.5 262.5 c 128,-1,6
 798 -20 798 -20 512 -20 c 0,7,8
 150 -20 150 -20 150 375 c 0,9,10
 150 624 150 624 288 817 c 128,-1,11
 426 1010 426 1010 670 1010 c 0,12,13
 854 1010 854 1010 953 862 c 1,14,15
 953 1103 953 1103 898 1204 c 0,16,17
 832 1325 832 1325 678 1325 c 0,18,19
 547 1325 547 1325 420 1241 c 1,20,-1
 420 1415 l 1,0,1
920 680 m 1,21,22
 898 765 898 765 834.5 817.5 c 128,-1,23
 771 870 771 870 695 870 c 0,24,25
 535 870 535 870 436.5 710 c 128,-1,26
 338 550 338 550 338 369 c 0,27,28
 338 133 338 133 525 133 c 0,29,30
 663 133 663 133 772.5 286 c 128,-1,31
 882 439 882 439 920 680 c 1,21,22
EndSplineSet
Validated: 1
EndChar

StartChar: uni2206
Encoding: 8710 8710 160
Width: 1626
GlyphClass: 2
Flags: W
HStem: 0 180<294 1332> 1296 214<601 1025>
DStem2: 5 0 294 180 0.422064 0.906566<285.158 1515.94> 918 1510 813 1296 0.422064 -0.906566<149.688 1380.47>
LayerCount: 2
Fore
SplineSet
5 0 m 1,0,-1
 708 1510 l 1,1,-1
 918 1510 l 1,2,-1
 1621 0 l 1,3,-1
 5 0 l 1,0,-1
294 180 m 1,4,-1
 1332 180 l 1,5,-1
 813 1296 l 1,6,-1
 294 180 l 1,4,-1
EndSplineSet
Validated: 1
EndChar

StartChar: product
Encoding: 8719 8719 161
Width: 1549
GlyphClass: 2
Flags: W
HStem: 1330 180<400 1149>
VStem: 200 200<-410 1330> 1149 200<-410 1330>
LayerCount: 2
Fore
SplineSet
200 -410 m 1,0,-1
 200 1510 l 1,1,-1
 1349 1510 l 1,2,-1
 1349 -410 l 1,3,-1
 1149 -410 l 1,4,-1
 1149 1330 l 1,5,-1
 400 1330 l 1,6,-1
 400 -410 l 1,7,-1
 200 -410 l 1,0,-1
EndSplineSet
Validated: 1
EndChar

StartChar: summation
Encoding: 8721 8721 162
Width: 1324
GlyphClass: 2
Flags: W
HStem: -410 180<439 1174> 1330 180<406 1083>
DStem2: 406 1330 100 1510 0.446838 -0.894615<0 767.5> 138 -410 439 -230 0.412596 0.910914<288.156 1061.57>
LayerCount: 2
Fore
SplineSet
138 -410 m 1,0,-1
 576 557 l 1,1,-1
 100 1510 l 1,2,-1
 1083 1510 l 1,3,-1
 1083 1330 l 1,4,-1
 406 1330 l 1,5,-1
 804 556 l 1,6,-1
 439 -230 l 1,7,-1
 1174 -230 l 1,8,-1
 1174 -410 l 1,9,-1
 138 -410 l 1,0,-1
EndSplineSet
Validated: 1
EndChar

StartChar: minus
Encoding: 8722 8722 163
Width: 1133
GlyphClass: 2
Flags: W
HStem: 655 180<150 983>
LayerCount: 2
Fore
SplineSet
150 835 m 1,0,-1
 983 835 l 1,1,-1
 983 655 l 1,2,-1
 150 655 l 1,3,-1
 150 835 l 1,0,-1
EndSplineSet
Validated: 1
EndChar

StartChar: uni2215
Encoding: 8725 8725 164
Width: 1015
GlyphClass: 2
Flags: W
DStem2: 10 -116 139 -180 0.431985 0.901881<0 2002.46>
LayerCount: 2
Fore
SplineSet
10 -116 m 1,0,-1
 875 1690 l 1,1,-1
 1005 1628 l 1,2,-1
 139 -180 l 1,3,-1
 10 -116 l 1,0,-1
EndSplineSet
Validated: 1
EndChar

StartChar: uni2219
Encoding: 8729 8729 165
Width: 360
GlyphClass: 2
Flags: W
HStem: 624 264<89.1914 270.809>
VStem: 50 260<663.707 848.293>
LayerCount: 2
Fore
SplineSet
50 756 m 128,-1,1
 50 811 50 811 88 849.5 c 128,-1,2
 126 888 126 888 180 888 c 128,-1,3
 234 888 234 888 272 849.5 c 128,-1,4
 310 811 310 811 310 756 c 128,-1,5
 310 701 310 701 272 662.5 c 128,-1,6
 234 624 234 624 180 624 c 128,-1,7
 126 624 126 624 88 662.5 c 128,-1,0
 50 701 50 701 50 756 c 128,-1,1
EndSplineSet
Validated: 19457
EndChar

StartChar: radical
Encoding: 8730 8730 166
Width: 1367
GlyphClass: 2
Flags: W
HStem: 0 21G<472.354 635.402> 1350 160<1139.55 1317>
DStem2: 295 792 100 792 0.434431 -0.900705<0 571.136> 544 278 628 0 0.347079 0.937836<0 1198.62>
LayerCount: 2
Fore
SplineSet
482 0 m 1,0,-1
 100 792 l 1,1,-1
 295 792 l 1,2,-1
 544 278 l 1,3,-1
 871 1170 l 2,4,5
 996 1510 996 1510 1241 1510 c 2,6,-1
 1317 1510 l 1,7,-1
 1317 1350 l 1,8,-1
 1241 1350 l 2,9,10
 1128 1350 1128 1350 1061 1170 c 2,11,-1
 628 0 l 1,12,-1
 482 0 l 1,0,-1
EndSplineSet
Validated: 1
EndChar

StartChar: infinity
Encoding: 8734 8734 167
Width: 1692
GlyphClass: 2
Flags: W
HStem: 434 196<397.917 651.712 1033.01 1285.55> 1050 200<402.09 662.935 1034.68 1296.09>
VStem: 150 180<699.149 976.893> 1362 180<706.63 983.229>
LayerCount: 2
Fore
SplineSet
512 434 m 0,0,1
 354 434 354 434 252 550 c 128,-1,2
 150 666 150 666 150 840 c 0,3,4
 150 1008 150 1008 254 1126 c 0,5,6
 362 1250 362 1250 530 1250 c 0,7,8
 666 1250 666 1250 776 1154 c 0,9,10
 880 1064 880 1064 922 888 c 0,11,12
 956 748 956 748 1012 692 c 0,13,14
 1072 634 1072 634 1162 634 c 0,15,16
 1264 634 1264 634 1320 708 c 0,17,18
 1362 762 1362 762 1362 844 c 128,-1,19
 1362 926 1362 926 1322 978 c 0,20,21
 1264 1054 1264 1054 1178 1054 c 0,22,23
 1070 1054 1070 1054 990 966 c 1,24,-1
 990 1174 l 1,25,26
 1078 1250 1078 1250 1180 1250 c 0,27,28
 1338 1250 1338 1250 1440 1132 c 0,29,30
 1542 1016 1542 1016 1542 844 c 0,31,32
 1542 678 1542 678 1438 558 c 0,33,34
 1330 434 1330 434 1162 434 c 0,35,36
 1026 434 1026 434 916 528 c 0,37,38
 812 618 812 618 770 794 c 0,39,40
 736 934 736 934 680 990 c 0,41,42
 620 1050 620 1050 530 1050 c 0,43,44
 428 1050 428 1050 372 974 c 0,45,46
 330 920 330 920 330 840 c 0,47,48
 330 756 330 756 370 704 c 0,49,50
 428 630 428 630 514 630 c 0,51,52
 622 630 622 630 702 718 c 1,53,-1
 702 510 l 1,54,55
 614 434 614 434 512 434 c 0,0,1
EndSplineSet
Validated: 1
EndChar

StartChar: approxequal
Encoding: 8776 8776 168
Width: 1308
GlyphClass: 2
Flags: W
HStem: 338 189<768.026 941.052> 573 189<371.948 544.974> 743 189<763.026 936.052> 978 189<366.948 539.974>
DStem2: 642 1090 536 937 0.730083 -0.683358<-61.967 260.345> 647 685 541 532 0.730083 -0.683358<-61.967 260.345>
LayerCount: 2
Fore
SplineSet
155 462 m 1,0,1
 259 762 259 762 470 762 c 0,2,3
 565 762 565 762 647 685 c 2,4,-1
 772 568 l 2,5,6
 816 527 816 527 857 527 c 0,7,8
 951 527 951 527 1023 721 c 1,9,-1
 1158 638 l 1,10,11
 1054 338 1054 338 843 338 c 0,12,13
 748 338 748 338 666 415 c 2,14,-1
 541 532 l 2,15,16
 497 573 497 573 456 573 c 0,17,18
 362 573 362 573 290 379 c 1,19,-1
 155 462 l 1,0,1
150 867 m 1,20,21
 254 1167 254 1167 465 1167 c 0,22,23
 560 1167 560 1167 642 1090 c 2,24,-1
 767 973 l 2,25,26
 811 932 811 932 852 932 c 0,27,28
 946 932 946 932 1018 1126 c 1,29,-1
 1153 1043 l 1,30,31
 1049 743 1049 743 838 743 c 0,32,33
 743 743 743 743 661 820 c 2,34,-1
 536 937 l 2,35,36
 492 978 492 978 451 978 c 0,37,38
 357 978 357 978 285 784 c 1,39,-1
 150 867 l 1,20,21
EndSplineSet
Validated: 1
EndChar

StartChar: notequal
Encoding: 8800 8800 169
Width: 1133
GlyphClass: 2
Flags: W
HStem: 0 21G<216.261 268.52> 481 180<150 331 606 983> 829 180<150 515 790 983> 1491 20G<863.442 917.284>
DStem2: 114 69 258 0 0.466226 0.884666<6.09464 465.653 753.105 859.303 1146.75 1630.02>
LayerCount: 2
Fore
SplineSet
258 0 m 1,0,-1
 114 69 l 1,1,-1
 331 481 l 1,2,-1
 150 481 l 1,3,-1
 150 661 l 1,4,-1
 426 661 l 1,5,-1
 515 829 l 1,6,-1
 150 829 l 1,7,-1
 150 1009 l 1,8,-1
 609 1009 l 1,9,-1
 874 1511 l 1,10,-1
 1019 1444 l 1,11,-1
 790 1009 l 1,12,-1
 983 1009 l 1,13,-1
 983 829 l 1,14,-1
 695 829 l 1,15,-1
 606 661 l 1,16,-1
 983 661 l 1,17,-1
 983 481 l 1,18,-1
 511 481 l 1,19,-1
 258 0 l 1,0,-1
EndSplineSet
Validated: 1
EndChar

StartChar: lessequal
Encoding: 8804 8804 170
Width: 1183
GlyphClass: 2
Flags: W
HStem: 144 180<150 983>
DStem2: 150 967 325 876 0.855375 0.51801<102.552 827.764> 325 876 150 787 0.864938 -0.501878<0 718.059>
LayerCount: 2
Fore
SplineSet
150 324 m 1,0,-1
 983 324 l 1,1,-1
 983 144 l 1,2,-1
 150 144 l 1,3,-1
 150 324 l 1,0,-1
150 967 m 1,4,-1
 865 1400 l 1,5,-1
 953 1239 l 1,6,-1
 325 876 l 1,7,-1
 955 531 l 1,8,-1
 879 364 l 1,9,-1
 150 787 l 1,10,-1
 150 967 l 1,4,-1
EndSplineSet
Validated: 1
EndChar

StartChar: greaterequal
Encoding: 8805 8805 171
Width: 1183
GlyphClass: 2
Flags: W
HStem: 144 180<200 1033>
DStem2: 228 531 304 364 0.864938 0.501878<0 718.059> 318 1400 230 1239 0.855375 -0.51801<8.12666 733.34>
LayerCount: 2
Fore
SplineSet
1033 144 m 1,0,-1
 200 144 l 1,1,-1
 200 324 l 1,2,-1
 1033 324 l 1,3,-1
 1033 144 l 1,0,-1
318 1400 m 1,4,-1
 1033 967 l 1,5,-1
 1033 787 l 1,6,-1
 304 364 l 1,7,-1
 228 531 l 1,8,-1
 858 876 l 1,9,-1
 230 1239 l 1,10,-1
 318 1400 l 1,4,-1
EndSplineSet
Validated: 1
EndChar

StartChar: lozenge
Encoding: 9674 9674 172
Width: 1174
GlyphClass: 2
Flags: W
HStem: 0 21G<574.344 599.605> 1495 20G<574.979 599.067>
DStem2: 306 730 120 738 0.534725 -0.845026<0 520.432> 120 738 306 730 0.515144 0.857103<88.96 628.494> 587 1515 583 1193 0.516609 -0.856221<273.637 804.118> 595 297 587 0 0.533177 0.846004<0 525.946>
LayerCount: 2
Fore
SplineSet
583 1193 m 1,0,-1
 306 730 l 1,1,-1
 595 297 l 1,2,-1
 869 746 l 1,3,-1
 583 1193 l 1,0,-1
587 1515 m 1,4,-1
 1054 741 l 1,5,-1
 587 0 l 1,6,-1
 120 738 l 1,7,-1
 587 1515 l 1,4,-1
EndSplineSet
Validated: 1
EndChar

StartChar: Wgrave
Encoding: 7808 7808 173
Width: 2180
Flags: W
HStem: -20 180<623.918 952.402 1290 1504.73> 1490 20G<367 659 990 1190 1521 1813>
VStem: 100 200<501.113 1080.5> 990 200<197.539 1510> 1880 200<524.699 1080.5>
DStem2: 868 1909 774 1804 0.743294 -0.668965<0.371647 349.794>
CounterMasks: 1 38
LayerCount: 2
Fore
SplineSet
1290 -20 m 1,0,1
 1290 160 l 1,2,3
 1521 160 1521 160 1703 334 c 0,4,5
 1880 503 1880 503 1880 755 c 0,6,7
 1880 988 1880 988 1804 1170 c 0,8,9
 1717 1377 1717 1377 1521 1510 c 1,10,-1
 1759 1510 l 1,11,12
 1867 1415 1867 1415 1941 1294 c 0,13,14
 2080 1067 2080 1067 2080 755 c 0,15,16
 2080 446 2080 446 1851 216 c 0,17,18
 1619 -20 1619 -20 1290 -20 c 1,0,1
830 160 m 24,19,20
 990 160 990 160 990 320 c 2,21,-1
 990 1510 l 1,22,-1
 1190 1510 l 1,23,-1
 1190 320 l 2,24,25
 1190 -20 1190 -20 830 -20 c 24,26,27
 516 -20 516 -20 299 216 c 0,28,29
 100 434 100 434 100 755 c 0,30,31
 100 1067 100 1067 239 1294 c 0,32,33
 313 1415 313 1415 421 1510 c 1,34,-1
 659 1510 l 1,35,36
 463 1377 463 1377 376 1170 c 0,37,38
 300 988 300 988 300 755 c 0,39,40
 301 494 301 494 447 334 c 0,41,42
 606 160 606 160 830 160 c 24,19,20
868 1909 m 1,43,-1
 1128 1675 l 1,44,-1
 1034 1570 l 1,45,-1
 774 1804 l 1,46,-1
 868 1909 l 1,43,-1
EndSplineSet
Validated: 1
EndChar

StartChar: wgrave
Encoding: 7809 7809 174
Width: 1816
Flags: W
HStem: -20 160<489.158 778.049 1118 1319.04> 1080 20G<304.5 570 818 998 1246 1511.5> 1499 20G<698.095 738.222>
VStem: 100 180<343.744 784.064> 349 221<879 1100> 818 180<179.551 1100> 1246 221<879 1100> 1536 180<343.744 784.064>
DStem2: 716 1519 622 1414 0.743294 -0.668965<0.371647 349.794>
LayerCount: 2
Fore
SplineSet
1118 -20 m 1,0,-1
 1118 140 l 1,1,2
 1302 140 1302 140 1425 255 c 0,3,4
 1536 359 1536 359 1536 550 c 0,5,6
 1536 717 1536 717 1456 856 c 0,7,8
 1388 974 1388 974 1246 1100 c 1,9,-1
 1467 1100 l 1,10,11
 1556 1017 1556 1017 1624 901 c 0,12,13
 1716 744 1716 744 1716 550 c 0,14,15
 1716 281 1716 281 1535 120 c 0,16,17
 1378 -20 1378 -20 1118 -20 c 1,0,-1
663 -20 m 24,18,19
 438 -20 438 -20 281 120 c 0,20,21
 100 281 100 281 100 550 c 0,22,23
 100 744 100 744 192 901 c 0,24,25
 260 1017 260 1017 349 1100 c 1,26,-1
 570 1100 l 1,27,28
 428 974 428 974 360 856 c 0,29,30
 280 717 280 717 280 550 c 0,31,32
 280 359 280 359 391 255 c 0,33,34
 514 140 514 140 663 140 c 24,35,36
 818 140 818 140 818 320 c 2,37,-1
 818 1100 l 1,38,-1
 998 1100 l 1,39,-1
 998 320 l 2,40,41
 998 -20 998 -20 663 -20 c 24,18,19
716 1519 m 1,42,-1
 976 1285 l 1,43,-1
 882 1180 l 1,44,-1
 622 1414 l 1,45,-1
 716 1519 l 1,42,-1
EndSplineSet
Validated: 1
EndChar

StartChar: Wacute
Encoding: 7810 7810 175
Width: 2180
Flags: W
HStem: -20 180<623.918 952.402 1290 1504.73> 1490 20G<367 659 990 1190 1521 1813>
VStem: 100 200<501.113 1080.5> 990 200<197.539 1510> 1880 200<524.699 1080.5>
DStem2: 970 1675 1064 1570 0.743294 0.668965<0 349.423>
CounterMasks: 1 38
LayerCount: 2
Fore
SplineSet
1290 -20 m 1,0,1
 1290 160 l 1,2,3
 1521 160 1521 160 1703 334 c 0,4,5
 1880 503 1880 503 1880 755 c 0,6,7
 1880 988 1880 988 1804 1170 c 0,8,9
 1717 1377 1717 1377 1521 1510 c 1,10,-1
 1759 1510 l 1,11,12
 1867 1415 1867 1415 1941 1294 c 0,13,14
 2080 1067 2080 1067 2080 755 c 0,15,16
 2080 446 2080 446 1851 216 c 0,17,18
 1619 -20 1619 -20 1290 -20 c 1,0,1
830 160 m 24,19,20
 990 160 990 160 990 320 c 2,21,-1
 990 1510 l 1,22,-1
 1190 1510 l 1,23,-1
 1190 320 l 2,24,25
 1190 -20 1190 -20 830 -20 c 24,26,27
 516 -20 516 -20 299 216 c 0,28,29
 100 434 100 434 100 755 c 0,30,31
 100 1067 100 1067 239 1294 c 0,32,33
 313 1415 313 1415 421 1510 c 1,34,-1
 659 1510 l 1,35,36
 463 1377 463 1377 376 1170 c 0,37,38
 300 988 300 988 300 755 c 0,39,40
 301 494 301 494 447 334 c 0,41,42
 606 160 606 160 830 160 c 24,19,20
1230 1909 m 1,43,-1
 1324 1804 l 1,44,-1
 1064 1570 l 1,45,-1
 970 1675 l 1,46,-1
 1230 1909 l 1,43,-1
EndSplineSet
Validated: 1
EndChar

StartChar: wacute
Encoding: 7811 7811 176
Width: 1816
Flags: W
HStem: -20 160<489.158 778.049 1118 1319.04> 1080 20G<304.5 570 818 998 1246 1511.5> 1499 20G<993.778 1033.9>
VStem: 100 180<343.744 784.064> 349 221<879 1100> 818 180<179.551 1100> 1246 221<879 1100> 1536 180<343.744 784.064>
DStem2: 756 1285 850 1180 0.743294 0.668965<0 349.423>
LayerCount: 2
Fore
SplineSet
1118 -20 m 1,0,-1
 1118 140 l 1,1,2
 1302 140 1302 140 1425 255 c 0,3,4
 1536 359 1536 359 1536 550 c 0,5,6
 1536 717 1536 717 1456 856 c 0,7,8
 1388 974 1388 974 1246 1100 c 1,9,-1
 1467 1100 l 1,10,11
 1556 1017 1556 1017 1624 901 c 0,12,13
 1716 744 1716 744 1716 550 c 0,14,15
 1716 281 1716 281 1535 120 c 0,16,17
 1378 -20 1378 -20 1118 -20 c 1,0,-1
663 -20 m 24,18,19
 438 -20 438 -20 281 120 c 0,20,21
 100 281 100 281 100 550 c 0,22,23
 100 744 100 744 192 901 c 0,24,25
 260 1017 260 1017 349 1100 c 1,26,-1
 570 1100 l 1,27,28
 428 974 428 974 360 856 c 0,29,30
 280 717 280 717 280 550 c 0,31,32
 280 359 280 359 391 255 c 0,33,34
 514 140 514 140 663 140 c 24,35,36
 818 140 818 140 818 320 c 2,37,-1
 818 1100 l 1,38,-1
 998 1100 l 1,39,-1
 998 320 l 2,40,41
 998 -20 998 -20 663 -20 c 24,18,19
1016 1519 m 1,42,-1
 1110 1414 l 1,43,-1
 850 1180 l 1,44,-1
 756 1285 l 1,45,-1
 1016 1519 l 1,42,-1
EndSplineSet
Validated: 1
EndChar

StartChar: Wdieresis
Encoding: 7812 7812 177
Width: 2180
Flags: W
HStem: -20 180<623.918 952.402 1290 1504.73> 1490 20G<367 659 990 1190 1521 1813> 1590 224<875.003 1029 1175 1329>
VStem: 100 200<501.113 1080.5> 842 220<1623.52 1780.48> 990 200<197.539 1510> 1142 220<1623.52 1780.48> 1880 200<524.699 1080.5>
LayerCount: 2
Fore
SplineSet
1290 -20 m 1,0,1
 1290 160 l 1,2,3
 1521 160 1521 160 1703 334 c 0,4,5
 1880 503 1880 503 1880 755 c 0,6,7
 1880 988 1880 988 1804 1170 c 0,8,9
 1717 1377 1717 1377 1521 1510 c 1,10,-1
 1759 1510 l 1,11,12
 1867 1415 1867 1415 1941 1294 c 0,13,14
 2080 1067 2080 1067 2080 755 c 0,15,16
 2080 446 2080 446 1851 216 c 0,17,18
 1619 -20 1619 -20 1290 -20 c 1,0,1
830 160 m 24,19,20
 990 160 990 160 990 320 c 2,21,-1
 990 1510 l 1,22,-1
 1190 1510 l 1,23,-1
 1190 320 l 2,24,25
 1190 -20 1190 -20 830 -20 c 24,26,27
 516 -20 516 -20 299 216 c 0,28,29
 100 434 100 434 100 755 c 0,30,31
 100 1067 100 1067 239 1294 c 0,32,33
 313 1415 313 1415 421 1510 c 1,34,-1
 659 1510 l 1,35,36
 463 1377 463 1377 376 1170 c 0,37,38
 300 988 300 988 300 755 c 0,39,40
 301 494 301 494 447 334 c 0,41,42
 606 160 606 160 830 160 c 24,19,20
1142 1702 m 128,-1,44
 1142 1749 1142 1749 1174 1781.5 c 128,-1,45
 1206 1814 1206 1814 1252 1814 c 128,-1,46
 1298 1814 1298 1814 1330 1781.5 c 128,-1,47
 1362 1749 1362 1749 1362 1702 c 128,-1,48
 1362 1655 1362 1655 1330 1622.5 c 128,-1,49
 1298 1590 1298 1590 1252 1590 c 128,-1,50
 1206 1590 1206 1590 1174 1622.5 c 128,-1,43
 1142 1655 1142 1655 1142 1702 c 128,-1,44
842 1702 m 128,-1,52
 842 1749 842 1749 874 1781.5 c 128,-1,53
 906 1814 906 1814 952 1814 c 128,-1,54
 998 1814 998 1814 1030 1781.5 c 128,-1,55
 1062 1749 1062 1749 1062 1702 c 128,-1,56
 1062 1655 1062 1655 1030 1622.5 c 128,-1,57
 998 1590 998 1590 952 1590 c 128,-1,58
 906 1590 906 1590 874 1622.5 c 128,-1,51
 842 1655 842 1655 842 1702 c 128,-1,52
EndSplineSet
Validated: 1
EndChar

StartChar: wdieresis
Encoding: 7813 7813 178
Width: 1816
Flags: W
HStem: -20 160<489.158 778.049 1118 1319.04> 1080 20G<304.5 570 818 998 1246 1511.5> 1180 224<689.003 842.997 989.003 1143>
VStem: 100 180<343.744 784.064> 349 221<879 1100> 656 220<1213.52 1370.48> 818 180<179.551 1100> 956 220<1213.52 1370.48> 1246 221<879 1100> 1536 180<343.744 784.064>
LayerCount: 2
Fore
SplineSet
1118 -20 m 1,0,-1
 1118 140 l 1,1,2
 1302 140 1302 140 1425 255 c 0,3,4
 1536 359 1536 359 1536 550 c 0,5,6
 1536 717 1536 717 1456 856 c 0,7,8
 1388 974 1388 974 1246 1100 c 1,9,-1
 1467 1100 l 1,10,11
 1556 1017 1556 1017 1624 901 c 0,12,13
 1716 744 1716 744 1716 550 c 0,14,15
 1716 281 1716 281 1535 120 c 0,16,17
 1378 -20 1378 -20 1118 -20 c 1,0,-1
663 -20 m 24,18,19
 438 -20 438 -20 281 120 c 0,20,21
 100 281 100 281 100 550 c 0,22,23
 100 744 100 744 192 901 c 0,24,25
 260 1017 260 1017 349 1100 c 1,26,-1
 570 1100 l 1,27,28
 428 974 428 974 360 856 c 0,29,30
 280 717 280 717 280 550 c 0,31,32
 280 359 280 359 391 255 c 0,33,34
 514 140 514 140 663 140 c 24,35,36
 818 140 818 140 818 320 c 2,37,-1
 818 1100 l 1,38,-1
 998 1100 l 1,39,-1
 998 320 l 2,40,41
 998 -20 998 -20 663 -20 c 24,18,19
956 1292 m 128,-1,43
 956 1339 956 1339 988 1371.5 c 128,-1,44
 1020 1404 1020 1404 1066 1404 c 128,-1,45
 1112 1404 1112 1404 1144 1371.5 c 128,-1,46
 1176 1339 1176 1339 1176 1292 c 128,-1,47
 1176 1245 1176 1245 1144 1212.5 c 128,-1,48
 1112 1180 1112 1180 1066 1180 c 128,-1,49
 1020 1180 1020 1180 988 1212.5 c 128,-1,42
 956 1245 956 1245 956 1292 c 128,-1,43
656 1292 m 128,-1,51
 656 1339 656 1339 688 1371.5 c 128,-1,52
 720 1404 720 1404 766 1404 c 128,-1,53
 812 1404 812 1404 844 1371.5 c 128,-1,54
 876 1339 876 1339 876 1292 c 128,-1,55
 876 1245 876 1245 844 1212.5 c 128,-1,56
 812 1180 812 1180 766 1180 c 128,-1,57
 720 1180 720 1180 688 1212.5 c 128,-1,50
 656 1245 656 1245 656 1292 c 128,-1,51
EndSplineSet
Validated: 1
EndChar

StartChar: Ygrave
Encoding: 7922 7922 179
Width: 1312
Flags: W
HStem: 0 21G<559 759> 1490 20G<100 300 1012 1212>
VStem: 100 200<1224.61 1510> 559 200<0 656.975> 1012 200<1237.91 1510>
DStem2: 503 1909 409 1804 0.743294 -0.668965<0.371647 349.794>
LayerCount: 2
Fore
SplineSet
1012 1510 m 1,0,-1
 1212 1510 l 1,1,2
 1212 1022 1212 1022 890 871 c 1,3,-1
 647 871 l 1,4,5
 1012 1066 1012 1066 1012 1510 c 1,0,-1
759 0 m 1,6,7
 559 0 l 1,8,-1
 559 537 l 2,9,10
 559 641 559 641 435 735 c 0,11,12
 100 990 100 990 100 1510 c 1,13,14
 300 1510 l 1,15,16
 300 1066 300 1066 634 823 c 0,17,18
 759 731 759 731 759 537 c 2,19,-1
 759 0 l 1,6,7
503 1909 m 1,20,-1
 763 1675 l 1,21,-1
 669 1570 l 1,22,-1
 409 1804 l 1,23,-1
 503 1909 l 1,20,-1
EndSplineSet
Validated: 1
EndChar

StartChar: ygrave
Encoding: 7923 7923 180
Width: 1248
VWidth: 1638
Flags: W
HStem: -430 160<518 702.164> -20 160<493.615 688> 1080 20G<304.5 570 868 1048> 1499 20G<470.095 510.222>
VStem: 100 180<343.744 784.064> 349 221<879 1100> 868 180<-97.2947 1100>
DStem2: 488 1519 394 1414 0.743294 -0.668965<0.371647 349.794>
LayerCount: 2
Fore
SplineSet
349 1100 m 1,0,-1
 570 1100 l 1,1,2
 432 978 432 978 360 856 c 0,3,4
 280 717 280 717 280 550 c 0,5,6
 280 359 280 359 391 255 c 0,7,8
 514 140 514 140 688 140 c 1,9,-1
 688 -20 l 1,10,11
 438 -20 438 -20 281 120 c 0,12,13
 100 281 100 281 100 550 c 0,14,15
 100 744 100 744 192 901 c 0,16,17
 260 1017 260 1017 349 1100 c 1,0,-1
518 -270 m 1,18,19
 669 -270 669 -270 763 -182 c 0,20,21
 868 -83 868 -83 868 120 c 2,22,-1
 868 1100 l 17,23,-1
 1048 1100 l 9,24,-1
 1048 120 l 2,25,26
 1048 -149 1048 -149 897 -289 c 0,27,28
 745 -430 745 -430 518 -430 c 9,29,-1
 518 -270 l 1,18,19
488 1519 m 1,30,-1
 748 1285 l 1,31,-1
 654 1180 l 1,32,-1
 394 1414 l 1,33,-1
 488 1519 l 1,30,-1
EndSplineSet
Validated: 1
EndChar

StartChar: Eth
Encoding: 208 208 181
Width: 1586
Flags: W
HStem: -20 180<580 992.218> 0 21G<200 400> 661 140<50 200 400 636> 1350 180<437.656 990.413>
VStem: 200 200<0 661 801 1312.46> 1316 200<501.361 1008.64>
LayerCount: 2
Fore
SplineSet
200 0 m 1,0,-1
 200 661 l 1,1,-1
 50 661 l 1,2,-1
 50 801 l 1,3,-1
 200 801 l 1,4,-1
 200 1190 l 2,5,6
 200 1530 200 1530 560 1530 c 2,7,-1
 786 1530 l 2,8,9
 1100 1530 1100 1530 1317 1294 c 0,10,11
 1516 1076 1516 1076 1516 755 c 128,-1,12
 1516 434 1516 434 1317 216 c 0,13,14
 1104 -20 1104 -20 786 -20 c 2,15,-1
 580 -20 l 1,16,-1
 580 160 l 1,17,-1
 786 160 l 2,18,19
 1010 160 1010 160 1169 334 c 0,20,21
 1316 495 1316 495 1316 755 c 128,-1,22
 1316 1015 1316 1015 1169 1176 c 0,23,24
 1010 1350 1010 1350 786 1350 c 2,25,-1
 560 1350 l 2,26,27
 400 1350 400 1350 400 1190 c 2,28,-1
 400 801 l 1,29,-1
 636 801 l 1,30,-1
 636 661 l 1,31,-1
 400 661 l 1,32,-1
 400 0 l 1,33,-1
 200 0 l 1,0,-1
EndSplineSet
Validated: 1
EndChar

StartChar: Hbar
Encoding: 294 294 182
Width: 1571
Flags: W
HStem: 0 21G<200 400 1171 1371> 661 180<437.656 991> 1259 140<100 200 400 1171 1371 1471> 1490 20G<200 400 1171 1371>
VStem: 200 200<0 623.461 901 1259 1399 1510> 1171 200<0 1259 1399 1510>
LayerCount: 2
Fore
SplineSet
1371 0 m 1,0,-1
 1171 0 l 1,1,-1
 1171 1259 l 1,2,-1
 400 1259 l 1,3,-1
 400 901 l 1,4,-1
 200 901 l 1,5,-1
 200 1259 l 1,6,-1
 100 1259 l 1,7,-1
 100 1399 l 1,8,-1
 200 1399 l 1,9,-1
 200 1510 l 1,10,-1
 400 1510 l 1,11,-1
 400 1399 l 1,12,-1
 1171 1399 l 1,13,-1
 1171 1510 l 1,14,-1
 1371 1510 l 1,15,-1
 1371 1399 l 1,16,-1
 1471 1399 l 1,17,-1
 1471 1259 l 1,18,-1
 1371 1259 l 1,19,-1
 1371 0 l 1,0,-1
200 0 m 1,20,-1
 200 501 l 2,21,22
 200 841 200 841 560 841 c 2,23,-1
 991 841 l 1,24,-1
 991 661 l 1,25,-1
 560 661 l 2,26,27
 400 661 400 661 400 501 c 2,28,-1
 400 0 l 1,29,-1
 200 0 l 1,20,-1
EndSplineSet
Validated: 19457
EndChar

StartChar: IJ
Encoding: 306 306 183
Width: 1566
Flags: W
HStem: -20 180<678.154 1015.48> 0 21G<200 400> 1330 180<726 1166>
VStem: 200 200<0 1510> 1166 200<315.896 1330>
LayerCount: 2
Fore
SplineSet
726 1510 m 1,0,-1
 1366 1510 l 1,1,-1
 1366 546 l 2,2,3
 1366 290 1366 290 1223 136 c 0,4,5
 1078 -20 1078 -20 849 -20 c 0,6,7
 616 -20 616 -20 455 136 c 1,8,-1
 579 282 l 1,9,10
 696 160 696 160 839 160 c 0,11,12
 1003 160 1003 160 1095 273 c 0,13,14
 1166 360 1166 360 1166 548 c 2,15,-1
 1166 1330 l 1,16,-1
 726 1330 l 1,17,-1
 726 1510 l 1,0,-1
200 0 m 1,18,-1
 200 1510 l 1,19,-1
 400 1510 l 1,20,-1
 400 0 l 1,21,-1
 200 0 l 1,18,-1
EndSplineSet
Validated: 1
EndChar

StartChar: ae
Encoding: 230 230 184
Width: 1839
Flags: W
HStem: -20 160<475.637 668 1219.72 1570.76> 0 21G<848 1028> 470 160<1208 1629> 960 160<480.725 805.558 1221.24 1570.76>
VStem: 100 180<345.062 754.938> 848 180<0 119 344.72 755.28>
LayerCount: 2
Fore
SplineSet
1208 630 m 1,0,-1
 1629 630 l 1,1,-1
 1629 470 l 1,2,-1
 1208 470 l 1,3,-1
 1208 630 l 1,0,-1
1396 960 m 128,-1,5
 1238 960 1238 960 1133 846 c 128,-1,6
 1028 732 1028 732 1028 550 c 128,-1,7
 1028 368 1028 368 1133 254 c 128,-1,8
 1238 140 1238 140 1396 140 c 128,-1,9
 1554 140 1554 140 1659 254 c 1,10,-1
 1769 124 l 1,11,12
 1614 -20 1614 -20 1396 -20 c 0,13,14
 1182 -20 1182 -20 1028 119 c 1,15,-1
 1028 0 l 1,16,-1
 848 0 l 1,17,-1
 848 780 l 2,18,19
 848 960 848 960 688 960 c 0,20,21
 494 960 494 960 387 846 c 128,-1,22
 280 732 280 732 280 550 c 128,-1,23
 280 368 280 368 386 254 c 128,-1,24
 492 140 492 140 668 140 c 1,25,-1
 668 -20 l 1,26,27
 430 -20 430 -20 275 124 c 0,28,29
 100 286 100 286 100 550 c 128,-1,30
 100 814 100 814 275 976 c 0,31,32
 430 1120 430 1120 688 1120 c 0,33,34
 927 1120 927 1120 998 952 c 1,35,36
 1010 964 1010 964 1023 976 c 0,37,38
 1178 1120 1178 1120 1396 1120 c 128,-1,39
 1614 1120 1614 1120 1769 976 c 1,40,-1
 1659 846 l 1,41,4
 1554 960 1554 960 1396 960 c 128,-1,5
EndSplineSet
Validated: 1
EndChar

StartChar: dcroat
Encoding: 273 273 185
Width: 1228
Flags: W
HStem: -20 160<480.725 805.773> 960 160<475.637 668> 1259 140<675 848 1028 1128> 1490 20G<848 1028>
VStem: 100 180<345.062 754.938> 848 180<187.52 1259 1399 1510>
LayerCount: 2
Fore
SplineSet
688 -20 m 0,0,1
 430 -20 430 -20 275 124 c 0,2,3
 100 286 100 286 100 550 c 128,-1,4
 100 814 100 814 275 976 c 0,5,6
 430 1120 430 1120 668 1120 c 1,7,-1
 668 960 l 1,8,9
 492 960 492 960 386 846 c 128,-1,10
 280 732 280 732 280 550 c 128,-1,11
 280 368 280 368 387 254 c 128,-1,12
 494 140 494 140 688 140 c 0,13,14
 848 140 848 140 848 320 c 2,15,-1
 848 1259 l 1,16,-1
 675 1259 l 1,17,-1
 675 1399 l 1,18,-1
 848 1399 l 1,19,-1
 848 1510 l 1,20,-1
 1028 1510 l 1,21,-1
 1028 1399 l 1,22,-1
 1128 1399 l 1,23,-1
 1128 1259 l 1,24,-1
 1028 1259 l 1,25,-1
 1028 320 l 2,26,27
 1028 -20 1028 -20 688 -20 c 0,0,1
EndSplineSet
Validated: 19457
EndChar

StartChar: hbar
Encoding: 295 295 186
Width: 1248
Flags: W
HStem: 0 21G<200 380 678 943.5> 960 160<560 754.385> 1259 140<100 200 380 553> 1490 20G<200 380>
VStem: 200 180<0 1259 1399 1510> 678 221<0 221> 968 180<315.936 756.256>
LayerCount: 2
Fore
SplineSet
899 0 m 1,0,-1
 678 0 l 1,1,2
 816 122 816 122 888 244 c 0,3,4
 968 383 968 383 968 550 c 0,5,6
 968 741 968 741 857 845 c 0,7,8
 734 960 734 960 560 960 c 1,9,-1
 560 1120 l 1,10,11
 810 1120 810 1120 967 980 c 0,12,13
 1148 819 1148 819 1148 550 c 0,14,15
 1148 356 1148 356 1056 199 c 0,16,17
 988 83 988 83 899 0 c 1,0,-1
380 0 m 1,18,-1
 200 0 l 1,19,-1
 200 1259 l 1,20,-1
 100 1259 l 1,21,-1
 100 1399 l 1,22,-1
 200 1399 l 1,23,-1
 200 1510 l 1,24,-1
 380 1510 l 1,25,-1
 380 1399 l 1,26,-1
 553 1399 l 1,27,-1
 553 1259 l 1,28,-1
 380 1259 l 1,29,-1
 380 0 l 1,18,-1
EndSplineSet
Validated: 19457
EndChar

StartChar: ij
Encoding: 307 307 187
Width: 1080
Flags: W
HStem: -430 21G<520 579> 0 21G<200 380> 1080 20G<200 380 700 880> 1210 264<199.191 380.809 699.191 880.809>
VStem: 160 260<1249.71 1434.29> 200 180<0 1100> 660 260<1249.71 1434.29> 700 180<-113.684 1100>
LayerCount: 2
Fore
SplineSet
660 1342 m 128,-1,1
 660 1397 660 1397 698 1435.5 c 128,-1,2
 736 1474 736 1474 790 1474 c 128,-1,3
 844 1474 844 1474 882 1435.5 c 128,-1,4
 920 1397 920 1397 920 1342 c 128,-1,5
 920 1287 920 1287 882 1248.5 c 128,-1,6
 844 1210 844 1210 790 1210 c 128,-1,7
 736 1210 736 1210 698 1248.5 c 128,-1,0
 660 1287 660 1287 660 1342 c 128,-1,1
160 1342 m 128,-1,9
 160 1397 160 1397 198 1435.5 c 128,-1,10
 236 1474 236 1474 290 1474 c 128,-1,11
 344 1474 344 1474 382 1435.5 c 128,-1,12
 420 1397 420 1397 420 1342 c 128,-1,13
 420 1287 420 1287 382 1248.5 c 128,-1,14
 344 1210 344 1210 290 1210 c 128,-1,15
 236 1210 236 1210 198 1248.5 c 128,-1,8
 160 1287 160 1287 160 1342 c 128,-1,9
200 0 m 1,16,-1
 200 1100 l 1,17,-1
 380 1100 l 1,18,-1
 380 0 l 1,19,-1
 200 0 l 1,16,-1
520 -253 m 17,20,21
 558 -232 558 -232 589 -204 c 0,22,23
 700 -102 700 -102 700 97 c 2,24,-1
 700 1100 l 17,25,-1
 880 1100 l 9,26,-1
 880 97 l 2,27,28
 880 -172 880 -172 729 -312 c 0,29,30
 638 -396 638 -396 520 -430 c 1,31,-1
 520 -253 l 17,20,21
EndSplineSet
Validated: 1
EndChar

StartChar: AE
Encoding: 198 198 188
Width: 2477
Flags: W
HStem: -20 180<1667.26 2082.98> 0 21G<5 204.292 1406.71 1621> 561 180<459.277 951> 661 180<1526 2232> 1350 180<1669.92 2082.08> 1490 20G<698.691 927.336>
DStem2: 5 0 195 0 0.422064 0.906566<80.1921 692.782 963.781 1528.39> 918 1510 806 1313 0.422064 -0.906566<131.322 598.141>
LayerCount: 2
Fore
SplineSet
1526 841 m 1,0,-1
 2232 841 l 1,1,-1
 2232 661 l 1,2,-1
 1526 661 l 1,3,-1
 1526 841 l 1,0,-1
806 1313 m 1,4,-1
 568 801 l 1,5,-1
 378 801 l 1,6,-1
 708 1510 l 1,7,-1
 918 1510 l 1,8,-1
 1171 968 l 1,9,10
 1216 1153 1216 1153 1345 1294 c 0,11,12
 1562 1530 1562 1530 1876 1530 c 128,-1,13
 2190 1530 2190 1530 2407 1294 c 1,14,-1
 2259 1176 l 1,15,16
 2100 1350 2100 1350 1876 1350 c 128,-1,17
 1652 1350 1652 1350 1493 1176 c 0,18,19
 1346 1015 1346 1015 1346 755 c 128,-1,20
 1346 495 1346 495 1493 334 c 0,21,22
 1652 160 1652 160 1876 160 c 128,-1,23
 2100 160 2100 160 2259 334 c 1,24,-1
 2407 216 l 1,25,26
 2194 -20 2194 -20 1876 -20 c 0,27,28
 1731 -20 1731 -20 1607 30 c 1,29,-1
 1621 0 l 1,30,-1
 1416 0 l 1,31,-1
 806 1313 l 1,4,-1
5 0 m 1,32,-1
 215 452 l 2,33,34
 349 741 349 741 610 741 c 2,35,-1
 951 741 l 1,36,-1
 951 561 l 1,37,-1
 610 561 l 2,38,39
 456 561 456 561 405 452 c 2,40,-1
 195 0 l 1,41,-1
 5 0 l 1,32,-1
EndSplineSet
Validated: 1
EndChar

StartChar: kgreenlandic
Encoding: 312 312 189
Width: 1266
Flags: W
HStem: 0 21G<200 380 867 1116> 1080 20G<200 380 884 1064>
VStem: 200 180<0 1100> 884 180<790.879 1100>
LayerCount: 2
Fore
SplineSet
1116 0 m 1,0,1
 921 0 l 1,2,3
 813 233 813 233 560 297 c 1,4,-1
 560 479 l 1,5,6
 884 598 884 598 884 1100 c 1,7,-1
 1064 1100 l 1,8,9
 1064 539 1064 539 732 403 c 1,10,11
 995 319 995 319 1116 0 c 1,0,1
200 0 m 1,12,-1
 200 1100 l 1,13,-1
 380 1100 l 1,14,-1
 380 0 l 1,15,-1
 200 0 l 1,12,-1
EndSplineSet
Validated: 1
EndChar

StartChar: Lslash
Encoding: 321 321 190
Width: 988
Flags: W
HStem: 0 180<400 978> 519 258<492 750> 1080 20G<688.997 869> 1490 20G<200 400>
VStem: 200 200<180 1510> 702 167<933 1100>
DStem2: 492 777 492 519 0.544328 0.838872<0 385.265>
LayerCount: 2
Fore
SplineSet
869 1100 m 1,0,-1
 492 519 l 1,1,-1
 492 777 l 1,2,-1
 702 1100 l 1,3,-1
 869 1100 l 1,0,-1
200 0 m 1,4,-1
 200 1510 l 1,5,-1
 400 1510 l 1,6,-1
 400 180 l 1,7,-1
 978 180 l 1,8,-1
 978 0 l 1,9,-1
 200 0 l 1,4,-1
EndSplineSet
Validated: 1
EndChar

StartChar: lslash
Encoding: 322 322 191
Width: 854
Flags: W
HStem: 0 21G<200 380> 519 258<472 730> 1080 20G<668.997 849> 1490 20G<200 380>
VStem: 200 180<0 1510> 682 167<933 1100>
DStem2: 472 777 472 519 0.544328 0.838872<0 385.265>
LayerCount: 2
Fore
SplineSet
200 0 m 1,0,-1
 200 1510 l 1,1,-1
 380 1510 l 1,2,-1
 380 0 l 1,3,-1
 200 0 l 1,0,-1
849 1100 m 1,4,-1
 472 519 l 1,5,-1
 472 777 l 1,6,-1
 682 1100 l 1,7,-1
 849 1100 l 1,4,-1
EndSplineSet
Validated: 1
EndChar

StartChar: longs
Encoding: 383 383 192
Width: 830
Flags: W
HStem: 0 21G<290 470> 940 160<50 245.547> 1370 160<575.833 820>
VStem: 290 180<0 892.48 1160 1276.26>
LayerCount: 2
Fore
SplineSet
470 0 m 1,0,-1
 290 0 l 1,1,-1
 290 760 l 2,2,3
 290 940 290 940 130 940 c 10,4,-1
 50 940 l 25,5,-1
 50 1100 l 25,6,-1
 130 1100 l 2,7,8
 470 1100 470 1100 470 760 c 2,9,-1
 470 0 l 1,0,-1
290 1160 m 1,10,11
 290 1530 290 1530 820 1530 c 1,12,-1
 820 1370 l 1,13,14
 470 1370 470 1370 470 1160 c 1,15,-1
 290 1160 l 1,10,11
EndSplineSet
Validated: 19457
EndChar

StartChar: Eng
Encoding: 330 330 193
Width: 1616
Flags: W
HStem: -410 180<1036 1174.7> 0 21G<200 400> 1350 180<437.656 890.413>
VStem: 200 200<0 1312.46> 1216 200<-188.848 1007.51>
LayerCount: 2
Fore
SplineSet
200 0 m 1,0,-1
 200 1190 l 2,1,2
 200 1530 200 1530 560 1530 c 2,3,-1
 686 1530 l 2,4,5
 1000 1530 1000 1530 1217 1294 c 0,6,7
 1416 1076 1416 1076 1416 755 c 2,8,-1
 1416 -75 l 2,9,10
 1416 -410 1416 -410 1036 -410 c 1,11,-1
 1036 -230 l 1,12,13
 1216 -230 1216 -230 1216 -75 c 2,14,-1
 1216 755 l 2,15,16
 1216 1015 1216 1015 1069 1176 c 0,17,18
 910 1350 910 1350 686 1350 c 2,19,-1
 560 1350 l 2,20,21
 400 1350 400 1350 400 1190 c 2,22,-1
 400 0 l 1,23,-1
 200 0 l 1,0,-1
EndSplineSet
Validated: 1
EndChar

StartChar: eng
Encoding: 331 331 194
Width: 1240
Flags: W
HStem: -430 160<730 861.396> 0 21G<200 380> 960 160<426.802 736.743>
VStem: 200 180<0 912.48> 910 180<-225.532 777.84>
LayerCount: 2
Fore
SplineSet
200 0 m 1,0,-1
 200 780 l 2,1,2
 200 1120 200 1120 560 1120 c 0,3,4
 782 1120 782 1120 936 977 c 128,-1,5
 1090 834 1090 834 1090 570 c 2,6,-1
 1090 -95 l 18,7,8
 1090 -430 1090 -430 730 -430 c 1,9,-1
 730 -270 l 1,10,11
 910 -270 910 -270 910 -95 c 2,12,-1
 910 570 l 2,13,14
 910 767 910 767 799 871 c 0,15,16
 704 960 704 960 560 960 c 0,17,18
 380 960 380 960 380 780 c 2,19,-1
 380 0 l 1,20,-1
 200 0 l 1,0,-1
EndSplineSet
Validated: 1
EndChar

StartChar: oe
Encoding: 339 339 195
Width: 1732
Flags: W
HStem: -20 160<473.239 823.624 1114.28 1463.85> 470 160<1101 1522> 960 160<473.239 823.624 1114.28 1463.85>
VStem: 100 180<345.062 754.938> 741 180<343.578 756.422>
CounterMasks: 1 e0
LayerCount: 2
Fore
SplineSet
1101 630 m 1,0,-1
 1522 630 l 1,1,-1
 1522 470 l 1,2,-1
 1101 470 l 1,3,-1
 1101 630 l 1,0,-1
1306.5 -20 m 128,-1,5
 1106 -20 1106 -20 968 81 c 1,6,7
 830 -20 830 -20 648 -20 c 0,8,9
 430 -20 430 -20 275 124 c 0,10,11
 100 286 100 286 100 550 c 128,-1,12
 100 814 100 814 275 976 c 0,13,14
 430 1120 430 1120 648 1120 c 0,15,16
 830 1120 830 1120 968 1019 c 1,17,18
 1106 1120 1106 1120 1306.5 1120 c 128,-1,19
 1507 1120 1507 1120 1662 976 c 1,20,-1
 1552 846 l 1,21,22
 1447 960 1447 960 1289 960 c 128,-1,23
 1131 960 1131 960 1026 846 c 128,-1,24
 921 732 921 732 921 550 c 128,-1,25
 921 368 921 368 1026 254 c 128,-1,26
 1131 140 1131 140 1289 140 c 128,-1,27
 1447 140 1447 140 1552 254 c 1,28,-1
 1662 124 l 1,29,4
 1507 -20 1507 -20 1306.5 -20 c 128,-1,5
848 901 m 1,30,31
 762 960 762 960 648 960 c 0,32,33
 490 960 490 960 385 846 c 128,-1,34
 280 732 280 732 280 550 c 128,-1,35
 280 368 280 368 385 254 c 128,-1,36
 490 140 490 140 648 140 c 0,37,38
 762 140 762 140 848 199 c 1,39,40
 741 343 741 343 741 550 c 128,-1,41
 741 757 741 757 848 901 c 1,30,31
EndSplineSet
Validated: 1
EndChar

StartChar: OE
Encoding: 338 338 196
Width: 2328
Flags: W
HStem: -20 180<623.467 1037.62 1520.33 1933.98> 661 180<1377 2083> 1350 180<623.918 1037.03 1517.61 1935.12>
VStem: 100 200<501.361 1008.64> 997 200<501.142 1008.86>
LayerCount: 2
Fore
SplineSet
1377 841 m 9,0,-1
 2083 841 l 1,1,-1
 2083 661 l 1,2,-1
 1377 661 l 17,3,4
 1377 841 l 9,0,-1
1727 -20 m 0,5,6
 1469 -20 1469 -20 1279 137 c 1,7,8
 1089 -20 1089 -20 830 -20 c 0,9,10
 514 -20 514 -20 299 216 c 0,11,12
 100 434 100 434 100 755 c 128,-1,13
 100 1076 100 1076 299 1294 c 0,14,15
 516 1530 516 1530 830 1530 c 0,16,17
 1086 1530 1086 1530 1278 1372 c 1,18,19
 1470 1530 1470 1530 1755.5 1530 c 128,-1,20
 2041 1530 2041 1530 2258 1294 c 1,21,-1
 2110 1176 l 1,22,23
 1951 1350 1951 1350 1727 1350 c 128,-1,24
 1503 1350 1503 1350 1344 1176 c 0,25,26
 1197 1015 1197 1015 1197 755 c 128,-1,27
 1197 495 1197 495 1344 334 c 0,28,29
 1503 160 1503 160 1727 160 c 128,-1,30
 1951 160 1951 160 2110 334 c 1,31,-1
 2258 216 l 1,32,33
 2045 -20 2045 -20 1727 -20 c 0,5,6
1149 1237 m 1,34,35
 1011 1350 1011 1350 830 1350 c 0,36,37
 606 1350 606 1350 447 1176 c 0,38,39
 300 1015 300 1015 300 755 c 128,-1,40
 300 495 300 495 447 334 c 0,41,42
 606 160 606 160 830 160 c 0,43,44
 1010 160 1010 160 1149 273 c 1,45,46
 997 475 997 475 997 755 c 128,-1,47
 997 1035 997 1035 1149 1237 c 1,34,35
EndSplineSet
Validated: 1
EndChar

StartChar: eth
Encoding: 240 240 197
Width: 1296
Flags: W
HStem: -20 160<473.239 822.761> 960 160<475.275 648> 1490 20G<446 680.758>
VStem: 100 180<345.062 754.938> 1016 180<345.55 778.111>
DStem2: 424 1276 508 1164 0.798567 0.601905<0 159.201 336.668 503.068> 665 1510 551 1372 0.607139 -0.794596<0 40.4405 181.627 821.449>
LayerCount: 2
Fore
SplineSet
648 -20 m 128,-1,1
 430 -20 430 -20 275 124 c 0,2,3
 100 286 100 286 100 550 c 128,-1,4
 100 814 100 814 275 976 c 0,5,6
 430 1120 430 1120 648 1120 c 1,7,-1
 648 960 l 1,8,9
 490 960 490 960 385 846 c 128,-1,10
 280 732 280 732 280 550 c 128,-1,11
 280 368 280 368 385 254 c 128,-1,12
 490 140 490 140 648 140 c 128,-1,13
 806 140 806 140 911 254 c 128,-1,14
 1016 368 1016 368 1016 550 c 0,15,16
 1016 764 1016 764 880 942 c 2,17,-1
 636 1261 l 1,18,-1
 508 1164 l 1,19,-1
 424 1276 l 1,20,-1
 551 1372 l 1,21,-1
 446 1510 l 1,22,-1
 665 1510 l 1,23,-1
 691 1477 l 1,24,-1
 826 1579 l 1,25,-1
 910 1467 l 1,26,-1
 777 1367 l 1,27,-1
 1016 1060 l 2,28,29
 1196 829 1196 829 1196 550 c 0,30,31
 1196 288 1196 288 1021 124 c 0,32,0
 866 -20 866 -20 648 -20 c 128,-1,1
EndSplineSet
Validated: 1
EndChar

StartChar: Thorn
Encoding: 222 222 198
Width: 1324
Flags: W
HStem: 0 21G<200 400> 180 181<580 803.974> 1150 180<436.443 812.31> 1490 20G<200 400>
VStem: 200 200<0 1112.46 1288 1510> 1024 200<573.009 956.263>
LayerCount: 2
Fore
SplineSet
200 0 m 1,0,-1
 200 1510 l 1,1,-1
 400 1510 l 1,2,-1
 400 1288 l 1,3,4
 474 1330 474 1330 560 1330 c 0,5,6
 851 1330 851 1330 1018 1199 c 0,7,8
 1224 1036 1224 1036 1224 774 c 0,9,10
 1224 551 1224 551 1084 394 c 0,11,12
 893 180 893 180 580 180 c 1,13,-1
 580 361 l 1,14,15
 798 361 798 361 917 484 c 0,16,17
 1024 595 1024 595 1024 774 c 0,18,19
 1024 948 1024 948 900 1052 c 0,20,21
 783 1150 783 1150 560 1150 c 0,22,23
 400 1150 400 1150 400 990 c 2,24,-1
 400 0 l 1,25,-1
 200 0 l 1,0,-1
EndSplineSet
Validated: 1
EndChar

StartChar: germandbls
Encoding: 223 223 199
Width: 1252
Flags: W
HStem: -20 160<650.979 882.608> 0 21G<200 380> 1370 160<426.802 731.17>
VStem: 200 180<0 1322.48> 449 161<180.32 294> 594 166<775.331 916.327> 810 168<1079.2 1295.98> 960 172<221.685 497.618>
LayerCount: 2
Fore
SplineSet
200 0 m 25,0,-1
 200 1190 l 2,1,2
 200 1530 200 1530 560 1530 c 0,3,4
 734 1530 734 1530 844 1448 c 0,5,6
 978 1348 978 1348 978 1200 c 0,7,8
 978 1051 978 1051 846 951 c 0,9,10
 760 887 760 887 760 842 c 0,11,12
 760 786 760 786 888 722 c 0,13,14
 1132 600 1132 600 1132 378 c 0,15,16
 1132 238 1132 238 1047 127 c 0,17,18
 935 -20 935 -20 762 -20 c 0,19,20
 601 -20 601 -20 522 76 c 0,21,22
 449 165 449 165 449 294 c 1,23,-1
 610 294 l 1,24,25
 610 221 610 221 652 179 c 0,26,27
 691 140 691 140 765 140 c 0,28,29
 859 140 859 140 918 224 c 0,30,31
 960 283 960 283 960 381 c 0,32,33
 960 508 960 508 792 591 c 0,34,35
 594 690 594 690 594 832 c 0,36,37
 594 933 594 933 713 1028 c 0,38,39
 810 1105 810 1105 810 1190 c 0,40,41
 810 1273 810 1273 726 1330 c 0,42,43
 667 1370 667 1370 560 1370 c 0,44,45
 380 1370 380 1370 380 1190 c 2,46,-1
 380 0 l 25,47,-1
 200 0 l 25,0,-1
EndSplineSet
Validated: 1
EndChar

StartChar: thorn
Encoding: 254 254 200
Width: 1228
Flags: W
HStem: -20 160<560 752.363> 960 160<420.275 747.275> 1490 20G<200 380>
VStem: 200 180<-410 917.769 1074 1510> 948 180<345.062 754.938>
LayerCount: 2
Fore
SplineSet
560 -20 m 1,0,-1
 560 140 l 1,1,2
 736 140 736 140 842 254 c 128,-1,3
 948 368 948 368 948 550 c 128,-1,4
 948 732 948 732 841 846 c 128,-1,5
 734 960 734 960 540 960 c 0,6,7
 380 960 380 960 380 780 c 2,8,-1
 380 -410 l 1,9,-1
 200 -410 l 1,10,-1
 200 1510 l 1,11,-1
 380 1510 l 1,12,-1
 380 1074 l 1,13,14
 455 1120 455 1120 540 1120 c 0,15,16
 798 1120 798 1120 953 976 c 0,17,18
 1128 814 1128 814 1128 550 c 128,-1,19
 1128 286 1128 286 953 124 c 0,20,21
 798 -20 798 -20 560 -20 c 1,0,-1
EndSplineSet
Validated: 1
EndChar

StartChar: Tbar
Encoding: 358 358 201
Width: 1090
Flags: W
HStem: 0 21G<446 646> 661 140<252 446 646 838> 1330 180<10 386 683.656 1080>
VStem: 446 200<0 661 801 1292.46>
LayerCount: 2
Fore
SplineSet
446 0 m 1,0,-1
 446 661 l 1,1,-1
 252 661 l 1,2,-1
 252 801 l 1,3,-1
 446 801 l 1,4,-1
 446 1170 l 2,5,6
 446 1510 446 1510 806 1510 c 2,7,-1
 1080 1510 l 1,8,-1
 1080 1330 l 1,9,-1
 806 1330 l 2,10,11
 646 1330 646 1330 646 1170 c 2,12,-1
 646 801 l 1,13,-1
 838 801 l 1,14,-1
 838 661 l 1,15,-1
 646 661 l 1,16,-1
 646 0 l 1,17,-1
 446 0 l 1,0,-1
10 1510 m 1,18,-1
 386 1510 l 1,19,-1
 386 1330 l 1,20,-1
 10 1330 l 1,21,-1
 10 1510 l 1,18,-1
EndSplineSet
Validated: 1
EndChar

StartChar: tbar
Encoding: 359 359 202
Width: 740
Flags: W
HStem: 0 21G<200 380> 581 140<50 200 380 553> 940 160<424.453 730> 1160 350<200 380>
VStem: 200 180<0 581 721 892.48 1160 1510>
LayerCount: 2
Fore
SplineSet
200 1510 m 1,0,-1
 380 1510 l 1,1,-1
 380 1160 l 1,2,-1
 200 1160 l 1,3,-1
 200 1510 l 1,0,-1
200 0 m 1,4,-1
 200 581 l 1,5,-1
 50 581 l 1,6,-1
 50 721 l 1,7,-1
 200 721 l 1,8,-1
 200 760 l 2,9,10
 200 1100 200 1100 540 1100 c 2,11,-1
 730 1100 l 1,12,-1
 730 940 l 1,13,-1
 540 940 l 2,14,15
 380 940 380 940 380 760 c 2,16,-1
 380 721 l 1,17,-1
 553 721 l 1,18,-1
 553 581 l 1,19,-1
 380 581 l 1,20,-1
 380 0 l 1,21,-1
 200 0 l 1,4,-1
EndSplineSet
Validated: 1
EndChar

StartChar: circumflex
Encoding: 710 710 203
Width: 610
Flags: W
HStem: 1408 198<206 404>
VStem: 50 510
DStem2: 50 1351 149 1252 0.707107 0.707107<0 220.617> 305 1606 305 1408 0.707107 -0.707107<140.007 360.624>
LayerCount: 2
Fore
SplineSet
305 1606 m 1,0,-1
 560 1351 l 1,1,-1
 461 1252 l 1,2,-1
 305 1408 l 1,3,-1
 149 1252 l 1,4,-1
 50 1351 l 1,5,-1
 305 1606 l 1,0,-1
EndSplineSet
Validated: 1
EndChar

StartChar: caron
Encoding: 711 711 204
Width: 610
Flags: W
HStem: 1252 198<206 404>
VStem: 50 510
DStem2: 149 1606 50 1507 0.707107 -0.707107<0 220.617> 305 1450 305 1252 0.707107 0.707107<0 220.617>
LayerCount: 2
Fore
SplineSet
149 1606 m 1,0,-1
 305 1450 l 1,1,-1
 461 1606 l 1,2,-1
 560 1507 l 1,3,-1
 305 1252 l 1,4,-1
 50 1507 l 1,5,-1
 149 1606 l 1,0,-1
EndSplineSet
Validated: 1
EndChar

StartChar: uni02C9
Encoding: 713 713 205
Width: 603
Flags: W
HStem: 1309 140<50 553>
VStem: 50 503<1309 1449>
LayerCount: 2
Fore
SplineSet
50 1449 m 1,0,-1
 553 1449 l 1,1,-1
 553 1309 l 1,2,-1
 50 1309 l 1,3,-1
 50 1449 l 1,0,-1
EndSplineSet
Validated: 1
EndChar

StartChar: breve
Encoding: 728 728 206
Width: 600
Flags: W
HStem: 1268 140<131.894 465.279> 1491 20G<50 108 489 550>
VStem: 50 500<1318.17 1408>
LayerCount: 2
Fore
SplineSet
50 1511 m 17,0,1
 166 1408 166 1408 297 1408 c 128,-1,2
 428 1408 428 1408 550 1511 c 1,3,-1
 550 1344 l 1,4,5
 438 1268 438 1268 295 1268 c 128,-1,6
 152 1268 152 1268 50 1344 c 1,7,-1
 50 1511 l 17,0,1
EndSplineSet
Validated: 1
EndChar

StartChar: dotaccent
Encoding: 729 729 207
Width: 360
Flags: W
HStem: 1246 264<89.1914 270.809>
VStem: 50 260<1285.71 1470.29>
LayerCount: 2
Fore
SplineSet
50 1378 m 128,-1,1
 50 1433 50 1433 88 1471.5 c 128,-1,2
 126 1510 126 1510 180 1510 c 128,-1,3
 234 1510 234 1510 272 1471.5 c 128,-1,4
 310 1433 310 1433 310 1378 c 128,-1,5
 310 1323 310 1323 272 1284.5 c 128,-1,6
 234 1246 234 1246 180 1246 c 128,-1,7
 126 1246 126 1246 88 1284.5 c 128,-1,0
 50 1323 50 1323 50 1378 c 128,-1,1
EndSplineSet
Validated: 1
EndChar

StartChar: ring
Encoding: 730 730 208
Width: 460
Flags: W
HStem: 1192 98<164.776 302.24> 1458 98<165.247 302.469>
VStem: 50 97<1308.75 1440.1> 313 97<1300.01 1447.38>
LayerCount: 2
Fore
SplineSet
230 1290 m 256,0,1
 266 1290 266 1290 288 1315 c 0,2,3
 312 1341 312 1341 313 1374 c 0,4,5
 312 1411 312 1411 288 1433 c 0,6,7
 262 1457 262 1457 231 1458 c 0,8,9
 196 1457 196 1457 172 1433 c 0,10,11
 147 1408 147 1408 147 1374 c 128,-1,12
 147 1340 147 1340 171 1316 c 128,-1,13
 195 1292 195 1292 230 1290 c 256,0,1
232 1556 m 0,14,15
 305 1556 305 1556 357 1503 c 0,16,17
 410 1448 410 1448 410 1375 c 0,18,19
 410 1299 410 1299 357 1246 c 0,20,21
 303 1192 303 1192 230 1192 c 256,22,23
 157 1192 157 1192 103 1246 c 0,24,25
 50 1299 50 1299 50 1375 c 0,26,27
 50 1449 50 1449 103 1503 c 0,28,29
 156 1556 156 1556 232 1556 c 0,14,15
EndSplineSet
Validated: 1
EndChar

StartChar: tilde
Encoding: 732 732 209
Width: 657
Flags: W
HStem: 1274 138<360.697 466.613> 1382 138<190.387 296.303>
VStem: 50 120<1321.07 1373> 487 120<1421 1472.93>
LayerCount: 2
Fore
SplineSet
487 1524 m 1,0,-1
 607 1466 l 1,1,2
 557 1274 557 1274 417 1274 c 0,3,4
 361 1274 361 1274 326 1308 c 2,5,-1
 270 1363 l 2,6,7
 251 1382 251 1382 233 1382 c 0,8,9
 194 1382 194 1382 170 1270 c 1,10,-1
 50 1328 l 1,11,12
 100 1520 100 1520 240 1520 c 0,13,14
 296 1520 296 1520 331 1486 c 2,15,-1
 387 1431 l 2,16,17
 406 1412 406 1412 424 1412 c 0,18,19
 463 1412 463 1412 487 1524 c 1,0,-1
EndSplineSet
Validated: 1
EndChar

StartChar: hungarumlaut
Encoding: 733 733 210
Width: 794
Flags: W
HStem: 1242 339
DStem2: 50 1347 144 1242 0.743294 0.668965<0 349.423> 390 1347 484 1242 0.743294 0.668965<0 349.423>
LayerCount: 2
Fore
SplineSet
650 1581 m 1,0,-1
 744 1476 l 1,1,-1
 484 1242 l 1,2,-1
 390 1347 l 1,3,-1
 650 1581 l 1,0,-1
310 1581 m 1,4,-1
 404 1476 l 1,5,-1
 144 1242 l 1,6,-1
 50 1347 l 1,7,-1
 310 1581 l 1,4,-1
EndSplineSet
Validated: 1
EndChar

StartChar: ogonek
Encoding: 731 731 211
Width: 369
Flags: W
HStem: -430 560
VStem: 50 142<-247.265 -28.2207>
LayerCount: 2
Fore
SplineSet
204 130 m 1,0,1
 288 20 l 1,2,3
 192 -51 192 -51 192 -138 c 0,4,5
 192 -240 192 -240 319 -314 c 1,6,-1
 240 -430 l 1,7,8
 50 -310 50 -310 50 -138 c 0,9,10
 50 16 50 16 204 130 c 1,0,1
EndSplineSet
Validated: 1
EndChar

StartChar: integral
Encoding: 8747 8747 212
Width: 920
Flags: W
HStem: -410 160<20 204.164> 1370 160<715.836 900>
VStem: 370 180<-76.9517 1197.29>
LayerCount: 2
Fore
SplineSet
20 -410 m 1,0,-1
 20 -250 l 1,1,2
 171 -250 171 -250 265 -162 c 0,3,4
 370 -62 370 -62 370 140 c 2,5,-1
 370 980 l 2,6,7
 370 1249 370 1249 521 1389 c 0,8,9
 673 1530 673 1530 900 1530 c 1,10,-1
 900 1370 l 1,11,12
 749 1370 749 1370 655 1282 c 0,13,14
 550 1184 550 1184 550 980 c 2,15,-1
 550 140 l 2,16,17
 550 -129 550 -129 399 -269 c 0,18,19
 247 -410 247 -410 20 -410 c 1,0,-1
EndSplineSet
Validated: 1
EndChar

StartChar: afii61352
Encoding: 8470 8470 213
Width: 2253
Flags: W
HStem: 0 153<1493 2103> 225 143<1692.53 1903.22> 694 143<1692.21 1904.7> 1350 180<437.656 890.413>
VStem: 200 200<0 1312.46> 1216 200<427.041 1003.49> 1493 152<413.692 650.656> 1950 153<413.692 651.909>
LayerCount: 2
Fore
SplineSet
200 0 m 1,0,-1
 200 1190 l 2,1,2
 200 1530 200 1530 560 1530 c 2,3,-1
 686 1530 l 2,4,5
 1000 1530 1000 1530 1217 1294 c 0,6,7
 1416 1076 1416 1076 1416 735 c 0,8,9
 1416 443 1416 443 1277 216 c 0,10,11
 1203 95 1203 95 1095 0 c 1,12,-1
 857 0 l 1,13,14
 1053 133 1053 133 1140 340 c 0,15,16
 1216 522 1216 522 1216 735 c 0,17,18
 1215 1016 1215 1016 1069 1176 c 0,19,20
 910 1350 910 1350 686 1350 c 2,21,-1
 560 1350 l 2,22,23
 400 1350 400 1350 400 1190 c 2,24,-1
 400 0 l 1,25,-1
 200 0 l 1,0,-1
1693 410 m 0,26,27
 1738 368 1738 368 1798 368 c 128,-1,28
 1858 368 1858 368 1903 410 c 0,29,30
 1950 453 1950 453 1950 531 c 0,31,32
 1950 612 1950 612 1902 656 c 0,33,34
 1860 694 1860 694 1798 694 c 128,-1,35
 1736 694 1736 694 1694 656 c 0,36,37
 1645 611 1645 611 1645 531 c 0,38,39
 1645 453 1645 453 1693 410 c 0,26,27
1798 837 m 0,40,41
 1921 837 1921 837 2008 758 c 0,42,43
 2103 671 2103 671 2103 531 c 0,44,45
 2103 398 2103 398 2007 303 c 0,46,47
 1927 225 1927 225 1798 225 c 0,48,49
 1668 225 1668 225 1589 303 c 0,50,51
 1493 398 1493 398 1493 531 c 0,52,53
 1493 669 1493 669 1588 758 c 0,54,55
 1672 837 1672 837 1798 837 c 0,40,41
2103 0 m 1,56,-1
 1493 0 l 1,57,-1
 1493 153 l 1,58,-1
 2103 153 l 1,59,-1
 2103 0 l 1,56,-1
EndSplineSet
Validated: 1
EndChar

StartChar: uni2117
Encoding: 8471 8471 214
Width: 1401
Flags: W
HStem: 187 73<515.246 877.958> 529 139<607 785.403> 1039 151<568.19 787.127> 1254 77<516.855 884.866>
VStem: 150 74<569.565 952.314> 405 162<366 1034.91> 850 162<731.859 977.472> 1176 75<558.62 959.426>
LayerCount: 2
Fore
SplineSet
1037 406 m 24,0,1
 1176 546 1176 546 1176 754 c 0,2,3
 1176 975 1176 975 1039 1110 c 0,4,5
 893 1254 893 1254 699 1254 c 0,6,7
 509 1254 509 1254 367 1113 c 0,8,9
 224 971 224 971 224 754 c 0,10,11
 224 560 224 560 364 406 c 0,12,13
 384 384 384 384 405 366 c 1,14,-1
 405 980 l 2,15,16
 405 1190 405 1190 626 1190 c 0,17,18
 808 1190 808 1190 904 1105 c 0,19,20
 1012 1009 1012 1009 1012 863 c 0,21,22
 1012 710 1012 710 927 636 c 0,23,24
 804 529 804 529 607 529 c 1,25,-1
 607 668 l 1,26,27
 741 668 741 668 799 724 c 0,28,29
 850 774 850 774 850 863 c 0,30,31
 850 936 850 936 796.5 987.5 c 128,-1,32
 743 1039 743 1039 626 1039 c 0,33,34
 567 1039 567 1039 567 980 c 2,35,-1
 567 321 l 1,36,-1
 466 321 l 1,37,38
 568 260 568 260 701 260 c 0,39,40
 892 260 892 260 1037 406 c 24,0,1
701 1331 m 0,41,42
 943 1331 943 1331 1099 1158 c 0,43,44
 1251 989 1251 989 1251 754 c 0,45,46
 1251 503 1251 503 1090 350 c 0,47,48
 918 187 918 187 699 187 c 0,49,50
 476 187 476 187 311 350 c 0,51,52
 150 509 150 509 150 754 c 0,53,54
 150 998 150 998 308 1163 c 0,55,56
 469 1331 469 1331 701 1331 c 0,41,42
EndSplineSet
Validated: 1
EndChar

StartChar: uni203D
Encoding: 8253 8253 215
Width: 1186
Flags: W
HStem: -20 264<464.191 645.809> 1510 20G<437 665>
VStem: 425 260<19.7072 204.293> 480 160<354 533.143> 836 200<917.752 1228.08>
LayerCount: 2
Fore
SplineSet
555 -20 m 128,-1,1
 501 -20 501 -20 463 18.5 c 128,-1,2
 425 57 425 57 425 112 c 128,-1,3
 425 167 425 167 463 205.5 c 128,-1,4
 501 244 501 244 555 244 c 128,-1,5
 609 244 609 244 647 205.5 c 128,-1,6
 685 167 685 167 685 112 c 128,-1,7
 685 57 685 57 647 18.5 c 128,-1,0
 609 -20 609 -20 555 -20 c 128,-1,1
558 1530 m 0,8,9
 772 1530 772 1530 910 1389 c 0,10,11
 1036 1261 1036 1261 1036 1073 c 0,12,13
 1036 855 1036 855 828 696 c 0,14,15
 640 552 640 552 640 354 c 1,16,-1
 480 354 l 1,17,18
 480 444 480 444 504 524 c 1,19,-1
 456 1334 l 1,20,21
 351 1299 351 1299 268 1186 c 1,22,-1
 120 1304 l 1,23,24
 316 1530 316 1530 558 1530 c 0,8,9
652 1336 m 1,25,-1
 605 717 l 1,26,27
 647 771 647 771 704 818 c 0,28,29
 836 929 836 929 836 1074 c 0,30,31
 836 1195 836 1195 753 1276 c 0,32,33
 710 1318 710 1318 652 1336 c 1,25,-1
EndSplineSet
Validated: 1
EndChar

StartChar: uni1E02
Encoding: 7682 7682 216
Width: 1238
Flags: W
HStem: -20 180<580 787.987> 0 21G<200 400> 740 180<586 710.406> 1350 180<437.598 735.015> 1598 264<473.191 654.809>
VStem: 200 200<0 1312.46> 434 260<1637.71 1822.29> 809 186<1014.23 1278.31> 938 200<293.55 618.379>
LayerCount: 2
Fore
SplineSet
434 1730 m 128,-1,1
 434 1785 434 1785 472 1823.5 c 128,-1,2
 510 1862 510 1862 564 1862 c 128,-1,3
 618 1862 618 1862 656 1823.5 c 128,-1,4
 694 1785 694 1785 694 1730 c 128,-1,5
 694 1675 694 1675 656 1636.5 c 128,-1,6
 618 1598 618 1598 564 1598 c 128,-1,7
 510 1598 510 1598 472 1636.5 c 128,-1,0
 434 1675 434 1675 434 1730 c 128,-1,1
200 0 m 1,8,-1
 200 1190 l 2,9,10
 200 1530 200 1530 560 1530 c 0,11,12
 761 1530 761 1530 872 1434 c 0,13,14
 995 1327 995 1327 995 1165 c 0,15,16
 995 1031 995 1031 904 940 c 0,17,18
 854 890 854 890 803 867 c 1,19,20
 957 836 957 836 1044 735 c 0,21,22
 1138 625 1138 625 1138 458 c 0,23,24
 1138 269 1138 269 1003 137 c 0,25,26
 841 -20 841 -20 580 -20 c 1,27,-1
 580 160 l 1,28,29
 763 160 763 160 862 256 c 0,30,31
 938 330 938 330 938 460 c 0,32,33
 938 585 938 585 864 652 c 0,34,35
 768 740 768 740 586 740 c 9,36,-1
 586 920 l 17,37,38
 664 920 664 920 736 984 c 0,39,40
 809 1049 809 1049 809 1150 c 0,41,42
 809 1239 809 1239 750 1294 c 0,43,44
 692 1350 692 1350 560 1350 c 0,45,46
 400 1350 400 1350 400 1190 c 2,47,-1
 400 0 l 1,48,-1
 200 0 l 1,8,-1
EndSplineSet
Validated: 1
EndChar

StartChar: uni1E03
Encoding: 7683 7683 217
Width: 1228
Flags: W
HStem: -20 160<422.227 747.275> 960 160<560 752.363> 1490 20G<200 380> 1598 264<204.191 385.809>
VStem: 165 260<1637.71 1822.29> 200 180<187.52 1510> 948 180<345.062 754.938>
LayerCount: 2
Fore
SplineSet
165 1730 m 128,-1,1
 165 1785 165 1785 203 1823.5 c 128,-1,2
 241 1862 241 1862 295 1862 c 128,-1,3
 349 1862 349 1862 387 1823.5 c 128,-1,4
 425 1785 425 1785 425 1730 c 128,-1,5
 425 1675 425 1675 387 1636.5 c 128,-1,6
 349 1598 349 1598 295 1598 c 128,-1,7
 241 1598 241 1598 203 1636.5 c 128,-1,0
 165 1675 165 1675 165 1730 c 128,-1,1
540 -20 m 0,8,9
 200 -20 200 -20 200 320 c 2,10,-1
 200 1510 l 1,11,-1
 380 1510 l 1,12,-1
 380 320 l 2,13,14
 380 140 380 140 540 140 c 0,15,16
 734 140 734 140 841 254 c 128,-1,17
 948 368 948 368 948 550 c 128,-1,18
 948 732 948 732 842 846 c 128,-1,19
 736 960 736 960 560 960 c 1,20,-1
 560 1120 l 1,21,22
 798 1120 798 1120 953 976 c 0,23,24
 1128 814 1128 814 1128 550 c 128,-1,25
 1128 286 1128 286 953 124 c 0,26,27
 798 -20 798 -20 540 -20 c 0,8,9
EndSplineSet
Validated: 1
EndChar

StartChar: uni1E0A
Encoding: 7690 7690 218
Width: 1616
Flags: W
HStem: -20 180<580 992.218> 0 21G<200 400> 1350 180<437.656 990.413> 1598 264<581.191 762.809>
VStem: 200 200<0 1312.46> 542 260<1637.71 1822.29> 1316 200<501.361 1008.64>
LayerCount: 2
Fore
SplineSet
542 1730 m 128,-1,1
 542 1785 542 1785 580 1823.5 c 128,-1,2
 618 1862 618 1862 672 1862 c 128,-1,3
 726 1862 726 1862 764 1823.5 c 128,-1,4
 802 1785 802 1785 802 1730 c 128,-1,5
 802 1675 802 1675 764 1636.5 c 128,-1,6
 726 1598 726 1598 672 1598 c 128,-1,7
 618 1598 618 1598 580 1636.5 c 128,-1,0
 542 1675 542 1675 542 1730 c 128,-1,1
200 0 m 1,8,-1
 200 1190 l 2,9,10
 200 1530 200 1530 560 1530 c 2,11,-1
 786 1530 l 2,12,13
 1100 1530 1100 1530 1317 1294 c 0,14,15
 1516 1076 1516 1076 1516 755 c 128,-1,16
 1516 434 1516 434 1317 216 c 0,17,18
 1104 -20 1104 -20 786 -20 c 2,19,-1
 580 -20 l 1,20,-1
 580 160 l 1,21,-1
 786 160 l 2,22,23
 1010 160 1010 160 1169 334 c 0,24,25
 1316 495 1316 495 1316 755 c 128,-1,26
 1316 1015 1316 1015 1169 1176 c 0,27,28
 1010 1350 1010 1350 786 1350 c 2,29,-1
 560 1350 l 2,30,31
 400 1350 400 1350 400 1190 c 2,32,-1
 400 0 l 1,33,-1
 200 0 l 1,8,-1
EndSplineSet
Validated: 1
EndChar

StartChar: uni1E0B
Encoding: 7691 7691 219
Width: 1228
Flags: W
HStem: -20 160<480.725 805.773> 960 160<475.637 668> 1490 20G<848 1028> 1598 264<845.191 1026.81>
VStem: 100 180<345.062 754.938> 806 260<1637.71 1822.29> 848 180<187.52 1510>
LayerCount: 2
Fore
SplineSet
806 1730 m 128,-1,1
 806 1785 806 1785 844 1823.5 c 128,-1,2
 882 1862 882 1862 936 1862 c 128,-1,3
 990 1862 990 1862 1028 1823.5 c 128,-1,4
 1066 1785 1066 1785 1066 1730 c 128,-1,5
 1066 1675 1066 1675 1028 1636.5 c 128,-1,6
 990 1598 990 1598 936 1598 c 128,-1,7
 882 1598 882 1598 844 1636.5 c 128,-1,0
 806 1675 806 1675 806 1730 c 128,-1,1
688 -20 m 0,8,9
 430 -20 430 -20 275 124 c 0,10,11
 100 286 100 286 100 550 c 128,-1,12
 100 814 100 814 275 976 c 0,13,14
 430 1120 430 1120 668 1120 c 1,15,-1
 668 960 l 1,16,17
 492 960 492 960 386 846 c 128,-1,18
 280 732 280 732 280 550 c 128,-1,19
 280 368 280 368 387 254 c 128,-1,20
 494 140 494 140 688 140 c 0,21,22
 848 140 848 140 848 320 c 2,23,-1
 848 1510 l 1,24,-1
 1028 1510 l 1,25,-1
 1028 320 l 2,26,27
 1028 -20 1028 -20 688 -20 c 0,8,9
EndSplineSet
Validated: 1
EndChar

StartChar: uni1E1E
Encoding: 7710 7710 220
Width: 1136
Flags: W
HStem: 0 21G<200 400> 661 180<437.656 936> 1330 180<437.656 936> 1598 264<559.191 740.809>
VStem: 200 200<0 623.461 901 1292.46> 520 260<1637.71 1822.29>
LayerCount: 2
Fore
SplineSet
520 1730 m 128,-1,1
 520 1785 520 1785 558 1823.5 c 128,-1,2
 596 1862 596 1862 650 1862 c 128,-1,3
 704 1862 704 1862 742 1823.5 c 128,-1,4
 780 1785 780 1785 780 1730 c 128,-1,5
 780 1675 780 1675 742 1636.5 c 128,-1,6
 704 1598 704 1598 650 1598 c 128,-1,7
 596 1598 596 1598 558 1636.5 c 128,-1,0
 520 1675 520 1675 520 1730 c 128,-1,1
200 901 m 1,8,-1
 200 1170 l 2,9,10
 200 1510 200 1510 560 1510 c 2,11,-1
 936 1510 l 1,12,-1
 936 1330 l 1,13,-1
 560 1330 l 2,14,15
 400 1330 400 1330 400 1170 c 2,16,-1
 400 901 l 1,17,-1
 200 901 l 1,8,-1
200 0 m 1,18,-1
 200 501 l 2,19,20
 200 841 200 841 560 841 c 2,21,-1
 936 841 l 1,22,-1
 936 661 l 1,23,-1
 560 661 l 2,24,25
 400 661 400 661 400 501 c 1,26,-1
 400 0 l 1,27,-1
 200 0 l 1,18,-1
EndSplineSet
Validated: 1
EndChar

StartChar: uni1E1F
Encoding: 7711 7711 221
Width: 740
Flags: W
HStem: 0 21G<200 380> 940 160<424.453 730> 1370 160<485.833 730> 1598 264<389.191 570.809>
VStem: 200 180<0 892.48 1160 1276.26> 350 260<1637.71 1822.29>
LayerCount: 2
Fore
SplineSet
350 1730 m 128,-1,1
 350 1785 350 1785 388 1823.5 c 128,-1,2
 426 1862 426 1862 480 1862 c 128,-1,3
 534 1862 534 1862 572 1823.5 c 128,-1,4
 610 1785 610 1785 610 1730 c 128,-1,5
 610 1675 610 1675 572 1636.5 c 128,-1,6
 534 1598 534 1598 480 1598 c 128,-1,7
 426 1598 426 1598 388 1636.5 c 128,-1,0
 350 1675 350 1675 350 1730 c 128,-1,1
200 0 m 1,8,-1
 200 760 l 2,9,10
 200 1100 200 1100 540 1100 c 2,11,-1
 730 1100 l 25,12,-1
 730 940 l 25,13,-1
 540 940 l 18,14,15
 380 940 380 940 380 760 c 2,16,-1
 380 0 l 1,17,-1
 200 0 l 1,8,-1
200 1160 m 1,18,19
 200 1530 200 1530 730 1530 c 1,20,-1
 730 1370 l 1,21,22
 380 1370 380 1370 380 1160 c 1,23,-1
 200 1160 l 1,18,19
EndSplineSet
Validated: 1
EndChar

StartChar: uni1E40
Encoding: 7744 7744 222
Width: 2180
Flags: W
HStem: 0 21G<367 659 990 1190 1521 1813> 1350 180<625.587 1554.41> 1598 264<1008.19 1189.81>
VStem: 100 200<427.041 1003.49> 969 260<1637.71 1822.29> 990 200<0 1170> 1880 200<427.041 1003.49>
LayerCount: 2
Fore
SplineSet
990 0 m 1,0,-1
 990 1170 l 1,1,-1
 1190 1170 l 1,2,-1
 1190 0 l 1,3,-1
 990 0 l 1,0,-1
659 0 m 1,4,5
 421 0 l 1,6,7
 313 95 313 95 239 216 c 0,8,9
 100 443 100 443 100 735 c 0,10,11
 100 1076 100 1076 299 1294 c 0,12,13
 516 1530 516 1530 830 1530 c 2,14,-1
 1350 1530 l 2,15,16
 1664 1530 1664 1530 1881 1294 c 0,17,18
 2080 1076 2080 1076 2080 735 c 0,19,20
 2080 443 2080 443 1941 216 c 0,21,22
 1867 95 1867 95 1759 0 c 1,23,-1
 1521 0 l 1,24,25
 1717 133 1717 133 1804 340 c 0,26,27
 1880 522 1880 522 1880 735 c 0,28,29
 1879 1016 1879 1016 1733 1176 c 0,30,31
 1574 1350 1574 1350 1350 1350 c 2,32,-1
 830 1350 l 2,33,34
 606 1350 606 1350 447 1176 c 0,35,36
 301 1016 301 1016 300 735 c 0,37,38
 300 522 300 522 376 340 c 0,39,40
 463 133 463 133 659 0 c 1,4,5
969 1730 m 128,-1,42
 969 1785 969 1785 1007 1823.5 c 128,-1,43
 1045 1862 1045 1862 1099 1862 c 128,-1,44
 1153 1862 1153 1862 1191 1823.5 c 128,-1,45
 1229 1785 1229 1785 1229 1730 c 128,-1,46
 1229 1675 1229 1675 1191 1636.5 c 128,-1,47
 1153 1598 1153 1598 1099 1598 c 128,-1,48
 1045 1598 1045 1598 1007 1636.5 c 128,-1,41
 969 1675 969 1675 969 1730 c 128,-1,42
EndSplineSet
Validated: 1
EndChar

StartChar: uni1E41
Encoding: 7745 7745 223
Width: 1658
Flags: W
HStem: 0 21G<304.5 570 739 919 1088 1353.5> 960 160<493.615 1164.39> 1210 264<746.191 927.809>
VStem: 100 180<315.936 756.256> 349 221<0 221> 707 260<1249.71 1434.29> 739 180<0 780> 1088 221<0 221> 1378 180<315.936 756.256>
LayerCount: 2
Fore
SplineSet
570 0 m 1,0,1
 349 0 l 1,2,3
 260 83 260 83 192 199 c 0,4,5
 100 356 100 356 100 550 c 0,6,7
 100 819 100 819 281 980 c 0,8,9
 438 1120 438 1120 688 1120 c 2,10,-1
 970 1120 l 2,11,12
 1220 1120 1220 1120 1377 980 c 0,13,14
 1558 819 1558 819 1558 550 c 0,15,16
 1558 356 1558 356 1466 199 c 0,17,18
 1398 83 1398 83 1309 0 c 1,19,-1
 1088 0 l 1,20,21
 1230 126 1230 126 1298 244 c 0,22,23
 1378 383 1378 383 1378 550 c 0,24,25
 1378 741 1378 741 1267 845 c 0,26,27
 1144 960 1144 960 970 960 c 2,28,-1
 688 960 l 2,29,30
 514 960 514 960 391 845 c 0,31,32
 280 741 280 741 280 550 c 0,33,34
 280 383 280 383 360 244 c 0,35,36
 428 125 428 125 570 0 c 1,0,1
919 0 m 1,37,-1
 739 0 l 1,38,-1
 739 780 l 9,39,-1
 919 780 l 17,40,-1
 919 0 l 1,37,-1
707 1342 m 128,-1,42
 707 1397 707 1397 745 1435.5 c 128,-1,43
 783 1474 783 1474 837 1474 c 128,-1,44
 891 1474 891 1474 929 1435.5 c 128,-1,45
 967 1397 967 1397 967 1342 c 128,-1,46
 967 1287 967 1287 929 1248.5 c 128,-1,47
 891 1210 891 1210 837 1210 c 128,-1,48
 783 1210 783 1210 745 1248.5 c 128,-1,41
 707 1287 707 1287 707 1342 c 128,-1,42
EndSplineSet
Validated: 1
EndChar

StartChar: uni1E56
Encoding: 7766 7766 224
Width: 1324
Flags: W
HStem: 0 21G<200 400> 380 181<580 803.974> 1350 180<437.598 812.31> 1598 264<470.191 651.809>
VStem: 200 200<0 1312.46> 431 260<1637.71 1822.29> 1024 200<773.009 1156.75>
LayerCount: 2
Fore
SplineSet
431 1730 m 128,-1,1
 431 1785 431 1785 469 1823.5 c 128,-1,2
 507 1862 507 1862 561 1862 c 128,-1,3
 615 1862 615 1862 653 1823.5 c 128,-1,4
 691 1785 691 1785 691 1730 c 128,-1,5
 691 1675 691 1675 653 1636.5 c 128,-1,6
 615 1598 615 1598 561 1598 c 128,-1,7
 507 1598 507 1598 469 1636.5 c 128,-1,0
 431 1675 431 1675 431 1730 c 128,-1,1
200 0 m 1,8,-1
 200 1190 l 2,9,10
 200 1530 200 1530 560 1530 c 0,11,12
 851 1530 851 1530 1018 1399 c 24,13,14
 1224 1236 1224 1236 1224 974 c 0,15,16
 1224 751 1224 751 1084 594 c 0,17,18
 893 380 893 380 580 380 c 1,19,-1
 580 561 l 17,20,21
 798 561 798 561 917 684 c 0,22,23
 1024 795 1024 795 1024 974 c 0,24,25
 1024 1150 1024 1150 900 1252 c 0,26,27
 783 1350 783 1350 560 1350 c 0,28,29
 400 1350 400 1350 400 1190 c 2,30,-1
 400 0 l 1,31,-1
 200 0 l 1,8,-1
EndSplineSet
Validated: 1
EndChar

StartChar: uni1E57
Encoding: 7767 7767 225
Width: 1228
Flags: W
HStem: -20 160<560 752.363> 960 160<422.227 747.275> 1210 264<451.191 632.809>
VStem: 200 180<-410 912.48> 412 260<1249.71 1434.29> 948 180<345.062 754.938>
LayerCount: 2
Fore
SplineSet
412 1342 m 128,-1,1
 412 1397 412 1397 450 1435.5 c 128,-1,2
 488 1474 488 1474 542 1474 c 128,-1,3
 596 1474 596 1474 634 1435.5 c 128,-1,4
 672 1397 672 1397 672 1342 c 128,-1,5
 672 1287 672 1287 634 1248.5 c 128,-1,6
 596 1210 596 1210 542 1210 c 128,-1,7
 488 1210 488 1210 450 1248.5 c 128,-1,0
 412 1287 412 1287 412 1342 c 128,-1,1
560 -20 m 1,8,-1
 560 140 l 1,9,10
 736 140 736 140 842 254 c 128,-1,11
 948 368 948 368 948 550 c 128,-1,12
 948 732 948 732 841 846 c 128,-1,13
 734 960 734 960 540 960 c 0,14,15
 380 960 380 960 380 780 c 2,16,-1
 380 -410 l 1,17,-1
 200 -410 l 1,18,-1
 200 780 l 2,19,20
 200 1120 200 1120 540 1120 c 0,21,22
 798 1120 798 1120 953 976 c 0,23,24
 1128 814 1128 814 1128 550 c 128,-1,25
 1128 286 1128 286 953 124 c 0,26,27
 798 -20 798 -20 560 -20 c 1,8,-1
EndSplineSet
Validated: 1
EndChar

StartChar: uni1E60
Encoding: 7776 7776 226
Width: 1241
Flags: W
HStem: -20 180<397.547 771.41> 1351 180<513.38 790.519> 1598 264<561.191 742.809>
VStem: 270 194<1074.55 1301.07> 522 260<1637.71 1822.29> 921 200<306.057 597.542>
DStem2: 653 970 593 778 0.907959 -0.419058<-196.7 355.131>
LayerCount: 2
Fore
SplineSet
522 1730 m 128,-1,1
 522 1785 522 1785 560 1823.5 c 128,-1,2
 598 1862 598 1862 652 1862 c 128,-1,3
 706 1862 706 1862 744 1823.5 c 128,-1,4
 782 1785 782 1785 782 1730 c 128,-1,5
 782 1675 782 1675 744 1636.5 c 128,-1,6
 706 1598 706 1598 652 1598 c 128,-1,7
 598 1598 598 1598 560 1636.5 c 128,-1,0
 522 1675 522 1675 522 1730 c 128,-1,1
100 206 m 1,8,-1
 248 324 l 1,9,10
 381 160 381 160 592 160 c 0,11,12
 740 160 740 160 830 249 c 0,13,14
 921 339 921 339 921 457 c 0,15,16
 921 626 921 626 718 720 c 2,17,-1
 593 778 l 2,18,19
 270 928 270 928 270 1185 c 0,20,21
 270 1348 270 1348 404 1456 c 0,22,23
 499 1531 499 1531 651 1531 c 0,24,25
 838 1531 838 1531 982 1387 c 1,26,-1
 842 1265 l 1,27,28
 752 1351 752 1351 651 1351 c 0,29,30
 560 1351 560 1351 512 1305.5 c 128,-1,31
 464 1260 464 1260 464 1188 c 0,32,33
 464 1057 464 1057 653 970 c 2,34,-1
 822 892 l 2,35,36
 1121 754 1121 754 1121 458 c 0,37,38
 1121 292 1121 292 997 148 c 0,39,40
 853 -20 853 -20 574 -20 c 128,-1,41
 295 -20 295 -20 100 206 c 1,8,-1
EndSplineSet
Validated: 1
EndChar

StartChar: uni1E61
Encoding: 7777 7777 227
Width: 967
Flags: W
HStem: -20 160<274.723 606.81> 960 160<391.542 614.851> 1210 264<403.191 584.809>
VStem: 181 180<761.981 935.679> 364 260<1249.71 1434.29> 687 180<216.033 437.785>
DStem2: 504 704 440 535 0.932266 -0.361775<-158.372 267.345>
LayerCount: 2
Fore
SplineSet
364 1342 m 128,-1,1
 364 1397 364 1397 402 1435.5 c 128,-1,2
 440 1474 440 1474 494 1474 c 128,-1,3
 548 1474 548 1474 586 1435.5 c 128,-1,4
 624 1397 624 1397 624 1342 c 128,-1,5
 624 1287 624 1287 586 1248.5 c 128,-1,6
 548 1210 548 1210 494 1210 c 128,-1,7
 440 1210 440 1210 402 1248.5 c 128,-1,0
 364 1287 364 1287 364 1342 c 128,-1,1
427 -20 m 0,8,9
 235 -20 235 -20 80 119 c 1,10,-1
 201 244 l 1,11,12
 296 140 296 140 442 140 c 0,13,14
 550 140 550 140 616 191 c 0,15,16
 687 246 687 246 687 330 c 0,17,18
 687 444 687 444 548 495 c 2,19,-1
 440 535 l 2,20,21
 181 631 181 631 181 845 c 0,22,23
 181 964 181 964 279 1050 c 0,24,25
 362 1120 362 1120 494 1120 c 0,26,27
 666 1120 666 1120 781 995 c 1,28,-1
 660 870 l 1,29,30
 587 960 587 960 492 960 c 0,31,32
 435 960 435 960 401 936 c 0,33,34
 361 908 361 908 361 849 c 0,35,36
 361 759 361 759 504 704 c 2,37,-1
 638 652 l 2,38,39
 867 563 867 563 867 350 c 0,40,41
 867 194 867 194 759 92 c 0,42,43
 640 -20 640 -20 427 -20 c 0,8,9
EndSplineSet
Validated: 1
EndChar

StartChar: uni1E6A
Encoding: 7786 7786 228
Width: 1090
Flags: W
HStem: 0 21G<446 646> 1330 180<10 386 683.656 1080> 1598 264<461.191 642.809>
VStem: 422 260<1637.71 1822.29> 446 200<0 1292.46>
LayerCount: 2
Fore
SplineSet
422 1730 m 128,-1,1
 422 1785 422 1785 460 1823.5 c 128,-1,2
 498 1862 498 1862 552 1862 c 128,-1,3
 606 1862 606 1862 644 1823.5 c 128,-1,4
 682 1785 682 1785 682 1730 c 128,-1,5
 682 1675 682 1675 644 1636.5 c 128,-1,6
 606 1598 606 1598 552 1598 c 128,-1,7
 498 1598 498 1598 460 1636.5 c 128,-1,0
 422 1675 422 1675 422 1730 c 128,-1,1
10 1510 m 25,8,-1
 386 1510 l 25,9,-1
 386 1330 l 25,10,-1
 10 1330 l 25,11,-1
 10 1510 l 25,8,-1
446 0 m 1,12,-1
 446 1170 l 2,13,14
 446 1510 446 1510 806 1510 c 2,15,-1
 1080 1510 l 25,16,-1
 1080 1330 l 25,17,-1
 806 1330 l 18,18,19
 646 1330 646 1330 646 1170 c 2,20,-1
 646 0 l 1,21,-1
 446 0 l 1,12,-1
EndSplineSet
Validated: 1
EndChar

StartChar: uni1E6B
Encoding: 7787 7787 229
Width: 740
Flags: W
HStem: 0 21G<200 380> 940 160<424.453 730> 1160 350<200 380> 1598 264<204.191 385.809>
VStem: 165 260<1637.71 1822.29> 200 180<0 892.48 1160 1510>
LayerCount: 2
Fore
SplineSet
165 1730 m 128,-1,1
 165 1785 165 1785 203 1823.5 c 128,-1,2
 241 1862 241 1862 295 1862 c 128,-1,3
 349 1862 349 1862 387 1823.5 c 128,-1,4
 425 1785 425 1785 425 1730 c 128,-1,5
 425 1675 425 1675 387 1636.5 c 128,-1,6
 349 1598 349 1598 295 1598 c 128,-1,7
 241 1598 241 1598 203 1636.5 c 128,-1,0
 165 1675 165 1675 165 1730 c 128,-1,1
200 0 m 1,8,-1
 200 760 l 2,9,10
 200 1100 200 1100 540 1100 c 2,11,-1
 730 1100 l 25,12,-1
 730 940 l 25,13,-1
 540 940 l 18,14,15
 380 940 380 940 380 760 c 2,16,-1
 380 0 l 1,17,-1
 200 0 l 1,8,-1
200 1510 m 1,18,-1
 380 1510 l 1,19,-1
 380 1160 l 1,20,-1
 200 1160 l 1,21,-1
 200 1510 l 1,18,-1
EndSplineSet
Validated: 1
EndChar

StartChar: uni1E9E
Encoding: 7838 7838 230
Width: 1376
Flags: W
HStem: -20 180<742.178 999.894> 0 21G<200 390> 1350 180<429.244 774.872>
VStem: 200 190<0 1305.55> 523 181<201.223 295> 620 180<862.973 1008.37> 1096 180<262.44 541.749>
LayerCount: 2
Fore
SplineSet
200 0 m 1,0,-1
 200 1190 l 2,1,2
 200 1530 200 1530 560 1530 c 0,3,4
 772 1530 772 1530 925 1422 c 0,5,6
 1135 1274 1135 1274 1135 1069 c 1,7,8
 929 1050 929 1050 874 1025 c 0,9,10
 800 992 800 992 800 932 c 0,11,12
 800 864 800 864 948 814 c 24,13,14
 1276 703 1276 703 1276 428 c 0,15,16
 1276 259 1276 259 1178 130 c 0,17,18
 1063 -20 1063 -20 859 -20 c 0,19,20
 665 -20 665 -20 585 79 c 0,21,22
 523 156 523 156 523 295 c 9,23,-1
 704 295 l 17,24,25
 704 239 704 239 744 200 c 0,26,27
 784 160 784 160 863 160 c 0,28,29
 985 160 985 160 1048 256 c 0,30,31
 1096 328 1096 328 1096 428 c 0,32,33
 1096 584 1096 584 827 669 c 0,34,35
 620 735 620 735 620 910 c 0,36,37
 620 1039 620 1039 728 1111 c 0,38,39
 809 1164 809 1164 923 1179 c 1,40,41
 884 1245 884 1245 806 1289 c 0,42,43
 700 1350 700 1350 560 1350 c 0,44,45
 390 1350 390 1350 390 1190 c 2,46,-1
 390 0 l 1,47,-1
 200 0 l 1,0,-1
EndSplineSet
Validated: 1
EndChar

StartChar: dotlessi
Encoding: 305 305 231
Width: 580
Flags: W
HStem: 0 21G<200 380> 1080 20G<200 380>
VStem: 200 180<0 1100>
LayerCount: 2
Fore
SplineSet
200 0 m 1,0,-1
 200 1100 l 1,1,-1
 380 1100 l 1,2,-1
 380 0 l 1,3,-1
 200 0 l 1,0,-1
EndSplineSet
Validated: 1
EndChar

StartChar: Ograve
Encoding: 210 210 232
Width: 1660
Flags: W
HStem: -20 180<623.467 1036.98> 1350 180<623.918 1036.08>
VStem: 100 200<501.361 1008.64> 1360 200<501.361 1008.64>
DStem2: 664 1910 570 1805 0.743294 -0.668965<0.371647 349.794>
LayerCount: 2
Fore
SplineSet
664 1910 m 1,0,-1
 924 1676 l 1,1,-1
 830 1571 l 1,2,-1
 570 1805 l 1,3,-1
 664 1910 l 1,0,-1
1360 755 m 128,-1,5
 1360 1015 1360 1015 1213 1176 c 0,6,7
 1054 1350 1054 1350 830 1350 c 128,-1,8
 606 1350 606 1350 447 1176 c 0,9,10
 300 1015 300 1015 300 755 c 128,-1,11
 300 495 300 495 447 334 c 0,12,13
 606 160 606 160 830 160 c 128,-1,14
 1054 160 1054 160 1213 334 c 0,15,4
 1360 495 1360 495 1360 755 c 128,-1,5
830 -20 m 0,16,17
 514 -20 514 -20 299 216 c 0,18,19
 100 434 100 434 100 755 c 128,-1,20
 100 1076 100 1076 299 1294 c 0,21,22
 516 1530 516 1530 830 1530 c 128,-1,23
 1144 1530 1144 1530 1361 1294 c 0,24,25
 1560 1076 1560 1076 1560 755 c 128,-1,26
 1560 434 1560 434 1361 216 c 0,27,28
 1148 -20 1148 -20 830 -20 c 0,16,17
EndSplineSet
Validated: 1
EndChar

StartChar: Oacute
Encoding: 211 211 233
Width: 1660
Flags: W
HStem: -20 180<623.467 1036.98> 1350 180<623.918 1036.08>
VStem: 100 200<501.361 1008.64> 1360 200<501.361 1008.64>
DStem2: 736 1675 830 1570 0.743294 0.668965<0 349.423>
LayerCount: 2
Fore
SplineSet
996 1909 m 1,0,-1
 1090 1804 l 1,1,-1
 830 1570 l 1,2,-1
 736 1675 l 1,3,-1
 996 1909 l 1,0,-1
1360 755 m 128,-1,5
 1360 1015 1360 1015 1213 1176 c 0,6,7
 1054 1350 1054 1350 830 1350 c 128,-1,8
 606 1350 606 1350 447 1176 c 0,9,10
 300 1015 300 1015 300 755 c 128,-1,11
 300 495 300 495 447 334 c 0,12,13
 606 160 606 160 830 160 c 128,-1,14
 1054 160 1054 160 1213 334 c 0,15,4
 1360 495 1360 495 1360 755 c 128,-1,5
830 -20 m 0,16,17
 514 -20 514 -20 299 216 c 0,18,19
 100 434 100 434 100 755 c 128,-1,20
 100 1076 100 1076 299 1294 c 0,21,22
 516 1530 516 1530 830 1530 c 128,-1,23
 1144 1530 1144 1530 1361 1294 c 0,24,25
 1560 1076 1560 1076 1560 755 c 128,-1,26
 1560 434 1560 434 1361 216 c 0,27,28
 1148 -20 1148 -20 830 -20 c 0,16,17
EndSplineSet
Validated: 1
EndChar

StartChar: Ocircumflex
Encoding: 212 212 234
Width: 1660
Flags: W
HStem: -20 180<623.467 1036.98> 1350 180<623.918 1036.08> 1726 198<731 929>
VStem: 100 200<501.361 1008.64> 1360 200<501.361 1008.64>
DStem2: 575 1669 674 1570 0.707107 0.707107<0 220.617> 830 1924 830 1726 0.707107 -0.707107<140.007 360.624>
LayerCount: 2
Fore
SplineSet
830 1924 m 1,0,-1
 1085 1669 l 1,1,-1
 986 1570 l 1,2,-1
 830 1726 l 1,3,-1
 674 1570 l 1,4,-1
 575 1669 l 1,5,-1
 830 1924 l 1,0,-1
1360 755 m 128,-1,7
 1360 1015 1360 1015 1213 1176 c 0,8,9
 1054 1350 1054 1350 830 1350 c 128,-1,10
 606 1350 606 1350 447 1176 c 0,11,12
 300 1015 300 1015 300 755 c 128,-1,13
 300 495 300 495 447 334 c 0,14,15
 606 160 606 160 830 160 c 128,-1,16
 1054 160 1054 160 1213 334 c 0,17,6
 1360 495 1360 495 1360 755 c 128,-1,7
830 -20 m 0,18,19
 514 -20 514 -20 299 216 c 0,20,21
 100 434 100 434 100 755 c 128,-1,22
 100 1076 100 1076 299 1294 c 0,23,24
 516 1530 516 1530 830 1530 c 128,-1,25
 1144 1530 1144 1530 1361 1294 c 0,26,27
 1560 1076 1560 1076 1560 755 c 128,-1,28
 1560 434 1560 434 1361 216 c 0,29,30
 1148 -20 1148 -20 830 -20 c 0,18,19
EndSplineSet
Validated: 1
EndChar

StartChar: Otilde
Encoding: 213 213 235
Width: 1660
Flags: W
HStem: -20 180<623.467 1036.98> 1350 180<623.918 1036.08> 1590 138<864.697 970.613> 1698 138<694.387 800.303>
VStem: 100 200<501.361 1008.64> 554 120<1637.07 1689> 991 120<1737 1788.93> 1360 200<501.361 1008.64>
LayerCount: 2
Fore
SplineSet
991 1840 m 1,0,-1
 1111 1782 l 1,1,2
 1061 1590 1061 1590 921 1590 c 0,3,4
 865 1590 865 1590 830 1624 c 2,5,-1
 774 1679 l 2,6,7
 755 1698 755 1698 737 1698 c 0,8,9
 698 1698 698 1698 674 1586 c 1,10,-1
 554 1644 l 1,11,12
 604 1836 604 1836 744 1836 c 0,13,14
 800 1836 800 1836 835 1802 c 2,15,-1
 891 1747 l 2,16,17
 910 1728 910 1728 928 1728 c 0,18,19
 967 1728 967 1728 991 1840 c 1,0,-1
1360 755 m 128,-1,21
 1360 1015 1360 1015 1213 1176 c 0,22,23
 1054 1350 1054 1350 830 1350 c 128,-1,24
 606 1350 606 1350 447 1176 c 0,25,26
 300 1015 300 1015 300 755 c 128,-1,27
 300 495 300 495 447 334 c 0,28,29
 606 160 606 160 830 160 c 128,-1,30
 1054 160 1054 160 1213 334 c 0,31,20
 1360 495 1360 495 1360 755 c 128,-1,21
830 -20 m 0,32,33
 514 -20 514 -20 299 216 c 0,34,35
 100 434 100 434 100 755 c 128,-1,36
 100 1076 100 1076 299 1294 c 0,37,38
 516 1530 516 1530 830 1530 c 128,-1,39
 1144 1530 1144 1530 1361 1294 c 0,40,41
 1560 1076 1560 1076 1560 755 c 128,-1,42
 1560 434 1560 434 1361 216 c 0,43,44
 1148 -20 1148 -20 830 -20 c 0,32,33
EndSplineSet
Validated: 1
EndChar

StartChar: Odieresis
Encoding: 214 214 236
Width: 1660
Flags: W
HStem: -20 180<623.467 1036.98> 1350 180<623.918 1036.08> 1590 224<603.003 756.997 903.003 1057>
VStem: 100 200<501.361 1008.64> 570 220<1623.52 1780.48> 870 220<1623.52 1780.48> 1360 200<501.361 1008.64>
LayerCount: 2
Fore
SplineSet
870 1702 m 128,-1,1
 870 1749 870 1749 902 1781.5 c 128,-1,2
 934 1814 934 1814 980 1814 c 128,-1,3
 1026 1814 1026 1814 1058 1781.5 c 128,-1,4
 1090 1749 1090 1749 1090 1702 c 128,-1,5
 1090 1655 1090 1655 1058 1622.5 c 128,-1,6
 1026 1590 1026 1590 980 1590 c 128,-1,7
 934 1590 934 1590 902 1622.5 c 128,-1,0
 870 1655 870 1655 870 1702 c 128,-1,1
570 1702 m 128,-1,9
 570 1749 570 1749 602 1781.5 c 128,-1,10
 634 1814 634 1814 680 1814 c 128,-1,11
 726 1814 726 1814 758 1781.5 c 128,-1,12
 790 1749 790 1749 790 1702 c 128,-1,13
 790 1655 790 1655 758 1622.5 c 128,-1,14
 726 1590 726 1590 680 1590 c 128,-1,15
 634 1590 634 1590 602 1622.5 c 128,-1,8
 570 1655 570 1655 570 1702 c 128,-1,9
1360 755 m 128,-1,17
 1360 1015 1360 1015 1213 1176 c 0,18,19
 1054 1350 1054 1350 830 1350 c 128,-1,20
 606 1350 606 1350 447 1176 c 0,21,22
 300 1015 300 1015 300 755 c 128,-1,23
 300 495 300 495 447 334 c 0,24,25
 606 160 606 160 830 160 c 128,-1,26
 1054 160 1054 160 1213 334 c 0,27,16
 1360 495 1360 495 1360 755 c 128,-1,17
830 -20 m 0,28,29
 514 -20 514 -20 299 216 c 0,30,31
 100 434 100 434 100 755 c 128,-1,32
 100 1076 100 1076 299 1294 c 0,33,34
 516 1530 516 1530 830 1530 c 128,-1,35
 1144 1530 1144 1530 1361 1294 c 0,36,37
 1560 1076 1560 1076 1560 755 c 128,-1,38
 1560 434 1560 434 1361 216 c 0,39,40
 1148 -20 1148 -20 830 -20 c 0,28,29
EndSplineSet
Validated: 1
EndChar

StartChar: Omacron
Encoding: 332 332 237
Width: 1660
Flags: W
HStem: -20 180<623.467 1036.98> 1350 180<623.918 1036.08> 1646 140<574 1077>
VStem: 100 200<501.361 1008.64> 1360 200<501.361 1008.64>
LayerCount: 2
Fore
SplineSet
574 1786 m 1,0,-1
 1077 1786 l 1,1,-1
 1077 1646 l 1,2,-1
 574 1646 l 1,3,-1
 574 1786 l 1,0,-1
1360 755 m 128,-1,5
 1360 1015 1360 1015 1213 1176 c 0,6,7
 1054 1350 1054 1350 830 1350 c 128,-1,8
 606 1350 606 1350 447 1176 c 0,9,10
 300 1015 300 1015 300 755 c 128,-1,11
 300 495 300 495 447 334 c 0,12,13
 606 160 606 160 830 160 c 128,-1,14
 1054 160 1054 160 1213 334 c 0,15,4
 1360 495 1360 495 1360 755 c 128,-1,5
830 -20 m 0,16,17
 514 -20 514 -20 299 216 c 0,18,19
 100 434 100 434 100 755 c 128,-1,20
 100 1076 100 1076 299 1294 c 0,21,22
 516 1530 516 1530 830 1530 c 128,-1,23
 1144 1530 1144 1530 1361 1294 c 0,24,25
 1560 1076 1560 1076 1560 755 c 128,-1,26
 1560 434 1560 434 1361 216 c 0,27,28
 1148 -20 1148 -20 830 -20 c 0,16,17
EndSplineSet
Validated: 1
EndChar

StartChar: Obreve
Encoding: 334 334 238
Width: 1660
Flags: W
HStem: -20 180<623.467 1036.98> 1350 180<623.918 1036.08> 1612 140<666.894 1000.28>
VStem: 100 200<501.361 1008.64> 1360 200<501.361 1008.64>
LayerCount: 2
Fore
SplineSet
585 1855 m 17,0,1
 701 1752 701 1752 832 1752 c 128,-1,2
 963 1752 963 1752 1085 1855 c 1,3,-1
 1085 1688 l 1,4,5
 973 1612 973 1612 830 1612 c 128,-1,6
 687 1612 687 1612 585 1688 c 1,7,-1
 585 1855 l 17,0,1
1360 755 m 128,-1,9
 1360 1015 1360 1015 1213 1176 c 0,10,11
 1054 1350 1054 1350 830 1350 c 128,-1,12
 606 1350 606 1350 447 1176 c 0,13,14
 300 1015 300 1015 300 755 c 128,-1,15
 300 495 300 495 447 334 c 0,16,17
 606 160 606 160 830 160 c 128,-1,18
 1054 160 1054 160 1213 334 c 0,19,8
 1360 495 1360 495 1360 755 c 128,-1,9
830 -20 m 0,20,21
 514 -20 514 -20 299 216 c 0,22,23
 100 434 100 434 100 755 c 128,-1,24
 100 1076 100 1076 299 1294 c 0,25,26
 516 1530 516 1530 830 1530 c 128,-1,27
 1144 1530 1144 1530 1361 1294 c 0,28,29
 1560 1076 1560 1076 1560 755 c 128,-1,30
 1560 434 1560 434 1361 216 c 0,31,32
 1148 -20 1148 -20 830 -20 c 0,20,21
EndSplineSet
Validated: 1
EndChar

StartChar: Ohungarumlaut
Encoding: 336 336 239
Width: 1660
Flags: W
HStem: -20 180<623.467 1036.98> 1350 180<623.918 1036.08>
VStem: 100 200<501.361 1008.64> 1360 200<501.361 1008.64>
DStem2: 580 1675 674 1570 0.743294 0.668965<0 349.423> 920 1675 1014 1570 0.743294 0.668965<0 349.423>
LayerCount: 2
Fore
SplineSet
1180 1909 m 1,0,-1
 1274 1804 l 1,1,-1
 1014 1570 l 1,2,-1
 920 1675 l 1,3,-1
 1180 1909 l 1,0,-1
840 1909 m 1,4,-1
 934 1804 l 1,5,-1
 674 1570 l 1,6,-1
 580 1675 l 1,7,-1
 840 1909 l 1,4,-1
1360 755 m 128,-1,9
 1360 1015 1360 1015 1213 1176 c 0,10,11
 1054 1350 1054 1350 830 1350 c 128,-1,12
 606 1350 606 1350 447 1176 c 0,13,14
 300 1015 300 1015 300 755 c 128,-1,15
 300 495 300 495 447 334 c 0,16,17
 606 160 606 160 830 160 c 128,-1,18
 1054 160 1054 160 1213 334 c 0,19,8
 1360 495 1360 495 1360 755 c 128,-1,9
830 -20 m 0,20,21
 514 -20 514 -20 299 216 c 0,22,23
 100 434 100 434 100 755 c 128,-1,24
 100 1076 100 1076 299 1294 c 0,25,26
 516 1530 516 1530 830 1530 c 128,-1,27
 1144 1530 1144 1530 1361 1294 c 0,28,29
 1560 1076 1560 1076 1560 755 c 128,-1,30
 1560 434 1560 434 1361 216 c 0,31,32
 1148 -20 1148 -20 830 -20 c 0,20,21
EndSplineSet
Validated: 1
EndChar

StartChar: Agrave
Encoding: 192 192 240
Width: 1626
Flags: W
HStem: 0 21G<5 204.292 1406.71 1621> 561 180<459.277 951> 1490 20G<698.691 927.311>
DStem2: 5 0 195 0 0.422064 0.906566<80.1921 692.782 963.781 1528.39> 648 1909 554 1804 0.743294 -0.668965<0.371647 349.794> 918 1510 806 1313 0.422064 -0.906566<131.322 1579.1>
LayerCount: 2
Fore
SplineSet
5 0 m 1,0,-1
 215 452 l 2,1,2
 349 741 349 741 610 741 c 2,3,-1
 951 741 l 25,4,-1
 951 561 l 25,5,-1
 610 561 l 2,6,7
 456 561 456 561 405 452 c 2,8,-1
 195 0 l 1,9,-1
 5 0 l 1,0,-1
1621 0 m 1,10,-1
 1416 0 l 1,11,-1
 806 1313 l 1,12,-1
 568 801 l 1,13,-1
 378 801 l 1,14,-1
 708 1510 l 1,15,-1
 918 1510 l 1,16,-1
 1621 0 l 1,10,-1
648 1909 m 1,17,-1
 908 1675 l 1,18,-1
 814 1570 l 1,19,-1
 554 1804 l 1,20,-1
 648 1909 l 1,17,-1
EndSplineSet
Validated: 19457
EndChar

StartChar: Aacute
Encoding: 193 193 241
Width: 1626
Flags: W
HStem: 0 21G<5 204.292 1406.71 1621> 561 180<459.277 951> 1490 20G<698.691 927.311>
DStem2: 5 0 195 0 0.422064 0.906566<80.1921 692.782 963.781 1528.39> 719 1675 813 1570 0.743294 0.668965<0 349.423> 918 1510 806 1313 0.422064 -0.906566<131.322 1579.1>
LayerCount: 2
Fore
SplineSet
5 0 m 1,0,-1
 215 452 l 2,1,2
 349 741 349 741 610 741 c 2,3,-1
 951 741 l 25,4,-1
 951 561 l 25,5,-1
 610 561 l 2,6,7
 456 561 456 561 405 452 c 2,8,-1
 195 0 l 1,9,-1
 5 0 l 1,0,-1
1621 0 m 1,10,-1
 1416 0 l 1,11,-1
 806 1313 l 1,12,-1
 568 801 l 1,13,-1
 378 801 l 1,14,-1
 708 1510 l 1,15,-1
 918 1510 l 1,16,-1
 1621 0 l 1,10,-1
979 1909 m 1,17,-1
 1073 1804 l 1,18,-1
 813 1570 l 1,19,-1
 719 1675 l 1,20,-1
 979 1909 l 1,17,-1
EndSplineSet
Validated: 19457
EndChar

StartChar: Acircumflex
Encoding: 194 194 242
Width: 1626
Flags: W
HStem: 0 21G<5 204.292 1406.71 1621> 561 180<459.277 951> 1490 20G<698.691 927.311> 1726 198<714 912>
DStem2: 5 0 195 0 0.422064 0.906566<80.1921 692.782 963.781 1528.39> 558 1669 657 1570 0.707107 0.707107<0 220.617> 918 1510 806 1313 0.422064 -0.906566<131.322 1579.1> 813 1924 813 1726 0.707107 -0.707107<140.007 360.624>
LayerCount: 2
Fore
SplineSet
5 0 m 1,0,-1
 215 452 l 2,1,2
 349 741 349 741 610 741 c 2,3,-1
 951 741 l 25,4,-1
 951 561 l 25,5,-1
 610 561 l 2,6,7
 456 561 456 561 405 452 c 2,8,-1
 195 0 l 1,9,-1
 5 0 l 1,0,-1
1621 0 m 1,10,-1
 1416 0 l 1,11,-1
 806 1313 l 1,12,-1
 568 801 l 1,13,-1
 378 801 l 1,14,-1
 708 1510 l 1,15,-1
 918 1510 l 1,16,-1
 1621 0 l 1,10,-1
813 1924 m 1,17,-1
 1068 1669 l 1,18,-1
 969 1570 l 1,19,-1
 813 1726 l 1,20,-1
 657 1570 l 1,21,-1
 558 1669 l 1,22,-1
 813 1924 l 1,17,-1
EndSplineSet
Validated: 19457
EndChar

StartChar: Atilde
Encoding: 195 195 243
Width: 1626
Flags: W
HStem: 0 21G<5 204.292 1406.71 1621> 561 180<459.277 951> 1490 20G<698.691 927.311> 1590 138<844.697 950.613> 1698 138<674.387 780.303>
VStem: 534 120<1637.07 1689> 971 120<1737 1788.93>
DStem2: 5 0 195 0 0.422064 0.906566<80.1921 692.782 963.781 1528.39> 918 1510 806 1313 0.422064 -0.906566<131.322 1579.1>
LayerCount: 2
Fore
SplineSet
5 0 m 1,0,-1
 215 452 l 2,1,2
 349 741 349 741 610 741 c 2,3,-1
 951 741 l 25,4,-1
 951 561 l 25,5,-1
 610 561 l 2,6,7
 456 561 456 561 405 452 c 2,8,-1
 195 0 l 1,9,-1
 5 0 l 1,0,-1
1621 0 m 1,10,-1
 1416 0 l 1,11,-1
 806 1313 l 1,12,-1
 568 801 l 1,13,-1
 378 801 l 1,14,-1
 708 1510 l 1,15,-1
 918 1510 l 1,16,-1
 1621 0 l 1,10,-1
971 1840 m 1,17,-1
 1091 1782 l 1,18,19
 1041 1590 1041 1590 901 1590 c 0,20,21
 845 1590 845 1590 810 1624 c 2,22,-1
 754 1679 l 2,23,24
 735 1698 735 1698 717 1698 c 0,25,26
 678 1698 678 1698 654 1586 c 1,27,-1
 534 1644 l 1,28,29
 584 1836 584 1836 724 1836 c 0,30,31
 780 1836 780 1836 815 1802 c 2,32,-1
 871 1747 l 2,33,34
 890 1728 890 1728 908 1728 c 0,35,36
 947 1728 947 1728 971 1840 c 1,17,-1
EndSplineSet
Validated: 19457
EndChar

StartChar: Adieresis
Encoding: 196 196 244
Width: 1626
Flags: W
HStem: 0 21G<5 204.292 1406.71 1621> 561 180<459.277 951> 1490 20G<698.691 927.311> 1590 224<586.003 739.997 886.003 1040>
VStem: 553 220<1623.52 1780.48> 853 220<1623.52 1780.48>
DStem2: 5 0 195 0 0.422064 0.906566<80.1921 692.782 963.781 1528.39> 918 1510 806 1313 0.422064 -0.906566<131.322 1579.1>
LayerCount: 2
Fore
SplineSet
5 0 m 1,0,-1
 215 452 l 2,1,2
 349 741 349 741 610 741 c 2,3,-1
 951 741 l 25,4,-1
 951 561 l 25,5,-1
 610 561 l 2,6,7
 456 561 456 561 405 452 c 2,8,-1
 195 0 l 1,9,-1
 5 0 l 1,0,-1
1621 0 m 1,10,-1
 1416 0 l 1,11,-1
 806 1313 l 1,12,-1
 568 801 l 1,13,-1
 378 801 l 1,14,-1
 708 1510 l 1,15,-1
 918 1510 l 1,16,-1
 1621 0 l 1,10,-1
853 1702 m 128,-1,18
 853 1749 853 1749 885 1781.5 c 128,-1,19
 917 1814 917 1814 963 1814 c 128,-1,20
 1009 1814 1009 1814 1041 1781.5 c 128,-1,21
 1073 1749 1073 1749 1073 1702 c 128,-1,22
 1073 1655 1073 1655 1041 1622.5 c 128,-1,23
 1009 1590 1009 1590 963 1590 c 128,-1,24
 917 1590 917 1590 885 1622.5 c 128,-1,17
 853 1655 853 1655 853 1702 c 128,-1,18
553 1702 m 128,-1,26
 553 1749 553 1749 585 1781.5 c 128,-1,27
 617 1814 617 1814 663 1814 c 128,-1,28
 709 1814 709 1814 741 1781.5 c 128,-1,29
 773 1749 773 1749 773 1702 c 128,-1,30
 773 1655 773 1655 741 1622.5 c 128,-1,31
 709 1590 709 1590 663 1590 c 128,-1,32
 617 1590 617 1590 585 1622.5 c 128,-1,25
 553 1655 553 1655 553 1702 c 128,-1,26
EndSplineSet
Validated: 19457
EndChar

StartChar: Aring
Encoding: 197 197 245
Width: 1626
Flags: W
HStem: 0 21G<5 204.292 1406.71 1621> 561 180<459.277 951> 1490 20G<698.691 927.311> 1560 98<740.325 885.217> 1826 98<740.253 886.676>
VStem: 633 97<1668.45 1816.11> 896 97<1668.01 1815.36>
DStem2: 5 0 195 0 0.422064 0.906566<80.1921 692.782 963.781 1528.39> 918 1510 806 1313 0.422064 -0.906566<131.322 1579.1>
LayerCount: 2
Fore
SplineSet
5 0 m 1,0,-1
 215 452 l 2,1,2
 349 741 349 741 610 741 c 2,3,-1
 951 741 l 25,4,-1
 951 561 l 25,5,-1
 610 561 l 2,6,7
 456 561 456 561 405 452 c 2,8,-1
 195 0 l 1,9,-1
 5 0 l 1,0,-1
1621 0 m 1,10,-1
 1416 0 l 1,11,-1
 806 1313 l 1,12,-1
 568 801 l 1,13,-1
 378 801 l 1,14,-1
 708 1510 l 1,15,-1
 918 1510 l 1,16,-1
 1621 0 l 1,10,-1
813 1658 m 256,17,18
 849 1658 849 1658 871 1683 c 0,19,20
 896 1711 896 1711 896 1742 c 0,21,22
 896 1779 896 1779 871 1801 c 0,23,24
 843 1826 843 1826 814 1826 c 0,25,26
 780 1826 780 1826 755 1801 c 128,-1,27
 730 1776 730 1776 730 1742 c 128,-1,28
 730 1708 730 1708 754 1684 c 0,29,30
 780 1658 780 1658 813 1658 c 256,17,18
815 1924 m 0,31,32
 888 1924 888 1924 940 1871 c 0,33,34
 993 1816 993 1816 993 1743 c 0,35,36
 993 1667 993 1667 940 1614 c 0,37,38
 886 1560 886 1560 813 1560 c 256,39,40
 740 1560 740 1560 686 1614 c 0,41,42
 633 1667 633 1667 633 1743 c 0,43,44
 633 1817 633 1817 686 1871 c 0,45,46
 739 1924 739 1924 815 1924 c 0,31,32
EndSplineSet
Validated: 19457
EndChar

StartChar: Amacron
Encoding: 256 256 246
Width: 1626
Flags: W
HStem: 0 21G<5 204.292 1406.71 1621> 561 180<459.277 951> 1490 20G<698.691 927.311> 1646 140<561 1064>
DStem2: 5 0 195 0 0.422064 0.906566<80.1921 692.782 963.781 1528.39> 918 1510 806 1313 0.422064 -0.906566<131.322 1579.1>
LayerCount: 2
Fore
SplineSet
5 0 m 1,0,-1
 215 452 l 2,1,2
 349 741 349 741 610 741 c 2,3,-1
 951 741 l 25,4,-1
 951 561 l 25,5,-1
 610 561 l 2,6,7
 456 561 456 561 405 452 c 2,8,-1
 195 0 l 1,9,-1
 5 0 l 1,0,-1
1621 0 m 1,10,-1
 1416 0 l 1,11,-1
 806 1313 l 1,12,-1
 568 801 l 1,13,-1
 378 801 l 1,14,-1
 708 1510 l 1,15,-1
 918 1510 l 1,16,-1
 1621 0 l 1,10,-1
561 1786 m 1,17,-1
 1064 1786 l 1,18,-1
 1064 1646 l 1,19,-1
 561 1646 l 1,20,-1
 561 1786 l 1,17,-1
EndSplineSet
Validated: 19457
EndChar

StartChar: Abreve
Encoding: 258 258 247
Width: 1626
Flags: W
HStem: 0 21G<5 204.292 1406.71 1621> 561 180<459.277 951> 1490 20G<698.691 927.311> 1612 140<645.894 979.279>
DStem2: 5 0 195 0 0.422064 0.906566<80.1921 692.782 963.781 1528.39> 918 1510 806 1313 0.422064 -0.906566<131.322 1579.1>
LayerCount: 2
Fore
SplineSet
5 0 m 1,0,-1
 215 452 l 2,1,2
 349 741 349 741 610 741 c 2,3,-1
 951 741 l 25,4,-1
 951 561 l 25,5,-1
 610 561 l 2,6,7
 456 561 456 561 405 452 c 2,8,-1
 195 0 l 1,9,-1
 5 0 l 1,0,-1
1621 0 m 1,10,-1
 1416 0 l 1,11,-1
 806 1313 l 1,12,-1
 568 801 l 1,13,-1
 378 801 l 1,14,-1
 708 1510 l 1,15,-1
 918 1510 l 1,16,-1
 1621 0 l 1,10,-1
564 1855 m 17,17,18
 680 1752 680 1752 811 1752 c 128,-1,19
 942 1752 942 1752 1064 1855 c 1,20,-1
 1064 1688 l 1,21,22
 952 1612 952 1612 809 1612 c 128,-1,23
 666 1612 666 1612 564 1688 c 1,24,-1
 564 1855 l 17,17,18
EndSplineSet
Validated: 19457
EndChar

